<?xml version="1.0" standalone="no"?>
<!DOCTYPE svg PUBLIC "-//W3C//DTD SVG 1.1//EN" "http://www.w3.org/Graphics/SVG/1.1/DTD/svg11.dtd" >
<svg xmlns="http://www.w3.org/2000/svg" xmlns:xlink="http://www.w3.org/1999/xlink" version="1.1">
<metadata></metadata>
<defs>
<font id="montecarloregular" horiz-adv-x="1652" >
<font-face units-per-em="2048" ascent="1638" descent="-410" />
<missing-glyph horiz-adv-x="346" />
<glyph unicode="&#xfb03;" horiz-adv-x="1333" d="M-647 -520q0 18 4 35q4 10 11 14t9 -8q23 -74 72 -106.5t113 -32.5q57 0 120.5 23.5t120.5 62.5v10q0 25 7 37q4 10 11 14t9 -8q2 -8 4 -14.5t4 -12.5q53 41 94 98q72 98 124.5 218t93.5 239q41 115 95 270.5t109 305.5h-82q-8 0 -8 6q0 8 8.5 17t16.5 9h78 q31 80 65.5 168t68.5 172t62 148q49 106 123 218t164 213t190.5 176t202.5 108q53 18 115 18q49 0 92 -16.5t63 -57.5q10 -16 13.5 -35.5t3.5 -35.5q0 -27 -6 -39q-4 -10 -12.5 -14.5t-12.5 8.5q-16 78 -64.5 110.5t-113.5 32.5q-90 0 -192.5 -56.5t-174.5 -148.5 q-160 -205 -275.5 -456.5t-211.5 -512.5h410q39 86 90 204t118.5 237t153.5 207q61 63 142 108t169 45q43 0 72 -16.5t37 -40.5q0 -2 1 -3t1 -5q0 -6 -4 -8.5t-15 8.5q-12 14 -37.5 24t-60.5 10q-57 0 -111.5 -34.5t-99.5 -86t-78 -98.5q-74 -104 -142.5 -246.5 t-135.5 -304.5h213q8 0 8 -6q0 -8 -8 -17t-19 -9h-208l-228 -557l-16 -37q14 -12 39 -19q18 -4 35.5 -7t33.5 -3q53 0 96.5 22.5t77.5 61.5q23 25 48.5 63.5t50.5 77.5q27 78 69.5 167t83.5 159q27 45 49.5 64.5t49 28.5t63.5 22q10 4 20.5 6t22.5 4q-41 -41 -83 -98.5 t-91 -157.5q-27 -53 -52.5 -118.5t-44 -123t-20.5 -90.5q-2 -39 10.5 -55.5t32.5 -16.5q35 0 67 25t56 51q45 51 85 112.5t79 131.5q6 8 10 8q8 0 9 -12q0 -10 -5 -17q-37 -68 -77.5 -135t-100.5 -127q-27 -27 -62.5 -47t-80.5 -20q-57 0 -84 39t-27 92v18t2 17 q-18 -27 -37.5 -52.5t-42.5 -48.5q-33 -35 -88 -54t-114 -19q-53 0 -94 14q-43 -94 -110 -194.5t-150 -193.5t-174 -162t-183 -97q-27 -8 -55.5 -13.5t-57.5 -5.5q-49 0 -92 17.5t-65 58.5q-2 8 -5 15.5t-6 15.5q-79 -61 -161 -88q-27 -8 -55.5 -13.5t-57.5 -5.5 q-49 0 -94 17.5t-68 58.5q-10 18 -14 38.5t-4 37.5zM-150 -532q25 -45 66 -67t92 -22q96 0 202.5 60.5t178.5 152.5q74 96 137.5 213t102.5 236q-27 27 -39 65q-6 16 -6 31q0 27 14 44.5t37 8.5q10 -2 17 -18t12 -33q39 109 92 235t104 251h-403q-51 -137 -100.5 -277.5 t-104.5 -279.5q-39 -94 -99.5 -205t-136.5 -214t-166 -181zM1421 848q0 35 26 58.5t58 23.5q27 0 42.5 -16.5t15.5 -41.5q0 -33 -25.5 -58.5t-58.5 -25.5q-27 0 -42.5 17.5t-15.5 42.5z" />
<glyph unicode="&#xfb04;" horiz-adv-x="1427" d="M-647 -520q0 18 4 35q4 10 11 14t9 -8q23 -76 72 -107.5t113 -31.5q63 0 129.5 25.5t124.5 66.5q0 29 6 41q4 10 11 14t9 -8l6 -21q51 45 84 92q70 100 123.5 219t94.5 238q41 115 95 270.5t109 305.5h-82q-8 0 -8 6q0 8 8.5 17t16.5 9h78q31 80 70.5 172.5t79.5 179.5 t69 150q49 106 118.5 216t155.5 208t183.5 171t199.5 106q53 18 115 18q49 0 92 -16.5t63 -57.5q10 -16 13.5 -35.5t3.5 -35.5q0 -27 -6 -39q-4 -10 -12.5 -14.5t-12.5 8.5q-16 78 -64.5 110.5t-113.5 32.5q-90 0 -192.5 -56.5t-174.5 -148.5q-160 -205 -275.5 -456.5 t-211.5 -512.5h420q57 137 121.5 275.5t141.5 256.5t169 189q41 33 95 60.5t118 27.5q131 0 131 -112q0 -2 -5 -4t-5 2q0 37 -28 58.5t-69 21.5q-37 0 -75.5 -15.5t-67.5 -40.5q-90 -78 -168 -199.5t-142.5 -258t-113.5 -261.5h262q8 0 9 -6q0 -8 -8.5 -17t-18.5 -9h-258 q-25 -55 -58.5 -143.5t-71.5 -188.5t-79 -195q37 -31 104 -30q35 0 72 11t68 32q53 41 91 83t70 107q6 14 13 16q23 74 50.5 143.5t52 122t34.5 72.5q37 78 91 176.5t123 201t145.5 194.5t159.5 159.5t165 92.5q23 6 41 6q35 0 58.5 -19.5t23.5 -66.5q0 -33 -17 -82 q-27 -72 -90 -159t-149 -180t-181.5 -183t-185.5 -168t-159 -133q-18 -39 -34 -76t-28 -72q-6 -18 -18.5 -55t-22.5 -82t-10 -86t16.5 -70.5t59.5 -29.5q35 0 64.5 22.5t53.5 48.5q86 98 154 228q8 14 12 14t4 -12q0 -18 -8 -39q-39 -72 -70.5 -121t-91.5 -109 q-27 -27 -62.5 -47t-80.5 -20q-74 0 -102.5 43t-28.5 108q0 23 3 48.5t7 52.5q-29 -45 -64.5 -85t-88.5 -75q-27 -18 -64 -29.5t-78 -11.5q-66 0 -114 31q-35 -80 -91.5 -178.5t-129 -198t-158.5 -182t-184.5 -133t-202.5 -50.5q-43 0 -89 18.5t-69 57.5q-8 18 -12 37 q-39 -29 -82 -53.5t-90 -40.5q-27 -8 -55.5 -13.5t-57.5 -5.5q-49 0 -94 17.5t-68 58.5q-10 18 -14 38.5t-4 37.5zM-141 -526q25 -49 69 -72t95 -23q106 0 194 51.5t160 135.5t128 185.5t100 204.5t79 189q-10 14 -24.5 46t-14.5 71q0 31 8.5 62.5t32.5 31.5q23 0 30 -23.5 t7 -51.5q0 -14 -1 -25.5t-3 -22.5l65 175q20 51 41 103t47 114h-415q-51 -137 -100.5 -277.5t-104.5 -279.5q-45 -111 -119 -242t-170 -244q-23 -27 -49.5 -55.5t-54.5 -52.5zM1368 541q66 55 148.5 132t171 165t167 176t137 165.5t79.5 135.5q18 53 18 82q0 53 -47 53 q-27 0 -63.5 -19.5t-67.5 -50.5q-51 -49 -120 -140t-144.5 -208t-148.5 -243.5t-130 -247.5z" />
<glyph horiz-adv-x="0" />
<glyph horiz-adv-x="682" />
<glyph unicode=" "  horiz-adv-x="346" />
<glyph unicode="&#x09;" horiz-adv-x="346" />
<glyph unicode="&#xa0;" horiz-adv-x="346" />
<glyph unicode="!" horiz-adv-x="759" d="M242 41q0 31 23.5 51.5t51.5 20.5q23 0 35.5 -15.5t12.5 -36.5q0 -31 -22.5 -51t-51.5 -20q-23 0 -36 15t-13 36zM385 272l459 875q6 10 38.5 19.5t74.5 16.5t69 7q-4 -6 -38 -57.5t-89 -134.5t-118.5 -179t-127 -192.5t-117 -176t-84.5 -128.5l-32 -48z" />
<glyph unicode="&#x22;" horiz-adv-x="624" d="M315 725q16 61 29.5 150.5t24.5 158.5q6 29 39 29q20 0 36.5 -12.5t10.5 -30.5q-10 -31 -28.5 -88.5t-39.5 -118.5t-37 -104q-2 -8 -14 -9q-8 0 -15.5 6.5t-5.5 18.5zM526 725q16 61 29.5 150.5t24.5 158.5q6 29 38 29q20 0 37 -12.5t11 -30.5q-10 -31 -29 -88.5 t-39.5 -118.5t-36.5 -104q-2 -8 -14 -9q-8 0 -15.5 6.5t-5.5 18.5z" />
<glyph unicode="#" horiz-adv-x="1241" d="M14 551l17 47h391l88 221h-383l18 45h383l134 336h49l-136 -336h236l135 336h45l-133 -336h383l-16 -45h-383l-90 -221h376l-20 -47h-373l-149 -375h-49l149 375h-235l-150 -375h-49l151 375h-389zM469 598h236l88 221h-236z" />
<glyph unicode="$" horiz-adv-x="866" d="M168 342q0 37 20.5 65.5t61.5 38.5q12 4 20 5q16 0 28.5 -7.5t20.5 -15.5q-8 -4 -13 -10t-9 -10q-25 -37 -25 -74q0 -39 28 -70t73 -45l209 502l-52 53q-37 39 -58 80t-21 96q0 57 25.5 112.5t74.5 94.5q47 41 115.5 66.5t134.5 31.5l51 125h59l-49 -120q68 -2 116 -29 t48 -80q0 -49 -27.5 -74.5t-52.5 -25.5q-18 0 -24 14q4 14 6 27.5t2 23.5q0 45 -24.5 70.5t-57.5 36.5l-170 -406q23 -20 44 -38.5t36 -35.5q47 -47 68.5 -100t21.5 -106q0 -90 -54.5 -172t-148.5 -132.5t-211 -50.5h-16l-76 -182h-57l75 186q-70 10 -131 47t-61 109z M430 211h6q68 0 131.5 36t104.5 96t41 134q0 47 -19 92q-12 29 -30.5 55.5t-40.5 53.5zM551 1010q0 -18 5 -38t17 -38q25 -37 64 -76l151 369q-57 -4 -112 -36t-90 -80t-35 -101z" />
<glyph unicode="%" horiz-adv-x="978" d="M8 141l760 910q-33 -20 -86 -41q-37 -10 -68 -11q-57 0 -116 33q4 -31 -2.5 -62.5t-16.5 -60.5q-27 -63 -75 -110t-128 -47q-61 0 -85.5 37.5t-24.5 84.5q0 29 6 54q20 96 77.5 149t129.5 53q39 0 62.5 -12t37.5 -35q14 -14 29 -18q35 -14 58.5 -21.5t47.5 -7.5 q70 0 119 31t86 70q20 25 51 32t61 6t44 -1l-899 -1033h-68zM238 868q0 -69 47 -69q51 0 81.5 45t45.5 84q6 16 13 46t7 56q0 25 -9 42.5t-38 17.5q-39 0 -79 -44.5t-58 -111.5q-6 -18 -8 -34.5t-2 -31.5zM492 350q0 27 6 53q20 96 76.5 149.5t127.5 53.5q68 0 94.5 -37 t26.5 -84q0 -27 -6 -52t-16 -48q-27 -63 -74 -110.5t-127 -47.5q-59 0 -83.5 38t-24.5 85zM561 344q0 -72 49 -72q51 0 80 45t45 86q6 16 14.5 45t8.5 56q0 25 -10.5 43t-38.5 18q-39 0 -78 -43t-60 -112q-10 -41 -10 -66z" />
<glyph unicode="&#x26;" horiz-adv-x="2017" d="M305 541q0 158 65.5 315.5t192.5 288.5t313.5 210t428.5 79q168 0 289.5 -49.5t199.5 -132.5t116 -187t38 -215q0 -113 -38 -221.5t-109.5 -195.5t-174 -139t-233.5 -52q-47 0 -94.5 8t-90.5 26q-129 -59 -260 -59q-37 0 -78 6q-125 18 -180 93t-55 167q0 137 90 246 q47 55 112.5 99t137.5 77q27 92 86 176t142 138.5t179 54.5q47 0 81 -18.5t34 -63.5q0 -53 -38 -89t-88 -60.5t-87 -41.5q-47 -20 -97 -41.5t-97 -46.5q-12 -68 -13 -141q0 -20 1 -38.5t3 -39.5q12 -123 61.5 -211t119.5 -135q115 63 185.5 166.5t70.5 228.5 q0 47 -13.5 91.5t-48.5 44.5q-18 0 -18 8q0 10 24 10q63 0 95 -49t32 -105q0 -100 -51 -183t-117 -142t-123 -92q66 -33 144 -33q145 0 243.5 71.5t147.5 186.5t49 244q0 109 -36 216t-109.5 194t-184 139.5t-260.5 52.5q-207 0 -369.5 -77t-276.5 -205t-173 -280.5 t-59 -304.5q0 -156 66.5 -288.5t205.5 -214.5t356 -82q164 0 303.5 46t243 120.5t152.5 160.5q2 8 10 9q6 0 9 -5.5t-1 -13.5q-43 -86 -135 -171t-237.5 -141t-350.5 -56q-186 0 -324.5 52t-228.5 143t-134 208t-44 244zM752 496q0 -82 44 -147t138 -81q16 -2 33.5 -3 t38.5 -1q43 0 89 6t85 21q-76 53 -144.5 154.5t-77.5 242.5q-2 14 -2 27.5v27.5q0 51 7 97q-37 -27 -71 -55.5t-61 -63.5q-39 -45 -59 -105.5t-20 -119.5zM1100 958q41 16 79 29.5t70 28.5q23 10 65 30.5t81 50t51 62.5q6 18 6 33q0 33 -24.5 46t-55.5 13q-70 0 -126 -50 t-94 -119t-52 -124z" />
<glyph unicode="'" horiz-adv-x="331" d="M315 725q16 61 29.5 150.5t24.5 158.5q6 29 39 29q20 0 36.5 -12.5t10.5 -30.5q-10 -31 -28.5 -88.5t-39.5 -118.5t-37 -104q-2 -8 -14 -9q-8 0 -15.5 6.5t-5.5 18.5z" />
<glyph unicode="(" horiz-adv-x="628" d="M14 295q0 49 5.5 101.5t15.5 105.5q45 225 146.5 411.5t244.5 320.5t317.5 206.5t364.5 72.5q16 -2 24.5 -14t-8.5 -14q-197 0 -354.5 -77t-277 -208t-201.5 -299t-125 -350q-18 -80 -28.5 -157t-10.5 -148q0 -143 46 -257t150.5 -179.5t276.5 -65.5q10 0 17.5 -7 t7.5 -16q-1 -12 -21 -14t-39.5 -3t-40.5 -1q-170 0 -283.5 79t-170 213t-56.5 300z" />
<glyph unicode=")" horiz-adv-x="952" d="M-160.5 -329.5q-9.5 12.5 6.5 14.5q197 0 354.5 76.5t277.5 207.5t202 299t125 350q18 80 28.5 157t10.5 149q0 143 -46 256.5t-150.5 179t-276.5 65.5q-8 0 -16.5 7.5t-8.5 15.5q0 12 21 14q20 2 39.5 3t39.5 1q170 0 284 -78.5t170 -213t56 -300.5q0 -49 -5 -101 t-15 -105q-45 -225 -146.5 -411.5t-245 -321t-317.5 -207t-364 -72.5q-14 2 -23.5 14.5z" />
<glyph unicode="*" horiz-adv-x="1071" d="M199 776q0 14 16 19l307 22l-65 273q-6 14 8 18q14 10 20 -6l113 -246l229 248q6 6 15 6q8 0 12 -7t-2 -18l-193 -268l291 -22q14 -4 15 -17q0 -4 -4.5 -10t-14.5 -6l-305 -25l66 -270q0 -2 1 -3l1 -1q-1 -11 -11 -17q-16 -4 -20 9l-115 243l-227 -247q-6 -6 -14 -7 q-8 0 -12.5 8.5t1.5 16.5l193 268l-291 25q-14 0 -14 14z" />
<glyph unicode="+" horiz-adv-x="784" d="M229 360v39h263l55 258h47l-55 -258h245v-39h-256l-53 -258h-47l53 258h-252z" />
<glyph unicode="," horiz-adv-x="425" d="M141 -156q0 12 21 13q66 14 109.5 65t64.5 84h-10q-23 0 -38.5 14.5t-15.5 36.5q0 29 21.5 52.5t50.5 23.5q55 0 55 -59q0 -29 -29.5 -84.5t-81.5 -103.5t-122 -60q-25 0 -25 18z" />
<glyph unicode="-" horiz-adv-x="649" d="M264 360v39h369v-39h-369z" />
<glyph unicode="." horiz-adv-x="391" d="M258 41q0 31 23.5 51.5t52.5 20.5q23 0 35 -15.5t12 -36.5q0 -31 -23.5 -51t-52.5 -20q-20 0 -33.5 15t-13.5 36z" />
<glyph unicode="/" horiz-adv-x="1083" d="M10 -166l1016 1325h57l-1017 -1325h-56z" />
<glyph unicode="0" horiz-adv-x="1224" d="M141 328q0 47 7.5 93t19.5 91q35 123 112.5 242.5t185 216t234.5 154t261 57.5q119 0 195.5 -39t119.5 -103.5t53 -140.5q6 -37 6 -76q0 -43 -7 -87t-19 -87q-35 -123 -113 -241.5t-185.5 -216t-234.5 -154.5t-260 -57q-117 0 -195.5 39.5t-121.5 103t-54 137.5 q-2 16 -3 33.5t-1 34.5zM281 328q0 -23 2 -45.5t6 -44.5q16 -84 73.5 -148.5t176.5 -64.5q133 0 241.5 66.5t190.5 170t135 209.5q37 74 63.5 173t26.5 194q0 23 -2 46t-6 44q-14 84 -65.5 147.5t-172.5 63.5q-129 0 -239.5 -67.5t-195.5 -170t-142 -211.5 q-39 -72 -65.5 -169t-26.5 -193z" />
<glyph unicode="1" horiz-adv-x="669" d="M14 14q0 10 5.5 19.5t15.5 9.5h112q57 0 93 33t65 96l395 872l-301 -227q-16 -14 -51 -30.5t-80 -16.5l449 369h137l-430 -973q-29 -61 -29 -88q0 -35 64 -35h121q10 0 10 -12q0 -8 -6 -19.5t-15 -11.5h-544q-10 0 -11 14z" />
<glyph unicode="2" horiz-adv-x="1107" d="M88 18q0 31 19.5 69t31.5 54q31 41 90.5 87t116.5 79q88 51 194.5 102.5t207 113t165.5 143.5q41 49 67 113.5t26 140.5q0 70 -34 112.5t-87.5 63t-112.5 20.5q-86 0 -172 -45q-66 -35 -105.5 -91t-52.5 -128q-2 -6 -2 -13.5v-15.5q0 -61 27 -98q0 -2 1 -2t1 -2t-8 -2 q-16 0 -29 6q-33 10 -56.5 53t-19.5 82q10 90 75 152.5t144 95.5q117 47 234 47q90 0 172 -23.5t133 -77t51 -143.5q0 -92 -43 -167.5t-112 -135.5q-84 -72 -199 -129t-232.5 -109.5t-213.5 -109.5q-16 -8 -46 -30.5t-54.5 -48t-24.5 -50.5q0 -14 12 -25.5t43 -19.5 q57 -14 103 -24.5t95.5 -16.5t114.5 -6q37 0 88.5 8t104.5 28.5t94 53.5t57 82q6 18 6 39q0 18 -7 36.5t-25 32.5q-4 4 -4 11q0 8 12 8t33 -16q70 -55 57 -148q-10 -84 -59.5 -130t-122 -64.5t-150.5 -18.5q-66 0 -129 9.5t-110 19.5t-104.5 24.5t-110.5 14.5q-45 0 -80 -15 q-12 -4 -27.5 -14.5t-21.5 -22.5q-20 12 -21 41z" />
<glyph unicode="3" horiz-adv-x="1107" d="M100 129q0 20 6 41q6 23 29 50.5t68 25.5q-6 -14 -9.5 -32.5t-7.5 -35.5q-2 -6 -2 -12v-10q0 -53 37 -89t95.5 -52.5t117.5 -16.5q82 0 162 28.5t146.5 82t106.5 128t40 166.5q0 82 -40 127t-102.5 63.5t-128.5 18.5q-33 0 -79.5 -2t-73.5 -2t-27 17q0 10 14.5 21 t43.5 11q51 0 118.5 5.5t124.5 25.5q53 18 104.5 58t84.5 94.5t33 115.5q0 66 -49.5 103t-137.5 39q-147 0 -248 -94q-66 -61 -65 -132q0 -10 3 -19t5 -19q-43 -2 -63.5 18t-20.5 53t18 66q35 61 106 98t150.5 53.5t145.5 16.5q88 0 170 -31t108 -109q10 -27 11 -55 q0 -25 -11 -59q-16 -61 -68 -109.5t-115.5 -81t-115.5 -49.5q143 -14 198.5 -81.5t55.5 -149.5q0 -41 -11 -80t-28 -74q-51 -100 -140 -166.5t-198.5 -100.5t-224.5 -34q-45 0 -89 5.5t-87 15.5q-74 16 -117 54t-43 95z" />
<glyph unicode="4" horiz-adv-x="976" d="M78 389q0 10 23.5 35t78.5 70l692 593q14 12 27.5 23.5t50.5 20t119 8.5l-309 -688h174q-18 -33 -54 -52.5t-65 -19.5h-82l-96 -213q-12 -29 -19.5 -50.5t-7.5 -35.5q0 -37 62 -37h121q10 0 10 -12q0 -8 -6 -19.5t-15 -11.5h-544q-10 0 -11 14q0 10 5.5 19.5t15.5 9.5 h114q53 0 90 34t64 95l94 207h-424q-20 0 -39.5 -1t-33.5 -1q-35 0 -35 12zM213 451h430l268 593z" />
<glyph unicode="5" horiz-adv-x="978" d="M39 164q0 39 14 76q16 41 60.5 83t87.5 58q10 4 28.5 8t8.5 -6q-33 -27 -60.5 -69t-38.5 -74q-14 -43 -14 -82q0 -84 59.5 -129t145.5 -43q96 4 173 44t132 101.5t85 133t30 138.5q0 68 -32 123.5t-102 81.5q-27 10 -60.5 15.5t-72.5 5.5q-61 0 -117.5 -14.5 t-111.5 -32.5l240 557h542q-18 -47 -44.5 -84t-71.5 -31q-74 10 -159 15t-151 5q-63 0 -86 -6l-141 -370q37 6 81 8t85 2q76 0 153.5 -16.5t133 -63.5t63.5 -139q2 -8 2 -18.5v-20.5q0 -109 -48 -197t-129 -149.5t-176.5 -94t-191.5 -32.5q-74 0 -151.5 23.5t-126.5 82.5 q-39 45 -39 111z" />
<glyph unicode="6" horiz-adv-x="919" d="M84 260q0 127 58.5 273.5t148.5 271.5q68 94 154.5 172t191 126t227.5 48q41 0 80 -8t72 -25q72 -37 71 -102q0 -31 -14 -58q-20 -43 -76 -38q6 18 7 36q0 12 -2.5 23.5t-6.5 21.5q-20 53 -67 74t-105 21q-100 0 -182 -41t-146.5 -108.5t-112.5 -148.5t-79 -159t-45 -139 q43 55 114.5 99t154.5 69.5t163 25.5q53 0 98.5 -11t81.5 -40q47 -33 66.5 -81t19.5 -101q0 -88 -43 -179.5t-108 -158.5q-76 -76 -186.5 -116t-221.5 -40q-72 0 -145.5 22.5t-116.5 82.5q-51 76 -51 188zM223 242q0 -90 50.5 -163t150.5 -73q88 0 165 44t133 117t81 155 q16 59 16 104q0 94 -57 149.5t-148 55.5q-16 0 -33.5 -2t-33.5 -6q-137 -27 -221 -114t-101 -233q-2 -8 -2 -17v-17z" />
<glyph unicode="7" horiz-adv-x="768" d="M113 -4q0 18 28 59l711 953q-49 -2 -96 3t-90 11q-33 4 -93.5 14.5t-132.5 10.5q-45 0 -88 -7q-135 -18 -194 -139q-8 -14 -29 -14q-23 0 -16 12q39 66 74.5 124t111.5 91q39 16 77 22.5t73 6.5q78 0 140 -19.5t101 -36.5q45 -18 96.5 -31.5t90.5 -11.5q16 20 38.5 50 t52 53.5t64.5 23.5q43 0 43 -36q0 -14 -12 -35t-39 -39q-14 -12 -51 -28.5t-49 -20.5q-61 -70 -133 -169.5t-146 -213t-143.5 -229t-131 -219t-108.5 -181.5q-39 -2 -60 -6l-65 -10q-25 -6 -24 12z" />
<glyph unicode="8" horiz-adv-x="1007" d="M135 240q0 37 12 79q23 78 82.5 145.5t142.5 117t177 69.5q-109 55 -109 172q0 33 9 64q23 76 84 137t146 98t173 37q115 0 184.5 -57.5t69.5 -147.5q0 -33 -8 -63q-25 -82 -98.5 -149.5t-170.5 -98.5q84 -33 134.5 -95.5t50.5 -144.5q0 -39 -13 -79q-27 -96 -109.5 -175 t-194 -126.5t-228.5 -47.5q-150 0 -242 75t-92 190zM268 236q0 -94 62 -159t162 -65q84 0 162.5 41t136 109.5t77.5 152.5q4 20 7.5 39t3.5 37q0 96 -61.5 159.5t-164.5 63.5q-82 0 -160.5 -41t-136 -109.5t-77.5 -152.5q-4 -20 -7.5 -38.5t-3.5 -36.5zM559 831 q0 -74 44 -121.5t116 -47.5q68 0 129 40.5t100 107.5t39 140q0 74 -45 122t-117 48q-66 0 -127 -41t-100 -106.5t-39 -141.5z" />
<glyph unicode="9" horiz-adv-x="987" d="M80 106q0 12 4 25.5t10 28.5q25 43 76 41q-6 -25 -6 -41q0 -23 6 -41q20 -55 68.5 -77t103.5 -22q100 0 182 42t147.5 110t114 147.5t79 158.5t44.5 143q-43 -55 -114.5 -99.5t-155.5 -71t-164 -26.5q-51 0 -96 12.5t-82 38.5q-45 35 -65.5 82t-20.5 100q0 88 44 179.5 t110 156.5q76 76 185 118t220 42q72 0 145.5 -22.5t116.5 -81.5q51 -76 51 -189q0 -127 -58 -273.5t-148 -271.5q-68 -94 -154 -173t-189.5 -126t-226.5 -47q-41 0 -80 7.5t-73 25.5q-74 39 -74 104zM346 692q0 -94 57.5 -149.5t151.5 -55.5q30 1 61 7q137 27 221.5 115.5 t98.5 232.5q2 10 2 19v18q0 90 -49 161.5t-150 71.5q-88 0 -163.5 -44t-131 -115.5t-82.5 -157.5q-16 -59 -16 -103z" />
<glyph unicode=":" horiz-adv-x="286" d="M170 41q0 31 23.5 51.5t52.5 20.5q23 0 36 -15.5t13 -36.5q0 -31 -23.5 -51t-52.5 -20q-20 0 -34.5 15t-14.5 36zM326 424q0 29 21.5 49.5t49.5 22.5q23 0 37.5 -13.5t14.5 -36.5q0 -29 -21.5 -50t-50.5 -23q-20 0 -35.5 14t-15.5 37z" />
<glyph unicode=";" horiz-adv-x="296" d="M27 -156q0 12 20 13q66 14 110 65t64 84h-10q-25 0 -40 15.5t-15 37.5q0 29 23.5 51.5t49.5 22.5q55 0 56 -59q0 -29 -30 -84.5t-82 -103.5t-122 -60q-25 0 -24 18zM326 424q0 29 21.5 49.5t49.5 22.5q23 0 37.5 -13.5t14.5 -36.5q0 -29 -21.5 -50t-50.5 -23 q-20 0 -35.5 14t-15.5 37z" />
<glyph unicode="&#x3c;" horiz-adv-x="866" d="M102 406q0 31 33 63l406 401q4 4 8 4q12 0 19 -15t-3 -25l-368 -410l368 -293q6 -6 6 -12q0 -10 -11 -20.5t-21 -2.5l-414 266q-23 16 -23 44z" />
<glyph unicode="=" horiz-adv-x="757" d="M233 309v43h445v-43h-445zM311 494v41h447v-41h-447z" />
<glyph unicode="&#x3e;" horiz-adv-x="866" d="M299 846q0 10 12.5 20.5t20.5 3.5l416 -268q23 -16 22 -41q0 -31 -33 -63l-407 -402q-4 -4 -11 -4q-8 0 -15 14.5t3 24.5l369 410l-371 295q-6 4 -6 10z" />
<glyph unicode="?" horiz-adv-x="759" d="M242 41q0 31 23.5 51.5t51.5 20.5q23 0 35.5 -15.5t12.5 -36.5q0 -31 -22.5 -51t-51.5 -20q-23 0 -36 15t-13 36zM340 322q0 47 53 100q51 51 121 101t142.5 102.5t135 107.5t101.5 118.5t39 135.5q0 84 -51.5 131t-139.5 47q-139 0 -229 -70.5t-90 -195.5q0 -18 2 -35.5 t8 -29.5q0 -2 1 -2l1 -1q0 -4 -9 -5t-15 1q-27 10 -40.5 38t-13.5 61q0 72 37 122t96.5 80.5t127 45t128.5 14.5q82 0 151 -20.5t111 -66.5t42 -124q0 -82 -45.5 -142.5t-115 -106.5t-145 -86t-137.5 -81q-49 -35 -92 -68.5t-66.5 -77.5t-19.5 -110q-16 -25 -37 -27.5 t-29 1.5q-23 14 -22 43z" />
<glyph unicode="@" horiz-adv-x="1830" d="M297 352q0 113 36 223.5t100.5 209t150.5 169.5q145 125 329.5 188.5t358.5 63.5q188 0 308 -56t177.5 -150.5t57.5 -206.5q0 -143 -89.5 -294t-252.5 -259q-70 -45 -141.5 -75t-129.5 -30q-55 0 -91 33t-36 111q0 43 12 100v18q-29 -43 -68.5 -89t-82.5 -81 q-70 -51 -123 -51q-51 0 -81 43t-30 111q0 41 13 90q63 231 264 373q43 31 109.5 50t134.5 19q47 0 89 -11t74 -36l-18 -10q-51 27 -108 26q-68 0 -130.5 -34.5t-115.5 -89.5q-74 -76 -124 -163t-69 -153q-10 -37 -10 -76q0 -33 10 -55t35 -22q43 0 90 42t93 102t83 117.5 t58 88.5q47 68 85 116t119 66l46 10q-45 -55 -93.5 -137t-81.5 -145q-20 -45 -39.5 -116t-23.5 -130q-2 -33 13.5 -45t41.5 -12q41 0 92.5 21.5t83.5 41.5q90 55 156 142t102.5 188.5t36.5 199.5q0 102 -46 190.5t-144 142t-260 53.5q-106 0 -221 -32t-222.5 -94.5 t-195.5 -152.5q-61 -66 -111.5 -154t-80 -186t-29.5 -199q0 -162 74.5 -272.5t197.5 -167.5t270 -57q190 0 354 73.5t290 205.5t202 302q8 20 35 21q18 0 31.5 -9.5t7.5 -19.5q-137 -299 -385 -458.5t-576 -159.5q-178 0 -316 64.5t-217 185t-79 288.5z" />
<glyph unicode="A" d="M-61 12q0 55 34 101q8 8 15.5 11t7.5 -9q6 -100 70.5 -144.5t152.5 -44.5q84 0 173 35t159 94q90 80 167 184.5t146 211.5q25 41 51.5 81.5t53.5 79.5h-510q-4 0 -4 4q0 10 15 25.5t26 15.5h501q90 133 186.5 261.5t194.5 234.5q121 127 253 204t239 83q17 1 33 1 q38 -1 70 -7q46 -10 75 -33q27 -20 39 -51t12 -64q0 -8 -1 -16t-3 -19q-6 -33 -24 -53q-8 -8 -17 -8q-14 0 -2 18q18 25 19 60q0 18 -7 32q-14 39 -54 58.5t-93 19.5q-115 0 -242 -82q-92 -59 -187 -158.5t-190.5 -222t-189.5 -258.5h301q18 37 37.5 74t40.5 74 q76 137 156.5 263t144.5 228q6 10 12 11q8 0 10 -8.5t-4 -14.5q-94 -143 -164.5 -303t-128.5 -324h101q4 0 4 -4q0 -8 -15.5 -24.5t-27.5 -16.5h-78q-18 -53 -44 -142t-45 -185.5t-19 -175.5q0 -74 23.5 -115t74.5 -41h12t12 2q35 6 71 39t71 78q49 63 90 135t61 110 q10 16 17 17q8 0 8 -15q0 -8 -6 -20q-29 -51 -73 -128t-97 -142q-39 -45 -82 -78t-90 -41q-12 -2 -23.5 -3t-23.5 -1q-59 0 -104.5 33.5t-61.5 113.5q-4 23 -6 47.5t-2 46.5q0 119 41.5 240t87.5 225h-316q-33 -45 -63.5 -93t-63.5 -95q-59 -86 -142 -181.5t-181.5 -180.5 t-205.5 -142t-216 -65q-8 -2 -18.5 -2h-20.5q-70 0 -133.5 24.5t-83.5 93.5q-6 18 -6 41z" />
<glyph unicode="B" horiz-adv-x="1376" d="M-203 -88q0 25 13 39q8 10 16 10t6 -10q-2 -7 -2 -13q0 -24 24 -46q30 -28 58 -35q33 -8 70 -9q80 0 148.5 41t121.5 103q-76 53 -134.5 133t-58.5 180q0 31 7 62q23 111 112 172q46 32 103 32h4q39 0 70.5 -13t43.5 -32v-2q0 -8 -8 -15t-12 -3q-14 26 -52 26h-3 q-23 0 -49.5 -9t-49.5 -31q-27 -23 -43 -57t-26 -70q-12 -43 -13 -84q0 -82 39 -147.5t97 -113.5q74 92 138 209t118.5 228.5t97.5 187.5q160 281 308.5 435.5t275.5 154.5q27 0 51 -6q8 -2 4 -10.5t-12 -6.5t-15.5 3.5t-15.5 1.5q-61 0 -133 -60.5t-148 -166t-151 -242.5 q27 16 62.5 23t74.5 7q59 0 119.5 -12t101.5 -29q92 72 148.5 178.5t56.5 204.5t-51.5 157.5t-129 90.5t-163.5 41t-158 10q-115 0 -228.5 -24.5t-209.5 -70.5t-164 -112q-55 -53 -104.5 -141t-49.5 -178q0 -37 13 -72q20 -57 73.5 -89t122.5 -32q27 0 55.5 6.5t57.5 14.5h4 q6 0 6 -6q0 -8 -10 -13q-55 -18 -115 -18q-70 0 -131 27.5t-100 83t-39 137.5q0 63 17.5 116.5t47.5 100.5q68 100 191 165.5t272.5 98.5t296.5 33q70 0 161 -10.5t181 -38t159 -78.5t95 -131q12 -39 13 -84q0 -82 -41 -165t-103 -144q-47 -51 -115 -90q96 -47 143.5 -128 t47.5 -174q0 -96 -49 -192t-144.5 -174t-236.5 -119q-66 -18 -140.5 -28.5t-152.5 -10.5q-80 0 -160 12.5t-153 38.5q-12 4 -26.5 10.5t-27.5 14.5q-111 -98 -239 -129q-50 -12 -99 -12q-23 0 -65.5 6t-78.5 26.5t-36 65.5zM342 -18q12 -8 24.5 -13.5t24.5 -9.5 q68 -25 143.5 -37t151.5 -12q80 0 153 13.5t126 33.5q104 45 174.5 120t107.5 165t37 176q0 78 -29.5 145.5t-91.5 112.5q-63 -31 -138 -51.5t-153 -20.5q-57 0 -85.5 15.5t-38.5 31.5q-27 -51 -51.5 -106.5t-51.5 -110.5q-53 -111 -128 -233.5t-175 -218.5zM791 676 q0 -20 21.5 -34.5t68.5 -14.5q66 0 126 21.5t113 60.5q-39 25 -88 34t-112 9q-59 0 -94 -25t-35 -51z" />
<glyph unicode="C" horiz-adv-x="1417" d="M141 375v32.5t2 32.5q12 131 75 270.5t170.5 266.5t253.5 227.5t324.5 159.5t383.5 59q135 0 199.5 -49t64.5 -114q0 -51 -39 -105.5t-113 -95.5q-82 -45 -179 -70.5t-187 -37t-150 -17.5h-2q-6 0 -6 6q0 10 14 12q135 14 264.5 54.5t221.5 95.5q51 31 81.5 76t30.5 90 q0 51 -50 89t-167 38q-178 0 -332.5 -58.5t-280.5 -158t-219 -225.5t-147.5 -262t-66.5 -265q-2 -20 -3 -38.5t-1 -37.5q0 -158 59 -256t157.5 -142t215.5 -44q121 0 243.5 41t229 113.5t175.5 171t77 210.5q1 11 1 22q1 68 -45 112q-43 41 -132 42q-19 0 -41 -2 q-162 -14 -295 -82.5t-226.5 -158.5t-138.5 -176q-2 -6 -10 -6q-18 0 -12 16q47 88 143 182t233.5 165t305.5 85q14 2 26.5 2h26.5q132 -1 192 -59q52 -52 53 -126q0 -10 -1 -20q-10 -123 -87 -225t-197 -176t-261 -114t-281 -40q-147 0 -273 50.5t-203 158t-77 281.5z" />
<glyph unicode="D" horiz-adv-x="1816" d="M-10 -90q0 27 12 41q8 10 16.5 10t4.5 -10q-1 -5 -1 -11q0 -26 24 -48q28 -28 56 -35q41 -10 72 -11q90 0 163 51.5t130 118.5q-78 47 -136.5 114t-58.5 149q0 33 9 59q20 70 88 111q20 12 43.5 17t48.5 5q80 0 112 -37v-2q0 -4 -7 -10t-11 -2q-14 20 -51 20 q-45 0 -88 -30q-41 -31 -54 -76q-12 -39 -12 -78q0 -70 40 -122t97 -91q16 20 29.5 40.5t28.5 41.5q61 94 120.5 215t123 249t134 248.5t154.5 216t185 146.5q66 35 124 35q33 0 60 -8q8 -2 5 -10.5t-11 -6.5q-8 4 -17.5 4h-19.5q-106 0 -223 -137q-90 -106 -156 -226 t-121 -246t-113.5 -249t-138.5 -235q-20 -31 -43.5 -59.5t-48.5 -55.5q29 -12 60.5 -20.5t58.5 -14.5q92 -18 188 -18q133 0 259 29.5t223 80.5q131 70 233 193t162.5 272.5t60.5 296.5t-69.5 277.5t-231.5 212.5q-100 51 -222 74.5t-245 23.5q-174 0 -336.5 -56.5 t-265.5 -152.5q-53 -51 -95 -137t-42 -170q0 -18 2 -36.5t8 -37.5q18 -57 70.5 -86.5t120.5 -29.5q51 0 106 18q2 0 3 1t3 1q4 0 4 -4q0 -10 -12 -14q-29 -8 -60.5 -14.5t-62.5 -6.5q-66 0 -127 23.5t-99 75t-38 131.5q0 63 18.5 118.5t51.5 104.5q68 100 191.5 166.5 t274 100.5t298.5 34q125 0 249.5 -23.5t237.5 -70.5q205 -88 296 -236.5t91 -316.5q0 -156 -68.5 -310.5t-190.5 -280.5t-284 -200q-100 -45 -218 -67.5t-238 -22.5q-70 0 -137.5 7t-133.5 22q-27 6 -57.5 15t-60.5 24q-37 -33 -77 -65t-85 -54q-47 -23 -97.5 -36 t-103.5 -13q-20 0 -64.5 6t-81 26.5t-36.5 63.5z" />
<glyph unicode="E" horiz-adv-x="1216" d="M35 256q0 12 1 24.5t3 24.5q18 133 103 252t227 182q29 12 58.5 23.5t41.5 13.5q-37 74 -37 152q0 66 23.5 129t62.5 117q59 78 145.5 133t184.5 84.5t194 29.5q49 0 99.5 -7t93.5 -28q51 -23 74.5 -57.5t23.5 -73.5q0 -90 -98 -155q-31 -20 -83 -34.5t-103 -14.5 q-72 0 -113 30q-8 8 -8 15q0 6 6 9t8 1q53 -25 115 -25q92 0 155 43q80 53 80 125q0 31 -17.5 57.5t-57.5 45.5q-33 16 -75 23t-81 7q-100 0 -205.5 -44t-177.5 -117q-51 -55 -92 -141.5t-41 -172.5q0 -49 18 -96q57 20 115.5 29.5t112.5 9.5q143 0 143 -74q0 -43 -49 -81 t-140 -38q-12 0 -24 1t-25 4q-82 10 -129 33.5t-84 58.5q-25 -12 -51 -25.5t-55 -36.5q-106 -90 -159.5 -204.5t-53.5 -221.5q0 -121 55 -194.5t144.5 -105.5t189.5 -32q117 0 225 35q127 41 244 127t180 223q23 51 23 93q0 53 -35 85.5t-96 32.5h-15.5t-17.5 -2 q-84 -12 -136.5 -55t-79 -92t-40.5 -86q-6 -12 -10 -12q-8 0 -9 20q0 6 1 13.5t4 15.5q8 25 36.5 73t84 93t139.5 61q29 6 53 6q82 0 133 -46t51 -118q0 -41 -22 -96q-45 -102 -128 -182t-188.5 -134.5t-220.5 -82t-223 -27.5q-20 0 -40 1t-38 3q-137 14 -224 69.5 t-128 136.5t-41 167zM573 793q31 -51 93.5 -74t107.5 -23q39 0 70 13q53 18 53 57q0 23 -26.5 40t-82.5 17q-61 0 -114 -8t-101 -22z" />
<glyph unicode="F" horiz-adv-x="1286" d="M10 879q0 45 11.5 91t31.5 89q35 76 96.5 133t122.5 90q102 55 206 77.5t210 22.5q88 0 178 -12t183 -35q104 -25 215 -55q41 -12 98 -26.5t115 -20.5q8 0 14 1t14 1q20 0 45 -6q39 2 76 14t60 45q8 12 8 23q0 10 -2 19t4 16q4 4 10 4q10 0 16 -13q2 -6 2 -20v-13.5 t-4 -13.5q-14 -41 -55 -64.5t-82 -29.5q-16 -2 -35.5 -3t-40.5 -1h-34.5t-36.5 2q-68 -31 -142 -117q-100 -119 -170.5 -257t-132.5 -279q29 -4 57.5 -7.5t55.5 -3.5q55 0 98 15q4 14 15.5 39.5t21.5 38.5q33 45 66 45q27 0 26 -27q0 -16 -18 -45q-14 -18 -33.5 -34.5 t-40.5 -24.5q-14 -29 -20.5 -62t-6.5 -61q0 -45 15 -72q2 -2 2 -8t-7.5 -8t-13.5 4q-26 32 -26 92q0 55 18 104q-45 -18 -127 -18q-23 0 -46 1t-50 3q-45 -100 -95.5 -200.5t-115.5 -190.5q-72 -100 -162 -180t-205 -121q-63 -23 -151 -23q-35 0 -65.5 5.5t-53.5 17.5 q-25 12 -38 34.5t-13 45.5t12 37q6 8 15.5 9t5.5 -9q-1 -5 -1 -9q0 -26 30 -48q34 -26 63 -36q31 -6 61 -6q63 0 113 19q74 25 146.5 101.5t135.5 170.5q53 82 104.5 182.5t102.5 206.5q-41 4 -100 8t-123 4q-82 0 -157.5 -13t-108.5 -54q-16 -23 -17 -49q0 -6 1 -12.5 t4 -12.5q0 -2 1 -3t1 -3q0 -4 -7 -4q-10 0 -12 10q-2 6 -4 16.5t-2 20.5q0 29 12 55q33 66 102.5 90.5t151.5 24.5q76 0 152 -12.5t127 -22.5q68 131 140.5 258t158.5 227.5t190 153.5q-100 12 -205.5 33.5t-177.5 34.5q-45 8 -102 11t-121 3q-113 0 -225.5 -13.5 t-179.5 -43.5q-119 -53 -205 -146.5t-86 -232.5q0 -57 19.5 -97t49.5 -61q35 -20 72 -20q45 0 92 27.5t82 80.5q16 27 31.5 78t15.5 104q0 29 -5 55.5t-19 47.5l-4 8q0 6 6 6q8 0 14 -10q10 -14 21.5 -44t15.5 -54q2 -12 3 -24.5t1 -24.5q0 -41 -10 -83t-33 -77 q-33 -55 -88 -83t-115 -28q-47 0 -90 19q-63 31 -93 88t-30 125z" />
<glyph unicode="G" horiz-adv-x="1443" d="M76 303q0 47 7 93t15 87q33 133 107 262t178 245t233 204q150 102 317 161.5t347 59.5q51 0 99 -6t87 -20q66 -23 94.5 -62t28.5 -86q0 -76 -63 -151q-70 -82 -169.5 -114t-178.5 -32q-18 0 -34 1t-30 3q-20 2 -20 15q0 14 24 10q14 -2 30.5 -3t33.5 -1q76 0 160.5 31.5 t152.5 117.5q35 45 35 99q0 37 -19.5 69.5t-66.5 52.5q-62 29 -147 29h-21q-133 -4 -267.5 -56t-257 -136t-225 -189.5t-172.5 -216.5q-33 -53 -66.5 -136t-57 -178.5t-23.5 -185.5q0 -104 41 -186t145 -111q27 -8 68 -8q51 0 113.5 15.5t130.5 48.5q111 53 220 144 t207.5 203.5t170.5 227.5q41 63 63 64q61 90 130 161.5t146 112.5q66 33 130 33q29 0 55 -6q10 -2 6 -11.5t-12 -7.5q-18 6 -39 6q-49 0 -106.5 -34.5t-114.5 -104.5q-90 -106 -157 -234t-123 -268.5t-118.5 -280.5t-146.5 -272q-76 -117 -172 -209t-217 -139 q-67 -26 -154 -26h-6q-37 0 -70.5 6t-56.5 18q-31 16 -44 41t-13 49q0 31 14 47q8 10 17.5 11.5t4.5 -9.5q-1 -5 -1 -11q0 -31 31 -60q36 -33 67 -43q37 -10 67 -10q31 0 60.5 7t56.5 15q80 31 158 121t143 203q86 143 168 326.5t174 357.5q-121 -162 -257 -287t-275 -186 q-59 -27 -128 -42.5t-139 -15.5t-134 18.5t-115 57.5q-66 53 -92.5 134t-26.5 167z" />
<glyph unicode="H" horiz-adv-x="1703" d="M25 -100q0 23 12 37q8 8 16 9t6 -9q-1 -5 -1 -9q0 -26 29 -50q34 -28 60 -34q16 -2 32 -5t30 -3q59 0 115 21q74 25 146.5 101.5t135.5 170.5q59 90 124 218t134 265h-418q-6 0 -6 4q0 10 15.5 25.5t27.5 15.5h404q66 127 137.5 246t150 216.5t164.5 154.5 q-78 8 -158.5 22.5t-142.5 26.5q-88 16 -173 28.5t-167 12.5q-70 0 -134 -12.5t-124 -40.5q-49 -27 -91 -89.5t-42 -127.5q0 -27 9.5 -51.5t29.5 -47.5q4 -2 -1 -7t-11 -3q-39 35 -57.5 79t-18.5 89q0 68 34 127t85 90q51 29 107.5 41t117.5 12q57 0 116.5 -8t123.5 -20 q92 -18 193.5 -40t193.5 -36q39 -6 79 -10t78 -6q64 30 123 30h4q8 0 35 -2t27 -18q0 -23 -32 -32t-68.5 -10t-53.5 -1h-20q-25 -16 -49.5 -40t-48.5 -52q-90 -106 -164 -241.5t-142 -279.5h500l16 29q119 207 262.5 399.5t280.5 389.5q6 10 21.5 9t9.5 -11 q-82 -106 -161 -235.5t-148.5 -261.5t-128.5 -251q-12 -20 -31 -68h139q4 0 4 -4q0 -8 -15 -24.5t-28 -16.5h-121q-27 -68 -60.5 -152.5t-62 -169.5t-44.5 -151q-12 -51 -13 -92q0 -59 27 -86q23 -23 57 -22q41 0 84 32q51 39 104.5 103.5t96.5 129t61 99.5q12 18 23 19 q6 0 6 -9q0 -8 -6 -20q-23 -45 -64 -110.5t-94 -130t-113 -107.5q-29 -20 -64.5 -33.5t-74.5 -13.5q-55 0 -102 32q-63 47 -64 160q2 127 55.5 262t120.5 260h-493q-63 -133 -128 -261t-136 -230q-70 -100 -161 -180t-206 -121q-63 -23 -151 -23q-35 0 -65.5 5.5t-53.5 17.5 q-25 12 -38 34.5t-13 45.5z" />
<glyph unicode="I" horiz-adv-x="698" d="M-225 -98q0 23 10 35q10 8 17.5 9t4.5 -9q-1 -5 -1 -9q0 -26 29 -48q34 -26 63 -36q31 -6 61 -6q63 0 115 19q72 25 145.5 101.5t134.5 170.5q66 100 131.5 232.5t136 275.5t150.5 270q72 113 150.5 202t173.5 138q63 33 127 33q-63 27 -149.5 45t-145.5 18 q-88 0 -177 -24.5t-167 -71.5q-86 -47 -163 -129t-124 -180t-47 -201q0 -43 13 -77.5t46 -57.5q33 -20 78 -20q39 0 72 12q4 2 12 2q10 0 10 -6q0 -12 -22 -21q-41 -20 -97 -20q-61 0 -112 26q-55 29 -76.5 84.5t-21.5 114.5q0 121 59 225.5t152.5 184.5t197.5 123 q90 39 184.5 55t184.5 16q88 0 187.5 -25.5t168.5 -78.5q8 -6 8 -12t-7 -8.5t-15 1.5q-20 6 -43 7q-57 0 -113.5 -38t-107 -97.5t-91 -126t-69.5 -123.5q-55 -104 -106.5 -228.5t-109 -250.5t-131 -240.5t-173 -202.5t-232.5 -135q-68 -23 -151 -23q-35 0 -65.5 5.5 t-53.5 17.5q-25 12 -38 35.5t-13 46.5z" />
<glyph unicode="J" horiz-adv-x="980" d="M-377 -352q0 92 46 182t120 133q8 4 12 4t4 -4q0 -6 -8 -14q-55 -57 -80.5 -133t-25.5 -144q0 -119 72.5 -180t173.5 -61q76 0 144.5 37.5t128.5 97t110.5 126t89.5 126.5q104 156 189 319.5t166 327.5t169 317.5t196 286.5q68 82 138.5 145.5t144.5 102.5l41 16l-47 6 q-72 10 -145.5 18.5t-147.5 8.5q-117 0 -227 -18q-186 -29 -347 -131.5t-266 -258.5q-57 -84 -93 -181t-36 -193q0 -27 2.5 -51.5t8.5 -49.5q23 -92 87 -141t144 -49q29 0 58.5 7t58.5 19q82 35 127 99q4 6 6 6q4 0 5 -8t-1 -15q-43 -80 -129 -122q-70 -37 -158 -37 q-86 0 -164.5 43t-113.5 127q-16 39 -23.5 78.5t-7.5 80.5q0 115 52.5 234t131.5 219q123 156 290 249t366 116q45 4 91 7t91 3q131 0 262 -19q47 -6 102.5 -13t100.5 -11q12 2 23.5 3t21.5 1q20 0 38.5 -3t37.5 -7q6 -2 6 -9q0 -6 -5 -11t-12 -3q-25 8 -59 8 q-63 0 -136 -37.5t-151 -126.5q-121 -137 -211 -295.5t-163.5 -326.5t-149.5 -334q-49 -104 -108.5 -218t-134 -222.5t-166 -195.5t-201 -138t-242.5 -51q-121 0 -209 63.5t-88 194.5z" />
<glyph unicode="K" horiz-adv-x="1572" d="M-326 -98q0 20 13 35q8 8 16 9t4 -9q-1 -5 -1 -9q0 -26 30 -50q35 -28 61 -34q29 -6 60 -6t60.5 5t53.5 14q76 27 149 102.5t136 169.5q66 100 131.5 232.5t135 275.5t149.5 270q72 113 151.5 202t171.5 138q63 33 127 33q-63 27 -150 45t-147 18q-178 0 -342 -96 q-82 -47 -155.5 -125t-121.5 -173t-56 -193v-13q0 -42 11 -77q13 -41 50 -64q29 -20 76 -20q37 0 69 12q6 2 15 2q12 0 12 -8q0 -10 -23 -19q-41 -20 -98 -20q-29 0 -58.5 6t-56.5 20q-51 27 -73.5 83.5t-22.5 115.5q0 121 59.5 225.5t152.5 184.5t198 123q90 39 184 55 t182 16q90 0 189.5 -25.5t169.5 -78.5q8 -6 8 -12t-6 -8.5t-14 1.5q-20 6 -44 7q-57 0 -113 -38t-106.5 -97.5t-91.5 -126t-71 -123.5q-55 -104 -106.5 -228.5t-109 -250.5t-131 -240.5t-172 -202.5t-233.5 -135q-63 -23 -152 -23q-35 0 -65 5.5t-53 17.5t-37.5 35.5 t-14.5 46.5zM639 455q66 104 160 211.5t203.5 209t223 189.5t216.5 156q92 59 206.5 110t229.5 51q68 0 133.5 -20.5t107.5 -68.5q35 -40 34 -103q0 -14 -1 -29q-2 -31 -15 -35t-11 13q1 12 1 24q0 53 -30 81q-37 34 -92 46.5t-100 12.5q-117 0 -233 -50.5t-204 -105.5 q-143 -88 -287.5 -203t-268.5 -233.5t-205 -216.5q66 -86 127 -175.5t127 -175.5q45 -59 107 -126.5t135 -114.5t149 -47q53 0 92 25.5t59 60.5q23 39 23 98q0 47 -12.5 95t-28.5 85q-20 55 -43 84q-10 12 -10 23q0 6 8 6q14 0 35 -17q94 -90 94 -231q0 -43 -11.5 -86 t-37.5 -82q-37 -57 -98.5 -92t-143.5 -35q-100 0 -179 43t-141.5 112.5t-113.5 147.5q-51 82 -104.5 181.5t-100.5 181.5z" />
<glyph unicode="L" horiz-adv-x="1777" d="M29 153.5q-2 6.5 6 12.5q10 8 41 8q33 0 71.5 -9t57.5 -13l229 -64q49 41 96.5 96.5t87.5 118.5q74 113 145 259.5t147.5 299t168.5 277.5q47 66 110.5 129t139.5 102q45 23 92 37t99 14q106 0 161.5 -55t55.5 -139q0 -20 -3 -43t-12 -45q-31 -100 -112.5 -171 t-179.5 -106q-12 -4 -15 -4q-10 0 -10 8q0 12 16 19q92 35 167 108.5t93 173.5q2 12 3.5 23.5t1.5 19.5q0 84 -58.5 124t-134.5 40q-78 0 -143 -37q-72 -41 -140.5 -136t-133 -219t-125 -254t-117 -244.5t-109.5 -190.5q-45 -66 -100.5 -123t-118.5 -102l129 -37 q143 -41 311 -79t320 -38q70 0 133 10t114 35q84 39 135.5 106.5t51.5 143.5q0 53 -27.5 104.5t-87.5 96.5q-33 25 -67.5 44t-63.5 29q-14 6 -14 13q0 4 7 6t9 2q70 -16 139 -64q106 -76 144 -176q20 -53 20 -110q0 -82 -41 -156t-112 -119q-103 -62 -236 -72 q-16 -2 -33.5 -2h-33.5q-111 0 -232 21.5t-238.5 56.5t-220.5 76l-172 70q-20 -10 -39.5 -18.5t-42.5 -16.5q-68 -23 -157 -23q-33 0 -64 5.5t-51 15.5q-23 12 -36 35.5t-13 46.5t12 37q8 8 16.5 9t4.5 -9q-1 -5 -1 -10q1 -27 29 -49q34 -26 62 -34q27 -8 65 -8q57 0 109 21 l47 20q-47 20 -96 37.5t-90 32.5q-31 9 -79 21q-30 7 -52 8q-14 0 -25 -3h-2q-6 0 -8 6.5z" />
<glyph unicode="M" horiz-adv-x="1986" d="M-88 -170q0 23 12 41q10 10 17.5 11t5.5 -9q-2 -7 -2 -14q-1 -23 21 -45q28 -28 57 -35q33 -8 69 -8q84 0 153.5 42t126 106.5t101.5 129.5q104 154 188 316.5t170.5 324.5t192.5 311q35 49 86 112t112.5 120t127.5 90q-27 0 -45.5 2t-61.5 4q-80 6 -184 6 q-57 0 -111.5 -1t-101.5 -5q-168 -10 -335 -63.5t-286 -161.5q-70 -63 -114.5 -143t-44.5 -158q0 -88 48 -126t113 -38q51 0 103 18q100 35 164 124q57 79 58 176q0 12 -1 24q-2 18 -8 36.5t-17 24.5q-8 6 -7 12.5t11 6.5q45 -4 62.5 -50t17.5 -87q0 -63 -32.5 -122 t-85 -103t-111.5 -66q-63 -25 -135 -25q-94 0 -165 53.5t-71 174.5q0 90 44 169.5t108 143.5q137 135 318.5 184t369.5 49q147 0 294.5 -15t293.5 -15h53q10 -2 19.5 -7.5t5.5 -15.5q0 -12 -15 -12q-29 0 -45 -8q-43 -14 -73.5 -52t-59.5 -92q-39 -70 -46 -163t-9 -171 q-2 -109 -7.5 -225.5t-35.5 -228.5q-23 -88 -67 -166t-114 -141q53 20 106.5 77.5t101.5 125t79 114.5q88 135 185.5 297t204 320.5t221.5 281.5q100 109 197 158t177 49q70 0 121 -34t72 -95q0 -2 1 -3t1 -3q0 -14 -14.5 -16.5t-18.5 4.5q-18 84 -106 84 q-57 0 -141.5 -45.5t-190.5 -147.5q-111 -106 -219.5 -251.5t-212 -299.5t-205.5 -289q-37 -49 -93.5 -118.5t-124 -138t-137.5 -112.5q-64 -40 -122 -40h-11q-12 0 -13 8t9 14q70 49 113 131t70 178q35 133 46 270.5t29 274.5q10 63 25.5 134t48.5 128q27 47 74 102.5 t104 80.5q-7 2 -14 2q-30 0 -65 -27q-44 -33 -87 -85t-76.5 -101t-48.5 -72q-98 -156 -179 -326t-165 -335.5t-194 -313.5q-59 -80 -135 -152.5t-162 -113.5q-51 -27 -105.5 -37t-107.5 -10q-23 0 -64 5t-73.5 25.5t-32.5 61.5zM1573 90q2 96 33.5 198.5t82 204t103.5 193.5 q121 207 243 366.5t197 268.5q6 10 22.5 9t8.5 -11q-82 -106 -165 -261t-171 -333q-14 -31 -44 -99.5t-63.5 -156.5t-64.5 -175t-47 -155q-6 -27 -10 -50t-4 -46q0 -49 21.5 -79t66.5 -30q47 0 100 44.5t105 107.5q45 53 82.5 112.5t62.5 106.5q10 12 14 12q6 0 6 -10 q0 -12 -8 -28q-25 -47 -65.5 -110t-91.5 -120q-57 -63 -121 -108t-123 -45q-78 0 -124 49t-46 145z" />
<glyph unicode="N" horiz-adv-x="1718" d="M41 -170q0 27 14 41q6 10 15.5 11t5.5 -9q-2 -7 -2 -13q0 -24 22 -46q28 -28 58 -35q33 -8 69 -8q84 0 152.5 42t125 106.5t101.5 129.5q104 154 189.5 316.5t170.5 324.5t191 311q35 49 86 112t112.5 120t127.5 90q-53 4 -141.5 7t-182.5 3h-81t-79 -4 q-168 -10 -334.5 -63.5t-285.5 -161.5q-70 -63 -115 -143t-45 -158q0 -88 48 -126t114 -38q51 0 102 18q100 35 166 124q58 78 58 174q0 13 -1 26q-2 18 -9 36.5t-17 24.5q-8 6 -6 12.5t10 6.5q45 -4 61.5 -49t16.5 -86q0 -66 -32 -124.5t-83 -102.5t-113 -66 q-63 -25 -135 -25q-94 0 -164.5 53.5t-70.5 174.5q0 90 44 169.5t107 143.5q137 135 318.5 184t369.5 49q145 0 290 -10t288 -20q23 4 41 0q8 -2 18.5 -5.5t10.5 -13.5q0 -14 -24 -21t-52 -7h-4q-68 -23 -92.5 -107t-24.5 -190q0 -68 7 -137.5t18 -133.5q18 -106 52 -221 t34 -242q0 -86 -24 -155.5t-71 -136.5q41 25 74 84t58.5 126.5t41.5 114.5q35 100 76 225t89 258.5t103.5 260.5t116.5 233q84 145 183.5 211t185.5 66q111 0 170 -93q4 -4 4 -12q0 -12 -11 -15t-15 3q-35 63 -101 63q-57 0 -136 -59t-169 -193q-63 -94 -123.5 -211.5 t-117 -243.5t-105.5 -247t-92 -223q-20 -49 -53 -121t-75 -143.5t-91 -121.5t-105 -59h-2q-8 0 -11 6.5t3 14.5q53 55 72.5 136t19.5 173q0 84 -19.5 173t-42 180t-34.5 180q-4 37 -8 77.5t-4 81.5q0 78 16 155t57 142.5t117 106.5h-4q-34 0 -74 -34q-43 -36 -83 -86 t-71.5 -96t-45.5 -69q-98 -156 -179.5 -326t-165.5 -335.5t-194 -313.5q-57 -80 -134 -151.5t-163 -114.5q-100 -47 -217 -47q-23 0 -63 6t-71.5 25.5t-31.5 60.5z" />
<glyph unicode="O" horiz-adv-x="1445" d="M27 319q0 121 34 242q41 141 119 274.5t184.5 248t234.5 200.5t269 131q135 41 252 41q37 0 71 -4t64 -12q78 -23 125 -71t47 -120q0 -20 -6 -45q59 -59 86 -143t27 -180q0 -63 -11.5 -129t-31.5 -131q-47 -150 -140.5 -287t-220 -245.5t-278 -172t-317.5 -63.5 q-160 0 -265.5 51t-163 136t-73.5 185q-6 47 -6 94zM166 297q0 -31 2 -62.5t8 -60.5q14 -78 56 -145.5t117 -107.5t188 -40l6 2q156 2 293 74t248.5 188.5t191.5 257t121 277.5q35 117 35 233q0 59 -11.5 116.5t-36.5 105.5q-20 -25 -43 -33q-14 -6 -20 -6q-8 0 -7 6t9 12 q25 20 37 60q-39 53 -100.5 83.5t-151.5 30.5q-88 0 -189.5 -41t-197.5 -119q-59 -49 -105.5 -118.5t-71 -140t-24.5 -124.5q0 -61 33 -79q16 -8 16 -19q0 -6 -8 -8t-18 2q-37 14 -54.5 50t-17.5 85q0 84 47 188.5t127 174.5q104 90 227 136t238 46q84 0 147.5 -20.5 t112.5 -53.5q-2 57 -42 94t-99 56q-59 16 -127 16q-45 0 -98.5 -8t-112.5 -27q-80 -25 -164 -83t-164 -139t-149.5 -173t-118.5 -186q-53 -98 -91 -232.5t-38 -267.5z" />
<glyph unicode="P" horiz-adv-x="1570" d="M-10 -90q0 27 12 41q8 10 16.5 10t4.5 -10q-1 -5 -1 -11q0 -26 24 -48q28 -28 56 -35q20 -4 39 -7.5t35 -3.5q82 0 149.5 42t122 106.5t97.5 130.5q61 94 120.5 215t123 249t134 248.5t154.5 216t185 146.5q66 35 124 35q33 0 60 -8q8 -2 5 -10.5t-11 -6.5q-8 4 -17.5 4 h-19.5q-106 0 -223 -137q-104 -123 -174 -263t-136 -286h2q20 -10 46 -18q90 -29 180 -29q98 0 196.5 33t179 94.5t130 148.5t49.5 195q0 96 -47 184.5t-144 147.5q-100 66 -238.5 95.5t-287.5 29.5q-172 0 -335 -54.5t-265 -152.5q-53 -51 -95 -136t-42 -169q0 -18 2 -36.5 t8 -37.5q18 -57 70.5 -87.5t115.5 -30.5q27 0 54.5 6t54.5 14h4q6 0 6 -6q0 -8 -10 -12q-57 -18 -123 -19q-66 0 -126 23.5t-98 74t-38 132.5q0 63 17.5 118.5t47.5 102.5q68 102 192 168.5t274.5 100.5t297.5 34q152 0 293 -20.5t246 -67.5q152 -63 218.5 -165t66.5 -212 q0 -127 -59.5 -226.5t-158 -167t-214 -102.5t-226.5 -35q-55 0 -108.5 9.5t-104.5 23.5q-10 4 -19.5 8.5t-19.5 8.5q-2 0 -4 1t-4 1q-45 -98 -93 -193.5t-110 -183.5q-55 -78 -124.5 -146.5t-153.5 -111.5q-47 -23 -97.5 -36t-103.5 -13q-20 0 -64.5 6t-81 26.5t-36.5 63.5z " />
<glyph unicode="Q" horiz-adv-x="1449" d="M25 319q0 121 34 242q41 141 119 275.5t185.5 249t235.5 199.5t267 130q66 23 129.5 32t120.5 9q37 0 72 -3t65 -13q80 -23 127 -71t47 -120q0 -20 -6 -45q59 -59 85 -142t26 -177q0 -63 -11.5 -131t-31.5 -133q-49 -152 -144.5 -293.5t-225.5 -250t-285 -167.5 q78 -78 162.5 -171t175 -178t180.5 -139.5t176 -54.5q72 0 119 43t47 133q0 41 -15.5 92.5t-42 99.5t-61.5 75q-6 6 -6 8q0 6 7 7t15 -5q70 -47 102.5 -126t32.5 -147q0 -88 -39.5 -144t-103 -83t-137.5 -27q-113 0 -210 58.5t-181 149.5t-162 191.5t-152 184.5 q-100 -24 -203 -24h-8q-160 0 -265 52t-161.5 137t-72.5 183q-6 47 -6 94zM162 297q0 -31 2 -61.5t8 -59.5q14 -78 56 -144.5t118 -107.5t189 -41h8q43 0 85 7.5t85 19.5l-35 33q-72 70 -144.5 113.5t-136.5 43.5q-27 0 -55 -12h-4q-8 0 -9 7t7 14q45 28 96 28h4 q29 0 57.5 -7t59.5 -19q59 -23 130 -72t116 -96q145 63 265 182t205 265.5t128 289.5q16 55 24.5 113.5t8.5 113.5q0 63 -11.5 120.5t-36.5 105.5q-18 -23 -41 -31q-14 -6 -20 -6q-8 0 -7 6t9 12q25 20 37 60q-39 51 -99.5 82.5t-150.5 31.5t-191.5 -41t-197.5 -119 q-59 -49 -105.5 -118.5t-71 -141t-24.5 -125.5q0 -59 31 -77q18 -8 18 -19q0 -6 -8 -8t-18 2q-37 14 -54.5 50t-17.5 85q0 84 47 188.5t127 174.5q102 90 226 136t239 46q82 0 146.5 -20.5t113.5 -53.5q-4 57 -43 95t-98 55q-55 16 -119 16q-49 0 -105.5 -9t-115.5 -30 q-80 -25 -164 -83t-164 -138t-149.5 -172t-118.5 -184q-53 -100 -92 -234.5t-39 -265.5z" />
<glyph unicode="R" horiz-adv-x="1906" d="M-10 -90q0 27 12 41q8 10 16.5 10t4.5 -10q-1 -5 -1 -11q0 -26 24 -48q28 -28 56 -35q20 -4 39 -7.5t35 -3.5q82 0 149.5 42t122 106.5t97.5 130.5q61 94 120.5 215t123 249t134 248.5t154.5 216t185 146.5q66 35 124 35q33 0 60 -8q8 -2 5 -10.5t-11 -6.5q-8 4 -17.5 4 h-19.5q-106 0 -223 -137q-90 -106 -156 -226t-121 -246t-113.5 -249t-138.5 -235q-55 -78 -124.5 -146.5t-153.5 -111.5q-47 -23 -97.5 -36t-103.5 -13q-20 0 -64.5 5t-81 25.5t-36.5 65.5zM152 911q0 66 18 120t49 99q53 80 141.5 137.5t199 94.5t229 54.5t233.5 17.5 q162 0 312.5 -24t248.5 -67q137 -57 196.5 -149t59.5 -193q0 -115 -53 -202.5t-140 -148t-190.5 -92.5t-204.5 -32q-43 0 -85 5.5t-81 15.5q29 -39 72 -101.5t89 -131t86 -128t65 -90.5q45 -59 106.5 -126.5t134 -115t150.5 -47.5q53 0 92 27t59 62q23 39 23 98 q0 47 -12.5 95t-28.5 85q-27 59 -45 84q-10 16 -10 21q0 8 8 8q12 0 35 -19q45 -45 70.5 -106.5t25.5 -126.5q0 -88 -49 -166q-35 -55 -98.5 -90t-145.5 -35q-98 0 -177 43t-141.5 112.5t-113.5 147.5q-20 31 -49 87t-59.5 124t-60.5 132.5t-52 109.5q-25 53 -40 67.5 t-5 24.5h1t1 2q8 8 20 4q10 -4 19.5 -8t19.5 -8q74 -25 158 -25q88 0 176 29.5t162 84t118 133.5t44 177q0 88 -43 168t-127 133q-94 59 -241.5 91t-305.5 32q-121 0 -243 -23.5t-226.5 -69.5t-175.5 -116q-53 -53 -96.5 -137t-43.5 -168q0 -39 13 -76q18 -57 70.5 -87 t117.5 -30q51 0 107 19q2 0 3 1t3 1q6 0 6 -4q0 -10 -12 -15q-55 -20 -125 -20q-66 0 -126.5 24.5t-98 75.5t-37.5 131z" />
<glyph unicode="S" horiz-adv-x="1341" d="M147 176q0 82 30 168t89 170q61 84 151.5 153.5t197 111.5t210.5 42t154.5 -42t50.5 -107q0 -39 -18.5 -86t-57.5 -94q-53 -68 -131 -120.5t-165 -82t-173 -29.5q-14 0 -26.5 1t-26.5 3q-8 2 -7 11.5t9 7.5q13 -1 26 -1q72 0 154 28q96 32 181.5 89.5t134.5 124.5 q57 80 57 148q0 49 -34.5 82.5t-110.5 33.5q-100 0 -194.5 -41.5t-175.5 -109.5t-138 -148q-55 -76 -84 -159.5t-29 -161.5q0 -90 41 -167t125 -123t215 -46q145 0 264 50t205 137t132 199t46 237q0 53 -3 103t-19 97q-23 72 -57.5 150t-62.5 160t-28 165q0 76 31 152 q41 92 120 148.5t185 56.5q39 0 79 -11.5t68.5 -38t28.5 -73.5q0 -33 -20.5 -47t-42.5 -14q-12 0 -17 2l7 41q0 51 -30 76.5t-77 25.5q-57 0 -112.5 -32t-81.5 -81q-41 -76 -41 -155q0 -70 23.5 -136.5t57 -129t62.5 -119.5q82 -156 82 -326q0 -147 -61.5 -271t-170 -215.5 t-251 -141.5t-306.5 -50q-154 0 -257 52.5t-155.5 139.5t-52.5 193z" />
<glyph unicode="T" horiz-adv-x="1200" d="M10 879q0 45 11.5 91t31.5 89q35 76 96.5 133t122.5 90q102 55 206 77.5t210 22.5q88 0 178 -12t183 -35q104 -25 215 -55q55 -14 132 -31.5t146 -17.5q41 0 81 11t63 46q8 12 8 31q0 10 -1 19.5t1 11.5q4 4 8 4q8 0 14 -13q6 -8 6 -30q0 -14 -2 -21q-12 -43 -54 -65.5 t-83 -28.5q-16 -2 -35.5 -3t-40.5 -1h-34.5t-36.5 2q-68 -31 -142 -117q-90 -106 -155.5 -226t-120.5 -246t-113.5 -249t-138.5 -235q-72 -100 -162 -180t-205 -121q-63 -23 -151 -23q-35 0 -65.5 5.5t-53.5 17.5q-25 12 -38 34.5t-13 45.5t12 37q6 8 15.5 9t5.5 -9 q-1 -5 -1 -9q0 -26 30 -48q34 -26 63 -36q31 -6 61 -6q63 0 113 19q74 25 146.5 100.5t135.5 171.5q61 94 122 214t123.5 248t134 247.5t154.5 215t183 146.5q-100 12 -205.5 33.5t-177.5 34.5q-45 8 -102 11t-121 3q-113 0 -225.5 -13.5t-179.5 -43.5q-119 -53 -205 -146.5 t-86 -232.5q0 -57 19.5 -97t49.5 -61q35 -20 72 -20q45 0 92 27.5t82 80.5q16 27 31.5 78t15.5 104q0 29 -5 55.5t-19 47.5l-4 8q0 6 6 6q8 0 14 -10q10 -14 21.5 -44t15.5 -54q2 -12 3 -24.5t1 -24.5q0 -41 -10 -83t-33 -77q-33 -55 -88 -83t-115 -28q-47 0 -90 19 q-63 31 -93 88t-30 125z" />
<glyph unicode="U" d="M100 926q0 145 125 299q57 70 148.5 128t196 95t198.5 37q72 0 131 -23.5t98 -81.5q37 -55 37 -135q0 -76 -27.5 -163t-67.5 -169t-79 -147q-47 -80 -99 -170t-96 -179t-70 -171q-23 -71 -23 -132q0 -9 1 -18q6 -88 45 -121.5t93 -33.5q53 0 111.5 23.5t109.5 53.5 q80 49 172 143.5t160 196.5q102 154 199.5 310.5t199.5 312.5q90 137 191.5 249.5t216.5 170.5q31 16 64.5 25.5t64.5 9.5q45 0 80.5 -25t50.5 -86q2 -6 2 -18q0 -14 -6.5 -18.5t-10.5 5.5q-12 55 -55 78t-90 23q-20 0 -37.5 -4.5t-34.5 -10.5q-76 -33 -158.5 -127 t-164.5 -228t-154 -286.5t-122 -302t-68 -274.5q-2 -14 -5.5 -40t-3.5 -54q0 -39 13.5 -72t54.5 -33q43 0 90 40t89 97.5t77 114.5t53 94q12 25 29 25q14 0 2 -23q-25 -45 -63.5 -113.5t-89 -138t-109 -116.5t-121.5 -47q-86 0 -114.5 55t-28.5 125q0 113 40.5 233.5 t92.5 241.5q-66 -111 -142.5 -219.5t-160.5 -197.5t-177 -142q-72 -41 -138 -60.5t-124 -19.5q-76 0 -129 31q-51 33 -72.5 85t-21.5 109q0 35 6 68q18 115 66.5 217t111 198.5t123.5 192.5q33 51 76 131t75 168t32 164q0 102 -54.5 142t-128.5 40q-90 0 -183 -37t-173 -96 t-133 -129t-86 -144.5t-33 -140.5q0 -63 36 -111t116 -69q18 -4 38.5 -6t38.5 -2q61 0 101 14q2 2 6 2q6 0 8 -8t-6 -12q-41 -20 -129 -21q-39 0 -76 7q-106 16 -155.5 77.5t-49.5 143.5z" />
<glyph unicode="V" horiz-adv-x="1243" d="M55 774q0 121 59.5 225.5t152.5 184.5t198 123q90 39 184 55t185 16q88 0 187 -25.5t169 -78.5q16 -12 4 -21q-2 -6 -12 -6q-63 0 -102.5 -43t-75.5 -108q-35 -63 -47.5 -152.5t-13.5 -189t-3 -194.5t-14 -171q-18 -106 -63.5 -206.5t-137.5 -182.5q51 18 110.5 85 t122 161t121 195.5t107.5 189.5t80 141q72 121 148.5 235.5t158.5 209.5q98 111 193.5 159.5t172.5 48.5q70 0 119 -34.5t70 -96.5q2 -4 2 -12q0 -16 -10 -16q-8 0 -15 20q-23 80 -102 80q-57 0 -139 -46t-189 -153q-94 -94 -184 -219t-176 -258q-61 -94 -123 -187 t-127 -184q-80 -113 -162 -206q-83 -93 -159 -146q-71 -49 -136 -49h-10q-10 0 -12 8t6 15q96 66 144 191.5t71 266.5q16 98 23.5 197.5t21.5 198.5q8 53 18.5 101t24.5 91t45 94.5t71 95.5t81 66q35 20 61 27q-57 29 -145 51t-172 22q-94 0 -186.5 -25.5t-176.5 -70.5 q-86 -47 -161.5 -126t-125 -173t-57.5 -192v-12q1 -42 13 -79q14 -42 48 -65q16 -10 40 -15t49 -5q45 0 83 14q6 2 15 2q10 0 10 -6q0 -12 -22 -21q-41 -20 -101 -20q-61 0 -110 24q-55 29 -77 85.5t-22 115.5z" />
<glyph unicode="W" horiz-adv-x="1802" d="M55 774q0 121 59.5 225.5t152.5 184.5t198 123q90 39 184 55t185 16q88 0 187 -25.5t169 -78.5q8 -6 8 -12v-2q0 -12 -14 -13q-68 0 -112 -47t-69.5 -116.5t-37 -142.5t-13.5 -122q-2 -147 -10 -286.5t-44 -262.5t-124 -223q-2 -2 -2 -6q0 -14 21 0q61 53 124.5 139 t122 179.5t103.5 166.5q86 141 167 277.5t150.5 239t120.5 139.5q86 60 134 78q39 14 76 15q8 0 17 -1q14 0 15 -12q0 -14 -15 -15q-63 0 -102 -43t-76 -108q-33 -59 -43 -142.5t-12 -180.5t-5 -200.5t-21.5 -206t-64.5 -195.5t-132 -171q70 25 146.5 121t159.5 237.5 t172 303t182 320.5t188 288q90 121 191 165t177 44q98 0 152 -70q4 -4 4 -10t-5 -8t-12 4q-12 10 -28.5 14t-36.5 4q-27 0 -57 -6q-106 -23 -205 -98.5t-188 -187t-172 -244t-162.5 -269.5t-156.5 -262t-155 -223q-78 -97 -158 -153q-74 -52 -152 -52h-11q-10 0 -13.5 7 t7.5 16q84 57 131 160.5t69.5 228.5t33.5 247.5t26 217.5q10 76 37.5 168t80 168.5t134.5 107.5q-49 -10 -105.5 -63.5t-117 -133t-120 -173t-112.5 -185.5t-95 -167t-71 -120q-66 -106 -134.5 -202.5t-135.5 -161.5l-33 -27q-51 -44 -103 -68q-44 -21 -89 -21q-7 0 -15 1 q-10 0 -12 8t6 15q29 23 56.5 47t43.5 53l23 39q45 80 67.5 177t33.5 203.5t19.5 210t26.5 195.5q10 53 25.5 101.5t38.5 89.5q23 39 59.5 86t81.5 78q29 20 52.5 30.5t37.5 14.5q-57 31 -146 54t-177 23q-94 0 -187.5 -25.5t-175.5 -70.5q-86 -47 -161.5 -126t-125 -173 t-57.5 -192v-12q1 -42 13 -79q14 -42 48 -65q16 -10 40 -15t49 -5q45 0 83 14q6 2 15 2q10 0 10 -6q0 -12 -22 -21q-41 -20 -101 -20q-61 0 -110 24q-55 29 -77 85.5t-22 115.5z" />
<glyph unicode="X" horiz-adv-x="1458" d="M27 72q0 84 54 169t136 119q10 4 15.5 1t-9.5 -13q-66 -51 -98.5 -122.5t-32.5 -131.5q0 -90 53.5 -153.5t141.5 -63.5q141 0 296.5 100.5t313.5 284.5q72 84 133.5 167t118.5 165l-64 205q-20 66 -36.5 140.5t-16.5 150.5q0 80 26.5 151.5t96.5 120.5q-55 -2 -106.5 -4 t-92.5 -6q-166 -10 -334.5 -71.5t-293.5 -172.5q-74 -68 -123 -151t-49 -162q0 -82 45 -117t106 -35q53 0 105 19q98 35 167.5 121.5t69.5 191.5q0 20 -5 42.5t-17 31.5q-8 4 -6 12t12 6q41 -4 56.5 -45t15.5 -80q0 -68 -35 -129t-90.5 -106t-116.5 -68q-35 -12 -71 -19.5 t-70 -7.5q-88 0 -155 49.5t-67 157.5q0 94 49.5 180t118.5 154q143 137 326.5 186.5t372.5 51.5h125.5t126.5 -5q39 0 38 -10q0 -4 -14 -9t-37 -5h-12q-2 -2 -3 -2h-1q-41 -20 -58.5 -66.5t-17.5 -107.5q0 -88 27.5 -193.5t60.5 -201.5l29 -80q102 152 204.5 293t239.5 278 q72 72 131.5 110t135.5 68q41 18 79.5 26.5t73.5 8.5q37 0 74 -10q4 -2 4 -6t-5 -9.5t-11 -3.5q-25 8 -58 9q-57 0 -131 -32t-158 -104q-174 -150 -304 -330t-253 -366q29 -84 58.5 -184.5t54.5 -195.5t35 -165q4 -16 4 -34.5v-40.5q0 -45 -6 -94.5t-23 -96.5q29 37 73 83 t85 67q6 4 11 4h7q18 0 19 -17q0 -18 -15 -22q-33 -2 -69.5 -33t-72.5 -74t-67.5 -84.5t-54.5 -70.5q-8 -10 -18 -11q-8 0 -10 8.5t2 14.5q25 39 36 89t11 108q0 66 -13 139q-8 57 -28.5 137t-47 172t-53.5 180q-76 -111 -171 -230.5t-210 -223.5q-114 -106 -249 -168 q-127 -59 -272 -58h-19q-100 4 -161.5 69.5t-61.5 160.5z" />
<glyph unicode="Y" horiz-adv-x="1523" d="M-53 860q0 59 18.5 118.5t46.5 111.5q68 123 183.5 209.5t254 134t271.5 47.5q84 0 152.5 -24.5t107.5 -76.5q31 -39 43 -81t12 -87q0 -76 -28.5 -156.5t-69.5 -155.5t-78 -134q-61 -102 -127.5 -220t-113 -229.5t-46.5 -201.5q0 -98 40 -136t100 -38q96 0 195.5 67.5 t195.5 177t182 238.5t155.5 254t112.5 221q41 92 94.5 183.5t118 159t138.5 83.5q6 2 12 2h10q29 0 44.5 -14.5t15.5 -30.5t-14.5 -31.5t-43.5 -15.5q-68 -2 -121 -44t-94 -105.5t-69.5 -132t-49.5 -124.5q-63 -178 -115.5 -357t-118 -358.5t-171.5 -357.5 q-113 -186 -260 -304t-352 -118q-37 0 -77 12.5t-66.5 37t-26.5 59.5q0 25 10 43q4 6 11 13t11 7q8 0 6 -16q-1 -5 -1 -11q0 -45 47 -74q53 -32 116 -32q74 0 156 44t162 147q74 96 141.5 210.5t125.5 234.5t105.5 229.5t81.5 195.5l52 127q-72 -119 -155 -233.5 t-175 -208.5t-194.5 -150.5t-211.5 -56.5q-111 0 -167 62.5t-56 162.5q0 31 6 68q18 115 66.5 217t111 198.5t123.5 192.5q33 53 76 126t75 154t32 154q0 35 -9.5 68t-31.5 59q-31 39 -84.5 55.5t-122.5 16.5q-119 0 -242 -52.5t-227.5 -139.5t-167.5 -191 q-33 -55 -53.5 -114.5t-20.5 -119.5q0 -14 3 -30.5t5 -32.5q14 -57 55.5 -86t92.5 -29q59 0 116 39q59 41 94.5 106.5t35.5 141.5q0 45 -17 94q-4 16 -14 31.5t-21 17.5q-10 4 -9 10.5t20 6.5q39 0 62.5 -44t29.5 -79q2 -10 3 -20.5t1 -20.5q0 -74 -37 -143.5t-96 -110.5 q-82 -59 -170 -59q-66 0 -120 35.5t-77 109.5q-14 43 -14 94z" />
<glyph unicode="Z" horiz-adv-x="1662" d="M143 59q0 27 27 47q16 16 43 21.5t57 5.5q31 0 61.5 -3t53.5 -7q90 63 197.5 149t220 186.5t215.5 203.5q127 127 257 250.5t257 224.5q43 35 76.5 51t68.5 24q-98 31 -171.5 46.5t-149.5 23.5t-182 10q-18 1 -37 1l-217 -21q-127 -24 -240 -83t-197 -163 q-29 -35 -55.5 -91t-26.5 -110q0 -66 50 -98q18 -12 43.5 -17t52.5 -5q57 0 118.5 18t100.5 39q49 29 104.5 79t94.5 112.5t39 123.5q0 27 -9 49v9q0 10 5.5 12t11.5 -10q18 -37 18 -76q0 -66 -42 -131.5t-100.5 -118.5t-111.5 -82q-45 -23 -103.5 -38t-115.5 -15 q-33 0 -63.5 5t-55.5 19q-51 27 -73.5 75t-22.5 102q0 49 15.5 98t41.5 86q78 113 186.5 177.5t232.5 92t251 27.5h57.5t57.5 -4q92 -8 162.5 -19.5t133 -28t130 -37t153.5 -44.5q27 -8 27 -17q0 -10 -31 -10h-13t-13 2q-33 -14 -86.5 -43t-100.5 -70q-137 -117 -250.5 -252 t-216.5 -249q-119 -131 -275.5 -253t-344.5 -235q78 -29 173 -65.5t199.5 -71.5t207 -57.5t196.5 -22.5q98 0 174 31q88 37 142.5 107.5t54.5 152.5q0 49 -23.5 98t-73.5 95q-31 29 -63.5 48t-59.5 33q-12 10 -12 13q0 6 7.5 8t9.5 2q66 -23 129 -76q72 -59 104.5 -133 t32.5 -147q0 -94 -52.5 -174t-150.5 -121q-45 -18 -95 -26.5t-102 -8.5q-109 0 -221 30.5t-221.5 75.5t-209 93.5t-181.5 85.5q-33 -27 -83 -46.5t-99 -19.5q-51 0 -75 18.5t-24 38.5z" />
<glyph unicode="[" horiz-adv-x="434" d="M162 -227v1724h272v-53h-188v-1620h188v-51h-272z" />
<glyph unicode="\" horiz-adv-x="870" d="M150 1380h77l586 -1452h-78z" />
<glyph unicode="]" horiz-adv-x="606" d="M322 -176h192v1620h-192v53h274v-1724h-274v51z" />
<glyph unicode="^" horiz-adv-x="643" d="M115 582.5q-6 7.5 0 11.5l258 260q23 23 41 23q16 0 26 -15l170 -266q2 -2 2 -6q0 -8 -9 -13t-15 1l-189 237l-262 -235q-4 -4 -8 -5q-8 0 -14 7.5z" />
<glyph unicode="_" horiz-adv-x="876" d="M0 -61h877v-50h-877v50z" />
<glyph unicode="`" horiz-adv-x="458" d="M158 963q0 16 14 31.5t31 15.5q8 0 16 -6q51 -39 113.5 -91.5t107.5 -83.5q8 -6 9 -14q0 -8 -7.5 -14t-13.5 -4l-258 145q-12 6 -12 21z" />
<glyph unicode="a" horiz-adv-x="731" d="M109 137q0 84 36.5 170t97 163t134.5 132q43 31 105.5 50.5t125.5 19.5q72 0 126 -21.5t75 -60.5q-43 -55 -88 -136t-78 -147q-23 -45 -49.5 -111.5t-26.5 -113.5q0 -20 10.5 -41t38.5 -21q33 0 64 25t51 49q47 51 86 112.5t78 131.5q6 8 12 8q8 0 8 -12q0 -10 -4 -17 q-35 -68 -77.5 -135t-102.5 -127q-29 -29 -67.5 -49t-75.5 -20q-66 0 -90.5 42t-24.5 93q0 10 3 35.5t7 48.5q-29 -39 -68.5 -86t-80.5 -80q-66 -53 -119 -53q-51 0 -78.5 43t-27.5 108zM211 133q0 -33 11 -58.5t38 -25.5q39 0 85 42t90 102.5t80 117t56 86.5q43 68 80 113 t115 70q4 0 7 1t7 1q-18 29 -61 43t-84 14q-63 0 -122.5 -35t-109.5 -88q-47 -55 -92 -120.5t-72.5 -133t-27.5 -129.5z" />
<glyph unicode="b" horiz-adv-x="688" d="M96 106q0 41 13 80q12 45 42.5 123t68.5 169t77 175q16 37 37.5 83t43 91t36.5 74q37 72 88 170t117.5 195.5t148.5 167t178 84.5q8 2 21 2q47 0 70.5 -29t23.5 -70q0 -37 -14 -67q-33 -74 -104 -156t-151.5 -158.5t-144.5 -138.5q-53 -51 -94 -89t-76 -75t-76 -82 q-23 -51 -44 -103t-23 -60q57 78 125.5 136t126.5 58q68 0 93.5 -35t25.5 -88q0 -49 -16.5 -104.5t-38 -105.5t-42.5 -85q-20 -33 -45.5 -68.5t-56.5 -68.5q8 -27 26.5 -39t42.5 -12q29 0 60 13t53 32q47 39 86 92t72 111q2 4 3 4h1q4 0 4 -19v-15t-4 -13 q-35 -61 -72 -109.5t-90 -85.5q-55 -39 -119 -39q-29 0 -53 12.5t-35 40.5q-57 -55 -123.5 -93t-140.5 -38q-66 0 -93.5 39t-27.5 94zM164 74q0 -33 17.5 -47.5t41.5 -14.5q41 0 82 29q45 31 86 84t73 106.5t48 83.5q12 23 33.5 71t40 103.5t18.5 96.5q0 29 -11 46t-40 17 q-27 0 -62.5 -29.5t-70.5 -74.5q-43 -53 -94.5 -128t-93.5 -155t-62 -145q-6 -25 -6 -43zM434 727q47 53 88 95t101 104q57 57 131.5 135t141.5 157.5t97 141.5q25 49 25 80q0 50 -51 50q-9 0 -19 -1q-68 -8 -130 -67.5t-118.5 -148.5t-105.5 -189.5t-89 -194.5t-71 -162z " />
<glyph unicode="c" horiz-adv-x="542" d="M137 195q0 96 41 194q31 74 80 138.5t117.5 105.5t150.5 41q61 0 95 -29t34 -80q0 -16 -3 -34.5t-13 -41.5q-14 -37 -36.5 -65.5t-51.5 -44.5q-14 -8 -33 -8q-14 0 -26.5 8t-12.5 27q0 33 36 70.5t93 39.5q10 27 10 47q0 33 -20 56.5t-63 23.5q-53 0 -104.5 -40 t-91.5 -104.5t-65 -136.5q-12 -33 -22 -83t-10 -99q0 -63 27.5 -113.5t105.5 -50.5q55 0 104 32t89 79t72 97t52 89q2 8 10 9q10 0 11 -17q0 -8 -6 -18q-43 -76 -92.5 -146.5t-117 -117t-163.5 -46.5q-106 0 -151.5 64.5t-45.5 153.5z" />
<glyph unicode="d" horiz-adv-x="788" d="M90 137q0 45 12 90q31 115 94.5 210t159.5 165q41 31 104.5 50.5t127.5 19.5q25 0 49.5 -4t44.5 -11q16 37 37.5 82t43 89t36.5 73q41 84 102.5 201t142.5 217q63 80 146.5 140.5t161.5 60.5q47 0 70.5 -29t23.5 -70q0 -37 -14 -67q-33 -74 -104 -156t-151.5 -158.5 t-144.5 -138.5q-53 -51 -94 -89t-76 -75t-76 -82q-45 -102 -82.5 -204.5t-61.5 -190.5t-24 -147q0 -84 52 -90q35 0 65.5 22.5t52.5 48.5q47 51 86 112.5t78 131.5q6 8 13 8q8 0 8 -12q0 -10 -4 -17q-37 -68 -79 -135t-102 -127q-27 -27 -61.5 -48t-77.5 -21 q-70 0 -100.5 48t-30.5 120t25 141l20 59l-76 -116q-29 -45 -74.5 -101.5t-97.5 -97.5q-66 -53 -118 -53q-51 0 -79 43t-28 108zM197 125q0 -31 9 -53.5t34 -22.5q37 0 89 50.5t108.5 125t103.5 146.5q14 20 37.5 67t50 101.5t45.5 95.5q-12 4 -23.5 4h-23.5q-63 0 -126 -34 t-112 -89q-70 -76 -117 -163t-65 -152q-10 -37 -10 -76zM819 727q47 53 88 95t101 104q57 57 131.5 135t141.5 157.5t97 141.5q25 49 25 80q0 51 -51 51q-63 0 -132 -58.5t-135 -158.5q-55 -86 -104 -187.5t-90 -195.5t-72 -164z" />
<glyph unicode="e" horiz-adv-x="536" d="M135 184q0 49 12.5 99.5t30.5 93.5q29 68 76 136.5t113.5 115.5t146.5 47q53 0 84 -26.5t31 -82.5q0 -63 -39 -127.5t-98.5 -107.5t-122.5 -43q-57 0 -101 41q-12 -33 -20 -73t-8 -81q0 -63 25.5 -110.5t92.5 -47.5q49 0 95.5 26t83.5 62q41 43 77.5 92.5t71.5 114.5 q4 6 6 6q8 0 8 -18q0 -12 -8 -27q-31 -55 -71.5 -111.5t-83.5 -96.5q-39 -37 -84.5 -59.5t-104.5 -22.5q-119 0 -168 61q-25 27 -35 63.5t-10 75.5zM279 360q14 -20 33.5 -29t39.5 -9q49 0 102.5 37.5t86.5 89.5q14 23 25.5 59.5t11.5 69.5q0 29 -11.5 50t-44.5 21 q-37 0 -87 -45t-95 -117q-14 -25 -31.5 -57.5t-29.5 -69.5z" />
<glyph unicode="f" horiz-adv-x="514" d="M-66 -506q0 90 19.5 195.5t46.5 199.5q29 96 64.5 203t80.5 211q43 102 110 241.5t149.5 288t178 282.5t199 232.5t209.5 131.5q12 2 25.5 4t25.5 2q31 0 54 -15q28 -17 28 -62q0 -36 -18 -83q-33 -82 -107.5 -176t-175.5 -193q-123 -119 -235.5 -210t-184.5 -142 q-59 -121 -108 -226.5t-80 -179t-41 -100.5q-23 -70 -54.5 -155.5t-58.5 -171.5q-8 -27 -20 -76t-21.5 -105.5t-9.5 -109.5q0 -57 18.5 -100.5t63.5 -43.5q23 0 46.5 16.5t54.5 55.5q53 66 89.5 164t55.5 190q4 23 9 59t5 75q0 29 -5 57.5t-17 46.5q-16 18 -41 18 q-23 0 -39 -12q-25 -20 -21 -47q-41 29 -41 68q0 37 30 64.5t69 27.5q45 0 73.5 -26.5t38.5 -63.5v-2q92 35 157 119.5t112 175.5q6 14 12 14t6 -17q0 -16 -6 -28q-47 -88 -111.5 -168t-160.5 -123q4 -14 4 -31.5v-36.5q0 -41 -5.5 -89t-17.5 -99q-25 -100 -70 -199.5 t-104 -165.5q-33 -33 -69.5 -57t-77.5 -24q-76 0 -105 58t-29 138zM426 645q121 90 216 180t196 195q29 31 74.5 82t91 110.5t67.5 114.5q20 47 21 80q0 55 -52 55q-27 0 -59.5 -16t-60.5 -45q-80 -76 -166 -199t-170 -268.5t-158 -288.5z" />
<glyph unicode="g" horiz-adv-x="712" d="M-104 -465q0 37 24.5 79t73.5 75q63 43 115.5 68.5t114 51t153.5 68.5q33 66 63.5 150t60 165.5t56.5 141.5q-8 -8 -32.5 -43t-37.5 -53q-31 -41 -75.5 -99.5t-96.5 -99.5q-66 -53 -118 -53q-51 0 -79 43t-28 108q0 45 12 90q63 236 254 375q39 29 96.5 46.5t114.5 17.5 q80 0 140 -35l6 6q47 70 94 117t113 61q-70 -76 -133.5 -191.5t-116 -244.5t-95.5 -245t-73 -193q113 57 204 154.5t154 211.5q14 29 31 29q4 0 4 -6q0 -8 -8 -23q-37 -66 -79 -128t-95 -116q-45 -49 -101.5 -90t-124.5 -71q-49 -115 -104 -211.5t-127 -161.5t-172 -88 q-33 -8 -66 -8q-61 0 -91.5 29.5t-30.5 72.5zM-70 -463q0 -27 18.5 -45t57.5 -18q14 0 31 2t35 8q72 23 125 79t93 128.5t68 146.5q-63 -33 -162.5 -70.5t-187.5 -105.5q-39 -31 -58.5 -63.5t-19.5 -61.5zM197 125q0 -31 9 -53.5t34 -22.5q41 0 86 42t90 102.5t80.5 117 t54.5 86.5q31 47 65.5 100.5t79.5 116.5q-39 20 -84 21q-59 0 -117.5 -33t-105.5 -86q-70 -76 -117 -163t-65 -152q-10 -37 -10 -76z" />
<glyph unicode="h" horiz-adv-x="677" d="M33 0q18 70 68.5 191.5t119.5 289.5q39 90 92.5 208t121 242t149.5 235.5t177 195.5t202 117l24 4t25 2q31 0 53 -15q29 -18 29 -65q0 -33 -19 -80q-33 -82 -107.5 -176t-174.5 -193q-125 -121 -240 -213t-184 -145q-41 -88 -68 -152.5t-35 -93.5q33 49 75 107.5t75 91.5 q47 47 94 80t92 37q14 1 27 1q49 -1 73 -19q30 -24 31 -68q0 -45 -24 -101q-27 -63 -64 -126.5t-67 -123.5q-8 -16 -30 -62t-28 -87q0 -2 -1 -6t-1 -8q0 -23 12.5 -34t28.5 -11q35 0 65.5 22.5t53.5 48.5q47 51 86 112.5t78 131.5q6 8 12 8q8 0 8 -12q0 -10 -4 -17 q-37 -68 -79 -135t-101 -127q-27 -27 -61.5 -48t-77.5 -21q-70 0 -97.5 41t-27.5 88q0 20 4 39.5t10 38.5q35 90 96.5 171.5t102.5 170.5q14 27 14 49q0 25 -14.5 37t-30.5 12q-39 0 -85 -34t-89 -85q-39 -45 -80 -103.5t-78 -123.5q-35 -59 -71.5 -124t-59.5 -110 q-16 -35 -34.5 -45t-35.5 -10q-8 0 -16 1t-14 1zM387 639q123 90 221.5 182t198.5 199q29 31 75 82t91 110.5t67 114.5q20 47 21 80q0 55 -51 55q-27 0 -59.5 -16t-61.5 -45q-98 -92 -191.5 -224.5t-172.5 -273.5t-138 -264z" />
<glyph unicode="i" horiz-adv-x="352" d="M98 119q0 16 3 33.5t8 35.5q23 82 70.5 183.5t92.5 181.5q27 45 49.5 64.5t49 28.5t63.5 22q10 4 20.5 6t22.5 4q-41 -41 -83 -98.5t-91 -157.5q-27 -53 -52.5 -118.5t-44 -123t-20.5 -90.5q-2 -39 10.5 -55.5t32.5 -16.5q35 0 67 25t56 51q45 51 85 112.5t79 131.5 q6 8 10 8q8 0 9 -12q0 -10 -5 -17q-37 -68 -77.5 -135t-100.5 -127q-27 -27 -62.5 -47t-80.5 -20q-57 0 -84 37.5t-27 93.5zM406 847q0 30 23.5 53t52.5 25q24 0 38.5 -15t14.5 -39q0 -28 -22.5 -52.5t-52.5 -24.5q-24 0 -39 15.5t-15 37.5z" />
<glyph unicode="j" horiz-adv-x="364" d="M-504 -485q0 37 24.5 78.5t73.5 74.5q63 43 114.5 69.5t113 52.5t153.5 69q14 33 26.5 64.5t27.5 58.5q35 92 76.5 211.5t82.5 214.5q29 63 54.5 122.5t69.5 96.5q37 31 102 31q13 0 26 -1q-37 -35 -82 -123t-92 -200.5t-91 -227t-79 -200.5q53 25 129 71t140 117 q47 49 85.5 111.5t77.5 132.5q2 8 9 8q6 0 9 -10t-3 -23q-37 -68 -78 -133t-100 -125q-72 -70 -148 -119t-141 -71q-49 -115 -102.5 -207t-122 -152.5t-168.5 -83.5q-33 -8 -66 -8q-59 0 -90 29t-31 72zM-471 -483q0 -27 19.5 -45.5t58.5 -18.5q14 0 29.5 2t33.5 8 q72 23 126 79.5t94 130t69 147.5q-66 -35 -164 -73t-186 -103q-39 -31 -59.5 -65t-20.5 -62zM410 846q0 35 26.5 59.5t57.5 24.5q27 0 43 -15.5t16 -40.5q0 -33 -26.5 -59.5t-57.5 -26.5q-27 0 -43 16.5t-16 41.5z" />
<glyph unicode="k" horiz-adv-x="698" d="M35 0q10 29 27.5 78t36 99t30.5 79q53 131 115.5 280.5t135.5 298t160 279.5t188 226.5t220 138.5q10 2 22.5 4t24.5 2q33 0 56 -15q28 -17 28 -60q0 -38 -18 -85q-33 -82 -106.5 -176t-174.5 -193q-119 -113 -227.5 -201.5t-179.5 -142.5q-43 -94 -72 -166.5t-39 -101.5 q45 66 100.5 130.5t112.5 107.5q123 92 232 92q61 0 84 -37q6 -8 8 -20.5t2 -22.5q0 -39 -20.5 -77t-49.5 -58q-33 -25 -77 -40.5t-85 -15.5q-43 0 -73 19l-17 10q-4 -31 -8 -70.5t-4 -82.5q0 -20 1 -40t3 -40q4 -33 13.5 -75t32 -73t58.5 -33q35 0 68 25t55 51 q47 51 81 103.5t85 146.5q4 6 6 6q8 0 9 -18q0 -12 -7 -25q-33 -61 -73.5 -128.5t-100.5 -127.5q-27 -27 -64.5 -48t-80.5 -21q-74 0 -113 43t-54 105.5t-15 119.5q0 53 11 108.5t42 94.5q18 23 44 35t21 -3q-4 -8 -4 -16q2 -16 18.5 -25.5t41.5 -9.5t52.5 8.5t49.5 24.5 q27 18 47.5 48t20.5 63t-17.5 45t-40.5 12q-10 0 -22 -2t-23 -6q-66 -20 -130 -76.5t-120.5 -130.5t-101.5 -148q-29 -49 -61.5 -113.5t-42.5 -103.5q-10 -37 -34 -47t-48.5 -9t-38.5 1zM391 653q117 88 211 176.5t193 190.5q29 31 74.5 82t90 110.5t66.5 114.5q20 49 21 80 q0 55 -50 55q-27 0 -59.5 -16t-60.5 -45q-96 -90 -186.5 -219t-166.5 -267.5t-133 -261.5z" />
<glyph unicode="l" horiz-adv-x="399" d="M125 139q0 68 21.5 148t51 155.5t57.5 133t38 79.5q37 78 91 176.5t122.5 201t145.5 194.5t160 159.5t165 92.5q23 6 41 6q35 0 58.5 -19.5t23.5 -66.5q0 -33 -17 -82q-27 -72 -90 -159t-149 -180t-181.5 -183t-185.5 -168t-160 -133q-18 -39 -33.5 -76t-27.5 -72 q-6 -18 -18.5 -55t-22.5 -82t-10 -86t16.5 -70.5t59.5 -29.5q35 0 64.5 22.5t53.5 48.5q86 98 154 228q8 14 12 14t4 -12q0 -18 -8 -39q-39 -72 -70.5 -121t-91.5 -109q-27 -27 -62.5 -47t-80.5 -20q-74 0 -102.5 43t-28.5 108zM340 541q63 55 147 132t172.5 165t167 176 t137 165.5t78.5 135.5q18 53 19 82q0 53 -47 53q-27 0 -64 -19.5t-67 -50.5q-51 -49 -120 -140t-144.5 -208t-148.5 -243.5t-130 -247.5z" />
<glyph unicode="m" horiz-adv-x="1054" d="M8 0q41 82 87 179t85 195.5t63.5 188.5t24.5 156q0 8 -1 12t-1 8q0 6 4 6q20 0 32.5 -25.5t18 -57t5.5 -50.5q0 -51 -12.5 -105t-28.5 -91q78 104 160.5 178t164.5 74q55 0 80 -22.5t25 -63.5q0 -29 -9.5 -57.5t-29.5 -78.5q78 106 152.5 164t148.5 58q59 0 89 -27 t30 -72q0 -49 -32 -115.5t-73 -137t-72.5 -133t-31.5 -103.5q0 -23 10 -41.5t37 -18.5q35 0 66.5 24t54.5 50q47 51 87 113.5t79 132.5q6 8 8 8q8 0 8 -18q0 -12 -4 -19q-37 -68 -78 -132t-100 -124q-27 -27 -62 -47t-78 -20q-61 0 -94 37.5t-33 95.5q0 63 33 127.5t75 126 t75 117t33 98.5q0 16 -8.5 29.5t-30.5 13.5q-66 0 -136.5 -60.5t-136 -154.5t-118 -196.5t-80.5 -188.5q-33 8 -44.5 25.5t-11.5 37.5q0 33 9.5 63.5t30 76t53 116t77.5 183.5q6 16 8 28t2 23q0 47 -38 47q-49 0 -100.5 -40t-99.5 -105.5t-91 -141.5t-78 -148.5t-57 -125.5 q-20 -47 -49 -60.5t-56 -13.5q-8 0 -19.5 1t-21.5 1z" />
<glyph unicode="n" horiz-adv-x="667" d="M8 0q57 113 112.5 237.5t94.5 249.5q19 57 31 111q11 47 10 67v5v4q0 16 16 8q27 -14 37 -42t10 -62q0 -39 -10 -83t-24 -79q27 37 57.5 74.5t67.5 72.5q43 43 92 75t106 32q55 0 81 -24.5t26 -65.5q0 -43 -25 -99q-27 -63 -64.5 -126.5t-68.5 -123.5q-6 -12 -19.5 -37.5 t-23.5 -56.5q-4 -14 -8 -29.5t-4 -31.5q0 -20 9 -38t36 -18q35 0 66.5 24t54.5 50q47 51 87 113.5t79 132.5q6 8 8 8q8 0 8 -18q0 -12 -4 -19q-37 -68 -78 -132t-100 -124q-27 -27 -62 -47t-78 -20q-59 0 -93 36.5t-34 92.5q0 27 11 61q29 90 91 179t103 178q14 29 15 51 q0 23 -13.5 34t-32.5 11q-27 0 -66.5 -21.5t-90.5 -81.5q-31 -37 -70 -90t-63 -96q-41 -70 -74 -140.5t-57 -129.5q-20 -47 -49 -60.5t-55.5 -11.5t-41.5 0z" />
<glyph unicode="o" horiz-adv-x="774" d="M127 164q0 66 23.5 136.5t52.5 125.5q53 100 134 175t193 75q109 0 152 -59.5t43 -145.5q0 -35 -6 -72q-16 -100 -68 -194q14 -20 38 -33.5t52 -13.5q49 0 84 26.5t60.5 66.5t44.5 75q12 23 22 22q6 0 6 -8t-12 -37q-35 -70 -82 -121t-123 -51q-70 0 -106 49 q-57 -94 -139.5 -157.5t-178.5 -63.5q-78 0 -134 50t-56 155zM227 119q0 -66 28 -100.5t67 -34.5q100 0 198 98q29 29 52.5 60.5t41.5 64.5q-27 31 -38 66.5t-11 68.5q0 51 18.5 91t51.5 40q16 0 31.5 -16.5t19.5 -50.5q6 29 6 61q0 78 -28.5 124t-96.5 46q-41 0 -84 -32 t-80.5 -77t-66.5 -92t-43 -78q-35 -76 -50.5 -135t-15.5 -104z" />
<glyph unicode="p" horiz-adv-x="643" d="M-825 -535q0 16 2 32t8 34q6 14 9 11t3 -11q0 -100 68.5 -153.5t159.5 -53.5q55 0 106 19q84 29 149.5 90t112.5 131q45 66 90 151.5t86 180t78 183.5t64 159q31 80 72.5 174t93 189t112 174t125.5 128q47 37 98 37h15.5t15.5 -4q4 -2 4 -5t-8 -3q-20 -2 -49 -19.5 t-70 -72.5q-16 -25 -72.5 -105t-105.5 -192q59 68 110.5 96.5t92.5 28.5q66 0 90 -33t24 -82q0 -45 -15 -96.5t-36.5 -98.5t-40.5 -80q-14 -27 -42.5 -63.5t-65.5 -75.5q6 -29 25.5 -41t45.5 -12q29 0 61 12t52 31q47 39 86 92t72 111q2 4 3 4h1q4 0 4 -19v-15t-4 -13 q-35 -61 -72 -109.5t-90 -85.5q-27 -16 -58.5 -27.5t-62.5 -11.5t-54.5 13.5t-33.5 44.5q-35 -33 -83 -67t-99 -38q-8 -2 -15.5 -2h-13.5q-72 0 -88 55q-31 -88 -86 -198.5t-131 -220t-171 -196.5t-210 -128q-63 -23 -129 -23q-90 0 -161.5 43t-71.5 131zM158 92 q0 -59 53 -59q37 0 75 29.5t73.5 74.5t67.5 94.5t52 87.5q12 20 32.5 64.5t37 95.5t16.5 90q0 29 -10 45.5t-39 16.5q-33 0 -75 -37t-84 -92.5t-76 -110.5q-8 -14 -29 -49t-42.5 -80t-36.5 -90t-15 -80z" />
<glyph unicode="q" horiz-adv-x="737" d="M94 141q0 51 13.5 98.5t25.5 73.5q55 121 148.5 219.5t220.5 129.5q23 4 46 7t46 3q45 0 87 -11.5t73 -37.5l-17 -9q-51 27 -104 27q-49 0 -101 -23q-78 -35 -142 -103.5t-109 -152t-68 -161.5q-12 -45 -12 -90q4 -61 47 -62q35 0 73.5 33t78.5 83t73 101 q12 18 35.5 59.5t50.5 87.5t47.5 81.5t28.5 44.5q29 31 84 39t88 16q-92 -119 -163 -245t-140 -273q-33 -74 -72 -162t-72.5 -180t-55 -173t-21.5 -139q0 -100 77 -100q23 0 46.5 11.5t44.5 33.5q39 41 73.5 107.5t60 134t36.5 108.5q6 23 16 68t10 90q0 41 -13 69.5 t-48 28.5q-27 0 -45.5 -18t-24.5 -41q-23 10 -22 35q0 29 30.5 59.5t81.5 32.5q31 0 49 -12q23 10 44.5 27.5t37.5 37.5q47 51 86 112.5t78 131.5q6 8 12 8q8 0 9 -12q0 -10 -4 -17q-37 -68 -79 -135t-102 -127q-12 -12 -27.5 -24.5t-31.5 -22.5q29 -41 29 -112 q0 -88 -41 -215q-23 -70 -65 -160t-130 -178q-57 -58 -131 -58q-70 0 -101.5 50.5t-31.5 123.5q0 86 31.5 194.5t79 219.5t95.5 207t81 158q-31 -43 -77 -100.5t-98 -98.5q-66 -51 -118 -51q-51 0 -79 45t-28 108z" />
<glyph unicode="r" horiz-adv-x="565" d="M125 256q0 14 6 23q43 84 83 164.5t54 168.5q-47 27 -63 93q-2 10 -3 19t-1 17q0 37 15 62.5t36 25.5q29 0 47 -55q4 -14 6 -31.5t2 -33.5q0 -18 -1 -34t-3 -26q14 -4 38 -6t52 -2q43 0 90 3t80 3q39 0 53.5 -16.5t14.5 -40.5q0 -31 -15.5 -67t-29.5 -60 q-27 -49 -50.5 -87t-52.5 -81q-43 -66 -62.5 -120t-19.5 -91q0 -63 48 -64q39 0 100 56q39 35 72.5 83t61.5 98t46 83q4 6 8 6q8 0 8 -16q0 -12 -6 -23q-35 -63 -79.5 -139t-110.5 -131q-35 -29 -69 -42t-62 -13q-51 0 -85 35.5t-34 95.5q0 35 16 84q27 74 80.5 141.5 t102.5 136.5q30 40 30 78q0 22 -11 36.5t-40 16.5q-16 4 -36.5 4h-41.5h-57h-22.5t-18.5 2q-8 -51 -33.5 -114.5t-58.5 -127t-64 -114.5q-8 -12 -14 -12t-6 12z" />
<glyph unicode="s" horiz-adv-x="548" d="M53 141q0 45 17 84q16 35 36.5 61.5t45.5 30.5q18 41 56 109t86 135.5t91 108.5q10 10 35.5 33.5t59.5 46t63 26.5q6 2 16 2q25 0 37 -12t12 -29q0 -16 -12 -32.5t-39 -26.5q-10 -2 -29.5 -6t-56.5 -4q-14 -20 -14 -58q0 -41 13 -92t26.5 -99t13.5 -81q1 -10 1 -19 q-1 -65 -25 -133q-28 -76 -87 -131l-28 -20q6 -2 12 -3t12 -1q35 0 78 21.5t76 53.5q49 47 85 100.5t66 110.5q2 8 11 9q10 0 10 -17q0 -8 -6 -18q-31 -57 -75 -119.5t-91 -105.5q-37 -33 -79 -48.5t-71 -15.5q-20 0 -32.5 4t-22.5 12q-29 -14 -64.5 -24t-72.5 -10 q-43 0 -79 17t-58 60q-16 37 -17 80zM106 106q0 -49 29 -71.5t68 -22.5q45 0 82 25q41 29 64.5 74t35.5 96q16 61 19.5 126.5t3.5 119.5v71q0 43 11 88t23 56q-31 -12 -67.5 -54.5t-73.5 -98.5t-66.5 -109.5t-46.5 -88.5q39 2 53.5 -21.5t8.5 -33.5q-16 4 -23 4 q-31 0 -57 -22q-27 -20 -45.5 -60.5t-18.5 -77.5z" />
<glyph unicode="t" horiz-adv-x="393" d="M102 113q0 72 35 157.5t66 153.5q16 33 43.5 89t60.5 112h-96q-6 0 -6 10q0 8 6 17.5t14 9.5q57 0 86 10t49 28q33 29 65 74t62 78q23 29 57 43t44 10q-10 -14 -33 -49t-47.5 -76t-45 -75.5t-26.5 -47.5h135q6 0 7 -4q0 -8 -9.5 -18t-17.5 -10h-133q-37 -63 -87 -165 t-89 -196q-8 -18 -27.5 -73.5t-19.5 -102.5q0 -31 13 -51.5t46 -20.5q35 0 76 26t63 52q47 51 86 112.5t78 131.5q6 8 12 8q8 0 9 -12q0 -10 -5 -17q-37 -68 -78.5 -135t-101.5 -127q-27 -27 -72 -48t-88 -21q-51 0 -91 29.5t-40 97.5z" />
<glyph unicode="u" horiz-adv-x="737" d="M96 115q0 68 28 147.5t64.5 152t59.5 113.5q45 76 91 94.5t114 18.5q-20 -6 -53 -48t-69 -103.5t-68 -132t-51 -137t-19 -114.5q0 -35 13 -57t42 -22q25 0 57.5 19.5t59.5 47.5q90 100 146 220t126 239q45 76 91 94.5t114 18.5q-20 -6 -55 -50.5t-73 -110t-71 -140 t-54.5 -144t-21.5 -119.5q0 -33 13.5 -54t40.5 -21q25 0 57.5 20.5t58.5 46.5q47 51 86 112.5t78 131.5q6 8 10 8q8 0 9 -12q0 -10 -5 -17q-37 -68 -77.5 -135t-100.5 -127q-33 -33 -77 -54q-32 -15 -63 -15q-12 0 -24 2q-57 10 -81.5 46t-24.5 87q0 41 12 86 q-25 -39 -52.5 -78t-61.5 -74q-29 -29 -69 -48t-81 -19q-63 0 -91 36.5t-28 90.5z" />
<glyph unicode="v" horiz-adv-x="641" d="M94 152q0 45 12 88q20 72 52 144.5t61 137.5q4 10 14.5 36t12.5 50v6q0 16 -9.5 24.5t-19.5 8.5q-16 0 -27 -8q-4 -4 -10 -4t-6 6q0 18 21 27q29 14 59 14q37 0 64.5 -23.5t27.5 -70.5q0 -59 -26.5 -117.5t-53.5 -116.5q-23 -47 -45 -97t-33 -95q-6 -27 -6 -53 q0 -33 16.5 -56.5t57.5 -23.5q53 0 100 34.5t87 88t69 109.5t43 97q-2 16 -6 50t-4 77q0 33 4 69t12 73q6 23 24.5 57.5t47.5 34.5q23 4 35 -15.5t12 -52.5q0 -63 -24.5 -149t-65.5 -170v-11q0 -51 18 -81q20 -33 51 -33q49 0 91.5 53t70.5 113q14 27 25 26q6 0 6 -8 q0 -14 -10 -33q-20 -41 -44 -83t-57.5 -68.5t-83.5 -26.5q-43 0 -65.5 29t-28.5 67q-27 -47 -54.5 -90t-53.5 -73q-45 -55 -101.5 -91t-126.5 -36q-72 0 -102.5 51t-30.5 115z" />
<glyph unicode="w" horiz-adv-x="1071" d="M96 115q0 68 28 147.5t64.5 152t59.5 113.5q45 76 91 94.5t114 18.5q-20 -6 -53 -48t-69 -103.5t-68 -132t-51 -137t-19 -114.5q0 -35 13 -57t42 -22q25 0 57.5 19.5t59.5 47.5q90 100 146 220t126 239q45 76 91 94.5t114 18.5q-18 -6 -52 -48.5t-72 -105.5t-72 -135 t-55.5 -137.5t-21.5 -110.5q0 -61 33 -80.5t60 -19.5q53 0 101 34.5t88 88t69.5 109.5t46.5 97q-8 33 -9 117q0 51 6.5 104.5t20.5 92.5q20 51 64 51q16 0 29.5 -16.5t13.5 -55.5q0 -57 -17.5 -117.5t-27.5 -82.5q-8 -20 -20.5 -50t-29.5 -65v-10q-1 -56 21 -93 q24 -40 59 -40q39 0 69 23.5t51.5 57t35.5 62.5q6 12 16 12q8 0 8 -10q0 -6 -6 -19q-25 -55 -69.5 -104t-110.5 -49q-33 0 -64.5 26.5t-37.5 83.5q-35 -61 -83 -128.5t-111.5 -114.5t-149.5 -47q-57 0 -99.5 43t-42.5 125q0 31 6 63q-20 -39 -55 -83t-69 -79 q-33 -33 -77 -52q-36 -16 -72 -16q-8 0 -15 1q-57 6 -81 40.5t-24 86.5z" />
<glyph unicode="x" horiz-adv-x="729" d="M100 0q29 20 81 72.5t113.5 117t117.5 121.5l12 158q2 10 3 31.5t1 46.5v28.5t-4 26.5q-6 37 -35 37q-20 0 -35 -21q-23 -29 -46 -67.5t-32 -52.5l-114 -215q-8 -18 -17 -19q-6 0 -6 12q0 14 11 35q29 53 49 96.5t49 96.5q27 47 50.5 89t57 67.5t84.5 25.5q57 0 78 -40 t21 -95q0 -39 -1 -81t-6 -71q53 61 110.5 137t88.5 121h98q-25 -18 -76 -69t-110 -113.5t-115 -120.5q-2 -27 -3 -54.5t-1 -55.5q0 -57 6 -111q6 -35 23.5 -72.5t58.5 -40.5q29 0 63 26t54 48q47 51 86 111.5t78 132.5q6 12 14 12t8 -12q0 -10 -8 -27q-37 -68 -78 -132 t-100 -124q-65 -69 -141 -69q-66 0 -101.5 31.5t-52 78.5t-19.5 96.5t-3 83.5q-35 -41 -77 -94t-78 -101t-56 -81h-101z" />
<glyph unicode="y" horiz-adv-x="899" d="M29 -485q0 37 24.5 78.5t73.5 74.5q63 43 115.5 69.5t114 52.5t153.5 69q10 23 22.5 53.5t41 102t83.5 212.5q-45 -55 -90 -102t-73 -74q-41 -31 -79 -48t-75 -17q-49 0 -68.5 28.5t-19.5 67.5q0 33 9 67.5t22 65.5q29 72 62.5 136.5t66.5 133.5q8 16 23.5 53t15.5 68 q0 35 -31 35q-29 0 -58.5 -27.5t-52 -62.5t-35.5 -55l-19 -39t-49 -95.5t-61 -105.5q-6 -10 -16 -10q-8 0 -8 8q0 4 10 25q45 80 70.5 133t58.5 110q33 59 76 113q29 31 62.5 46t66.5 15q57 0 78.5 -25.5t21.5 -62.5q0 -39 -16.5 -80t-32.5 -71q-51 -90 -84 -157t-57 -128 q-18 -45 -19 -74q0 -53 45 -53q37 0 76 33q109 88 176.5 206.5t128.5 247.5q20 41 51 89.5t76 82.5q40 29 92 29h13q-29 -27 -69 -98.5t-84 -167.5t-87 -200.5t-81 -200t-64 -160.5q55 23 130 68.5t140 119.5q47 49 85 111.5t77 132.5q6 8 12 8q8 0 8 -12q0 -10 -4 -17 q-37 -68 -78 -135t-100 -127q-74 -70 -148.5 -120t-140.5 -72q-49 -111 -103 -203t-124 -153.5t-168 -84.5q-33 -8 -65 -8q-59 0 -90 29t-31 72zM61 -481q0 -29 20.5 -47.5t59.5 -18.5q12 0 28 2t34 8q74 23 127 79.5t93 130t69 147.5q-66 -35 -164.5 -73t-186.5 -103 q-39 -31 -59.5 -64t-20.5 -61z" />
<glyph unicode="z" horiz-adv-x="712" d="M-49 -461q0 43 25.5 89t76.5 79q100 66 228.5 120t250.5 124q6 16 13.5 35.5t11.5 40.5q6 29 6 51q0 49 -25.5 71.5t-68.5 22.5q-47 0 -107 -25q-16 -6 -36.5 -14t-42.5 -18q-20 -41 -60.5 -74t-66.5 -37q-6 -2 -19 -2q-39 0 -39 35t37 55q55 33 105.5 70t104.5 89 t124 130q43 49 89 95t93 89q-14 4 -45 7t-62.5 7.5t-49.5 6.5q-12 2 -23.5 2h-21.5q-45 0 -83 -15.5t-71 -60.5q-27 -37 -60.5 -97.5t-84.5 -150.5q-6 -12 -13 -12q-8 0 -8 14q0 10 8 25q41 70 65.5 123t61.5 116q29 51 58.5 83t78.5 44q16 4 34 6.5t36 2.5q41 0 81 -4.5 t73 -4.5q16 0 52 1t70.5 4.5t47.5 9.5q16 -6 16 -29q-1 -27 -27 -59q-22 -26 -63 -26q-8 0 -16 1q-51 -33 -113 -94.5t-105 -106.5q-16 -18 -51 -51t-72.5 -71.5t-68.5 -75.5q0 -2 -1 -4t-1 -6q39 25 90 40q41 12 72.5 17.5t58.5 5.5q70 0 97.5 -35t27.5 -88q0 -29 -6 -63 q68 61 127 136t98 144q18 29 33 29q4 0 4 -6q0 -8 -8 -23q-37 -66 -80 -128t-94 -116q-37 -37 -88 -77q-6 -23 -14.5 -47.5t-18.5 -49.5q-47 -117 -113.5 -217t-150 -167t-185.5 -87q-14 -2 -26.5 -3t-24.5 -1q-70 0 -105.5 37t-35.5 88zM-12 -463q0 -39 23.5 -65.5 t68.5 -26.5q10 0 23.5 2t27.5 6q104 31 175 105.5t122 170t94 185.5q-49 -33 -132 -71t-169 -77.5t-149 -82.5q-43 -29 -63.5 -69t-20.5 -77z" />
<glyph unicode="{" horiz-adv-x="643" d="M78 551l8 20q84 8 135 27.5t85 67t63 131.5q25 70 41 141.5t42.5 136t78 112.5t145.5 73q29 8 82 11t94 3l-2 -19q-117 0 -178.5 -37.5t-91 -102t-49 -143.5t-52.5 -159q-25 -61 -69.5 -118.5t-104 -94.5t-129.5 -37h-8q76 -8 126 -56t42 -130q-6 -70 -30.5 -147.5 t-49.5 -155.5t-31 -150q-6 -55 17.5 -83.5t59.5 -39t71 -11.5t51 -1l-14 -27q-45 0 -97.5 6.5t-97.5 24t-72.5 51t-21.5 88.5q6 78 34.5 161t55.5 167t27 160q0 78 -41 103.5t-119 27.5z" />
<glyph unicode="|" horiz-adv-x="434" d="M193 -72v1452h53v-1452h-53z" />
<glyph unicode="}" horiz-adv-x="843" d="M78 -238l2 21q117 0 178 37t91 101.5t49.5 143t52.5 160.5q25 61 69.5 118.5t105 94.5t128.5 37h8q-76 6 -126 54.5t-42 127.5q8 74 31.5 151t47 154.5t29.5 149.5q6 55 -17 84t-59 39t-70 11t-50 1l12 27q45 0 97.5 -6t98.5 -23.5t73.5 -50.5t21.5 -88q-8 -80 -37 -165 t-55.5 -168t-26.5 -161q0 -76 43 -100.5t119 -26.5l-10 -18q-82 -8 -134.5 -29.5t-85 -66.5t-63.5 -131q-25 -70 -41 -141.5t-41.5 -136t-77 -113t-145.5 -72.5q-29 -8 -82 -11.5t-94 -3.5z" />
<glyph unicode="~" horiz-adv-x="569" d="M57 723q0 41 40 72.5t85 31.5q59 0 112.5 -22.5t123.5 -22.5q57 0 80.5 21.5t29.5 30.5h15q0 -41 -34 -78t-91 -37q-70 0 -123 22.5t-113 22.5q-45 0 -71.5 -14.5t-34.5 -26.5h-19z" />
<glyph unicode="&#xa1;" horiz-adv-x="759" d="M-55 -508q4 6 37.5 57.5t88 133t119 179t128 193t116.5 175t85 128.5l32 48l35 2l-461 -875q-4 -8 -38 -17.5t-74.5 -15.5t-67.5 -8zM604 618q0 29 22.5 50.5t49.5 21.5q51 0 51 -49q0 -29 -22.5 -51.5t-51.5 -22.5q-23 0 -36 15.5t-13 35.5z" />
<glyph unicode="&#xa2;" horiz-adv-x="907" d="M141 489q0 117 50.5 244t141.5 239.5t211 188.5t257 88l53 131h59l-51 -127q61 -2 110.5 -25.5t49.5 -88.5q0 -43 -27.5 -66.5t-52.5 -23.5q-20 0 -27 14q4 20 11.5 48t5.5 46q-6 29 -28.5 44.5t-55.5 17.5l-414 -1004q37 -12 78 -12q51 0 99 16.5t85 48.5q39 33 71 85.5 t32 103.5q8 2 20 2q27 0 39 -15.5t12 -37.5q0 -63 -47 -110.5t-118.5 -78.5t-150.5 -44t-142 -9l-68 -164h-59l71 172l-6 4q-109 37 -159 122t-50 191zM276 483q0 -25 2.5 -48t6.5 -46q10 -53 35.5 -90.5t62.5 -60.5l401 974q-18 -2 -36 -12q-86 -35 -168 -104.5 t-144.5 -153.5t-95.5 -160q-63 -150 -64 -299z" />
<glyph unicode="&#xa3;" horiz-adv-x="1777" d="M43 25q0 18 25 36q16 10 47 11q27 0 53.5 -5.5t34.5 -7.5l135 -28q72 27 144.5 102.5t135.5 169.5q43 66 85 146.5t85 166.5h-217v41h238q61 125 128 250t142 232q47 66 110.5 129t139.5 102q45 23 92 37t99 14q106 0 161.5 -55t55.5 -139q0 -20 -3 -43t-12 -45 q-31 -100 -112.5 -171t-179.5 -106q-12 -4 -15 -4q-10 0 -10 8q0 12 16 19q92 35 167 109.5t93 172.5q2 12 3.5 23.5t1.5 19.5q0 84 -58.5 124t-134.5 40q-78 0 -143 -37q-78 -45 -152 -153.5t-143.5 -247.5t-134.5 -279h235v-41h-256q-45 -96 -89 -180t-85 -143 q-61 -88 -139 -160t-172 -117l219 -47q127 -27 273.5 -52.5t285.5 -25.5q90 0 170 14.5t145 47.5q86 45 138.5 117.5t52.5 148.5q0 27 -6 51q-6 23 -4 29q4 6 10 6q25 0 39 -33q10 -27 15 -52t5 -54q0 -82 -42 -159t-116 -128q-51 -35 -111.5 -54.5t-123.5 -29.5 q-33 -4 -68.5 -7t-72.5 -3q-154 0 -316 34t-299 75q-27 10 -105.5 37.5t-168.5 54.5q-35 -10 -78 -12.5t-82 -2.5q-18 0 -48 3t-52 14q-31 14 -31 37z" />
<glyph unicode="&#xa4;" horiz-adv-x="1304" d="M221 1196q0 4 5 7t12 -3l229 -205q45 39 100.5 60.5t118.5 21.5q125 0 217 -80l230 209q6 4 12 -1t-2 -11l-203 -231q84 -94 84 -224q0 -63 -21.5 -117.5t-56.5 -99.5l203 -225q6 -6 0 -11t-12 -1l-226 202q-45 -39 -102 -62.5t-123 -23.5q-63 0 -119.5 22.5t-101.5 59.5 l-223 -200q-4 -4 -6 -4q-4 0 -7.5 5t0.5 11l201 223q-39 45 -60.5 101.5t-21.5 119.5q0 127 84 222l-207 229q-4 4 -4 6zM436 739q0 -68 35 -124t91 -89.5t124 -33.5q70 0 125 33.5t89 90t34 123.5q0 70 -34 126.5t-89 90t-125 33.5q-68 0 -124 -33.5t-91 -90t-35 -126.5z " />
<glyph unicode="&#xa5;" horiz-adv-x="1257" d="M39 -86q0 10 20 10q74 0 150 49.5t146.5 126t133 162.5t111.5 160h-295l25 43h301l22 35q0 37 -3 76.5t-7 80.5h-223l26 45h191q-14 94 -41 189.5t-69 177.5t-103 133q-57 51 -123 51q-35 0 -69.5 -17t-63.5 -56t-47.5 -91.5t-14.5 -87.5v-6q0 -16 -12 -16q-14 0 -18 22 q-2 6 -2 14.5v16.5q0 35 13 79t54 95q39 47 98.5 73t118.5 26q78 0 139.5 -49.5t107.5 -129t77 -170t46 -173.5t17 -140q88 139 169 278.5t179.5 267.5t235.5 230q39 29 89 48.5t102 19.5q41 0 77.5 -16.5t63.5 -57.5q27 -39 20 -94q-4 -16 -20 -16q-14 0 -12 16 q6 41 -19 76q-20 31 -47 44t-55 13q-41 0 -83 -20.5t-77 -49.5q-84 -70 -166 -181t-158.5 -240.5t-150.5 -258.5h215l-27 -45h-215q-27 -51 -54.5 -99t-55.5 -93h235l-24 -43h-238q-92 -150 -192.5 -269.5t-215 -188t-251.5 -68.5q-31 0 -31 18z" />
<glyph unicode="&#xa6;" horiz-adv-x="843" d="M293 -401l166 784l82 -6l-158 -778h-90zM498 569l157 736h90l-163 -744z" />
<glyph unicode="&#xa7;" horiz-adv-x="1624" d="M45 -113q0 168 121 338q59 84 148 154t193.5 113t211.5 43q106 0 156.5 -42t50.5 -108q0 -86 -74 -182q-53 -68 -131 -119t-165 -81t-173 -30q-14 0 -26.5 1t-26.5 3q-8 0 -7 8.5t9 8.5q84 -6 180 26.5t181 90t136 125.5q57 76 58 147q0 49 -35 83t-113 34 q-100 0 -194 -42t-174 -109.5t-140 -147.5q-55 -76 -83.5 -160t-28.5 -162q0 -92 41 -169t126 -123t216 -46q139 0 258 51.5t208 139.5t139 202.5t50 241.5q0 94 -31 189q-23 72 -57.5 149.5t-62 160.5t-27.5 167q0 76 31 151q35 78 97 131.5t144 67.5q4 23 11.5 46.5 t15.5 43.5q41 92 120 148.5t185 56.5q39 0 79 -11.5t67.5 -38t27.5 -73.5q0 -33 -20.5 -47t-40.5 -14q-12 0 -19 2q6 23 6 45q0 49 -28.5 73.5t-75.5 24.5q-57 0 -113.5 -32t-83.5 -81q-41 -76 -41 -155q0 -70 24 -136.5t58.5 -129t63.5 -119.5q82 -160 82 -326 q0 -180 -88 -326.5t-240 -230.5q-70 -119 -179.5 -212t-248.5 -145.5t-303 -52.5q-154 0 -257 52.5t-155.5 139.5t-52.5 193zM1073 891q0 -70 24.5 -136.5t58.5 -130t63 -120.5q41 -76 60 -160t19 -166q0 -41 -5 -80.5t-15 -74.5q84 61 118 170.5t34 224.5q0 66 -9.5 126 t-25.5 111q-23 76 -60 156t-64.5 166t-23.5 174q-41 -14 -77.5 -41t-55.5 -61q-23 -39 -32 -79t-9 -79z" />
<glyph unicode="&#xa8;" horiz-adv-x="483" d="M125 862q0 29 22.5 49.5t49.5 22.5q23 0 38 -14.5t15 -36.5q0 -29 -23.5 -50.5t-52.5 -21.5q-20 0 -34.5 15.5t-14.5 35.5zM360 862q0 29 23 49.5t49 22.5q51 0 51 -49q0 -31 -23 -52.5t-52 -21.5q-20 0 -34 15.5t-14 35.5z" />
<glyph unicode="&#xa9;" horiz-adv-x="1466" d="M29 459q0 66 18 139q33 129 112 242.5t190.5 199.5t243.5 134.5t271 48.5q160 0 281 -63.5t188.5 -172t67.5 -248.5q0 -68 -19 -141q-31 -129 -110.5 -241.5t-192 -197.5t-245 -133.5t-271.5 -48.5q-160 0 -280.5 62.5t-187 172.5t-66.5 247zM129 496q0 -137 62.5 -243 t170 -165t242.5 -59q27 0 53.5 3t53.5 7q121 23 227 85t187 153.5t126 200t45 224.5q0 137 -62.5 242t-169 164t-241.5 59q-27 0 -54.5 -3t-55.5 -7q-121 -20 -226.5 -82.5t-186.5 -154t-126 -200t-45 -224.5zM336 463q0 100 53 203q37 74 98.5 146.5t146.5 122.5t189 56 q84 4 146 -30q29 -16 42 -42t13 -55q0 -43 -22.5 -86t-57.5 -72.5t-70 -29.5q-16 0 -34.5 10t-18.5 31q0 23 31 51q33 31 52.5 68.5t19.5 68.5q0 35 -27 47q-16 8 -41 9q-37 0 -80 -18.5t-80 -49.5q-27 -20 -53.5 -47t-50.5 -58q-33 -41 -65.5 -100t-53 -124.5t-20.5 -125.5 q0 -27 5 -51.5t17 -44.5q16 -31 58 -54.5t102 -23.5q68 0 128 25.5t107 64.5q43 35 58 35q12 0 3 -18.5t-32 -38.5q-61 -53 -137 -83t-164 -30q-135 0 -198.5 71.5t-63.5 172.5z" />
<glyph unicode="&#xaa;" horiz-adv-x="731" d="M100 709q0 31 11 71q47 180 202 295q35 25 84 40t101 15q55 0 100 -16t59 -47q-35 -45 -71.5 -108.5t-61.5 -116.5q-16 -35 -35.5 -84t-23.5 -88v-6q0 -27 11 -37.5t26 -10.5h2q27 0 50.5 18.5t41.5 39.5q35 41 66.5 89t62.5 103q8 8 10 8q4 0 5 -7t-3 -17 q-29 -51 -61.5 -105.5t-79.5 -101.5q-20 -20 -44 -34.5t-54 -20.5h-15q-53 0 -72.5 32.5t-19.5 71.5q0 31 6 56q0 4 1 8t1 6q-25 -33 -54.5 -70t-63.5 -63q-49 -41 -95 -41q-39 0 -62.5 33.5t-23.5 87.5zM186 698q0 -25 7.5 -43t27.5 -18q31 0 68 34t72.5 81t64.5 92t43 69 q35 53 62.5 89t91.5 57q2 0 5 1t5 1q-14 23 -47 34t-68 11q-51 0 -95 -27.5t-83 -70.5q-55 -61 -92 -129t-53 -121q-8 -25 -9 -60z" />
<glyph unicode="&#xab;" horiz-adv-x="647" d="M35 342q0 25 31 49l346 275q2 2 6 2q6 0 9 -9.5t-3 -17.5l-301 -279l219 -200q2 -2 2 -6q0 -8 -9.5 -14.5t-15.5 -4.5l-272 182q-12 6 -12 23zM319 371q0 25 31 51l344 272q2 2 6 2q6 0 9.5 -9t-2.5 -17l-299 -279l217 -201q2 -2 2 -6q0 -8 -8.5 -14t-16.5 -2l-272 182 q-10 6 -11 21z" />
<glyph unicode="&#xac;" horiz-adv-x="1406" d="M123 422q0 14 19.5 36.5t33.5 22.5h989l-90 -418q-2 -16 -15.5 -27t-31.5 -11q-12 0 -23.5 12t-9.5 26l72 336h-909q-8 0 -21.5 4.5t-13.5 18.5z" />
<glyph unicode="&#xad;" horiz-adv-x="649" d="M264 360v39h369v-39h-369z" />
<glyph unicode="&#xae;" horiz-adv-x="970" d="M168 1092q0 37 8 69q20 84 80.5 153.5t144.5 110.5t174 41q117 0 190 -67.5t73 -169.5q0 -37 -9 -68q-20 -84 -81.5 -153.5t-145.5 -110.5t-174 -41q-115 0 -187.5 67.5t-72.5 168.5zM215 1110q0 -82 45 -139q-8 -2 -10 -5t12 -3h6l-4 4l-4 4q20 4 51 50t63 108.5 t59.5 120t41.5 81.5q4 10 17.5 17.5t23.5 13.5q-78 2 -138.5 -39t-82.5 -115q-2 -6 -4 -9l-2 -3q-2 0 -2 10q0 18 6 37q35 90 94 114.5t129 24.5q23 0 47.5 -1t46.5 -3q49 -2 72 -24.5t23 -50.5q0 -41 -41 -83t-113 -53l-49 -2q16 -37 39.5 -76.5t54.5 -66.5t63 -27 q29 0 56 21q-18 -20 -43 -43q23 10 48 34.5t52 65.5q6 10 2 10t-10 -10q-12 -18 -24.5 -32.5t-24.5 -24.5q72 92 71 196q0 102 -67.5 164t-165.5 62q-90 0 -167 -47.5t-124 -122t-47 -158.5zM268 963q65 -82 178 -82q59 0 120 23.5t106 68.5q-18 -8 -41 -8q-57 0 -102.5 61 t-73.5 131l8 11q8 10 12 10q96 0 137 38.5t41 77.5q0 27 -14 44.5t-39 17.5q-37 0 -53.5 -11.5t-34.5 -39.5q-39 -59 -71.5 -127t-67.5 -140q-20 -43 -28.5 -57t-35.5 -16q-12 -2 -23.5 -2h-17.5z" />
<glyph unicode="&#xaf;" horiz-adv-x="446" d="M61 918q0 8 4.5 15t10.5 7l289 4q20 0 20 -18q0 -27 -18 -27h-287q-18 0 -19 19z" />
<glyph unicode="&#xb0;" horiz-adv-x="542" d="M182 752q0 47 33 79.5t78 32.5q47 0 78.5 -32.5t31.5 -79.5q0 -45 -31.5 -78t-78.5 -33q-45 0 -78 33t-33 78zM211 752q0 -33 23.5 -57.5t56.5 -24.5q35 0 58.5 24.5t23.5 57.5t-23.5 56t-58.5 23q-33 0 -56.5 -23.5t-23.5 -55.5z" />
<glyph unicode="&#xb1;" horiz-adv-x="583" d="M63 150v4q0 4 6.5 19t8.5 17h395q0 -8 -4 -22t-10 -18h-396zM141 376v1q0 4 6.5 20.5t8.5 18.5h178l45 129q4 4 11 4h9h11.5t9.5 -4l-45 -129h176q2 -2 2 -4q0 -4 -5 -19.5t-9 -17.5h-179l-47 -133q-4 -4 -18 -4q-6 0 -11 1t-12 3l47 133h-176q-2 0 -2 1z" />
<glyph unicode="&#xb2;" horiz-adv-x="749" d="M55 707q0 18 11.5 39.5t19.5 29.5q18 25 51 50.5t66 45.5q51 31 112.5 60t119 63.5t93.5 81.5q25 29 39.5 65t14.5 81q0 61 -41 86.5t-92 25.5t-99 -24q-78 -43 -90 -125q-2 -6 -2 -21q0 -31 14 -55q4 -2 -5 -2t-15 2q-20 8 -31.5 33.5t-9.5 46.5q6 53 42 87t83 54 q31 12 64.5 18.5t66.5 8.5q78 0 142.5 -31t64.5 -108q0 -51 -24.5 -95.5t-63.5 -79.5q-49 -41 -114.5 -74.5t-133.5 -63t-123 -62.5q-14 -8 -43 -29.5t-29 -42.5q0 -16 31 -24q49 -12 87 -20.5t95 -8.5q29 0 70 9t77 30.5t48 58.5q2 6 3 12.5t1 12.5q0 25 -18 37q-4 4 -3 8 t9 2q8 0 16 -8q39 -31 33 -86q-8 -72 -65.5 -96.5t-123.5 -24.5q-39 0 -74.5 5t-64.5 11q-27 6 -58.5 14.5t-62.5 8.5q-29 0 -47 -8q-20 -5 -28 -21q-12 6 -13 23z" />
<glyph unicode="&#xb3;" horiz-adv-x="724" d="M45 754q0 10 4 26q4 12 17.5 29.5t39.5 15.5q-2 -8 -5 -19t-3 -22q-8 -55 42 -81.5t108 -26.5q66 0 127 30.5t101 85t40 128.5q0 72 -51 97t-111 25q-18 0 -46.5 -1t-45.5 -1q-16 0 -16 11q0 6 9 13t28 7q29 0 68.5 2t74.5 14q47 16 89 60.5t42 99.5q0 39 -28.5 62.5 t-82.5 23.5q-88 0 -147 -57q-37 -37 -37 -78q0 -10 4 -22q-51 -2 -51 43q0 18 10 38q20 37 61.5 57.5t87.5 31t85 10.5q53 0 104 -17.5t68 -64.5q4 -8 4 -15.5v-17.5v-17.5t-4 -19.5q-8 -37 -40 -65.5t-70 -48t-68 -27.5q84 -8 117.5 -50t33.5 -91q0 -47 -22 -88 q-45 -88 -140.5 -132.5t-197.5 -44.5q-27 0 -52.5 2.5t-50.5 8.5q-45 10 -70.5 31.5t-25.5 54.5z" />
<glyph unicode="&#xb4;" horiz-adv-x="438" d="M147 815q0 8 9 14q47 31 108.5 83.5t112.5 91.5q10 6 16 6q16 0 30.5 -15.5t14.5 -31.5q0 -14 -12 -21l-258 -145h-4q-16 0 -17 18z" />
<glyph unicode="&#xb5;" horiz-adv-x="702" d="M-100 -307q18 88 54 169t83 174t98 222l8 21l-55 -107q-2 -8 -8 -8q-4 0 -4 14q0 8 2 20.5t8 20.5q25 45 54.5 106.5t63.5 125t64 110.5l8 12q31 47 77 64.5t82 18.5l36 1q-37 -49 -74 -100t-67 -106q-33 -63 -59.5 -131t-41.5 -119q-10 -37 -10 -76q0 -31 9.5 -53.5 t33.5 -22.5q45 0 106.5 61.5t116.5 149.5q16 25 40 69t47.5 92t42 85t24.5 47q27 47 49.5 66.5t49 27.5t63.5 21q10 4 21.5 6t21.5 4q-29 -37 -62.5 -91.5t-64.5 -110.5t-51 -99q-16 -31 -43 -90.5t-48.5 -117.5t-21.5 -87q0 -35 12.5 -49.5t32.5 -14.5q29 0 56.5 22.5 t47.5 43.5q35 41 68 100.5t59 112.5q0 2 1 3l1 1q6 0 7 -22q0 -10 -4 -23l-17 -31q-25 -45 -49.5 -93t-65.5 -89q-27 -25 -57.5 -41t-69.5 -16q-68 0 -92 41t-24 92q0 14 1 27.5t3 27.5q-55 -78 -125 -135q-33 -27 -62.5 -36t-56.5 -9q-66 2 -90 47q-14 -39 -35.5 -94.5 t-38 -109.5t-18.5 -91q-20 -8 -67 -25.5t-70 -27.5z" />
<glyph unicode="&#xb6;" horiz-adv-x="702" d="M57 879q0 78 38 140t108 95q39 16 83 20.5t85 4.5h301v-88h-35v-1051h-117v1051h-86v-1051h-115v633q-119 0 -190.5 61.5t-71.5 184.5z" />
<glyph unicode="&#xb7;" horiz-adv-x="452" d="M244 412q0 31 22.5 51t50.5 20q23 0 36.5 -13t13.5 -36q0 -29 -21.5 -50.5t-50.5 -23.5q-20 0 -35.5 14.5t-15.5 37.5z" />
<glyph unicode="&#xb8;" horiz-adv-x="389" d="M27 -469q0 8 6 10t8 4q33 10 65.5 11.5t60.5 7.5t44 28.5t16 73.5q0 27 -22.5 56.5t-45 63.5t-22.5 67q0 53 32 102t91 49q18 0 21 -12q-39 -8 -59.5 -41t-20.5 -70q0 -25 24.5 -53.5t50 -63t25.5 -79.5q0 -59 -44 -98.5t-104.5 -56.5t-111.5 -17q-14 0 -14 18z" />
<glyph unicode="&#xb9;" horiz-adv-x="636" d="M86 694q0 18 12 19h68q59 0 92 73l231 514l-176 -135q-10 -8 -29.5 -17t-45.5 -9l262 217h82l-254 -574q-16 -37 -17 -49q0 -20 37 -20h72q6 0 6 -8q0 -4 -4 -11.5t-10 -7.5h-320q-6 0 -6 8z" />
<glyph unicode="&#xba;" horiz-adv-x="712" d="M117 731q0 16 2 34.5t6 39.5q8 35 21.5 68.5t27.5 60.5q43 78 106.5 137t151.5 59q84 0 118 -47t34 -114v-27.5t-4 -30.5q-8 -59 -41 -120l8 -11q18 -20 45 -20q29 0 57 22q27 23 47.5 55.5t30.5 57.5q12 27 25 27q2 0 2 -4q0 -6 -6 -23q-14 -31 -36 -70t-53 -63 q-39 -25 -73 -25q-33 4 -51 23l-9 8q-10 -20 -22 -37.5t-23 -34.5q-20 -27 -44.5 -50.5t-53.5 -41.5q-59 -35 -119 -35q-59 0 -103 39t-44 123zM195 692q0 -51 20 -77.5t51 -26.5q41 0 91.5 29.5t88.5 74.5q20 23 36 48.5t28 52.5v2h2l12 28l4 -14q14 18 23.5 52t15.5 61 q6 29 6 45t-4 27.5t-8 19.5l-6 6q-8 37 -30.5 58.5t-65.5 21.5t-86 -42t-77 -93.5t-50 -83.5q-27 -59 -39 -106.5t-12 -82.5zM475 891q0 29 10 65q10 31 33 54.5t37 9.5q2 -8 3 -19.5t1 -23.5q0 -57 -22 -121l-13 -33q-2 8 -3 16.5t-1 16.5q0 14 -6 14q-12 0 -12 -24v-10 q0 -10 3 -20.5t5 -20.5q-14 4 -24.5 31.5t-10.5 64.5z" />
<glyph unicode="&#xbb;" horiz-adv-x="851" d="M175 145.5q-3 10.5 5 16.5l299 280l-219 201q-2 2 -2 6q0 6 9 13.5t18 3.5l270 -183q12 -6 12 -22q0 -25 -30 -49l-344 -275q-2 -2 -7 -2q-8 0 -11 10.5zM460 174q-3 10 5 16l297 281l-217 201q-2 2 -2 6q0 6 9 13t15 3l273 -180q12 -6 12 -20q0 -27 -33 -54l-342 -272 q-4 -4 -6 -4q-8 0 -11 10z" />
<glyph unicode="&#xbc;" horiz-adv-x="1337" d="M23 -63l1196 1562h55l-1196 -1562h-55zM106 834q0 18 15 18h65q59 0 93 74l231 514l-176 -135q-10 -8 -29.5 -17.5t-46.5 -9.5l262 217h82l-254 -573q-16 -37 -16 -50q0 -20 37 -20h71q6 0 6 -8q0 -18 -12 -19h-321q-6 0 -7 9zM647 242q0 12 66 65l436 373q8 8 17.5 15 t32 12.5t73.5 5.5l-195 -434h111q-12 -20 -36 -33t-40 -13h-51l-60 -135q-16 -39 -16 -55q0 -20 37 -20h76q8 0 8 -9q0 -6 -4 -13t-8 -7h-346q-6 0 -7 10q0 18 13 19h73q35 0 57.5 20t39.5 59l59 131h-268h-48.5t-19.5 9zM733 279h271l170 374z" />
<glyph unicode="&#xbd;" horiz-adv-x="1316" d="M23 -63l1196 1562h55l-1196 -1562h-55zM86 834q0 18 12 18h68q59 0 92 74l231 514l-176 -135q-10 -8 -29.5 -17.5t-45.5 -9.5l262 217h82l-254 -573q-16 -37 -17 -50q0 -20 37 -20h72q6 0 6 -8q0 -4 -4 -11.5t-10 -7.5h-320q-6 0 -6 9zM627 37q0 18 11 38.5t19 28.5 q18 25 52 50.5t67 46.5q51 31 112.5 59.5t119 63t94.5 82.5q23 29 38 64.5t15 80.5q0 59 -42 86t-91 27q-25 0 -50.5 -7.5t-49.5 -17.5q-74 -43 -91 -125q0 -4 -1 -9t-1 -9q0 -35 17 -58h1t1 -2h-4h-8.5t-10.5 2q-20 6 -32.5 32t-10.5 46q6 53 43 88t84 55q29 12 63 18.5 t66 8.5q51 0 99.5 -13.5t79 -42t30.5 -79.5q0 -55 -24.5 -99t-65.5 -79q-47 -41 -113.5 -74t-134 -62.5t-123.5 -64.5q-14 -8 -41.5 -29.5t-27.5 -40.5q0 -18 31 -26q49 -12 85.5 -20.5t94.5 -8.5q31 0 71.5 9.5t76.5 31t48 57.5q4 12 4 23q0 25 -20 39q-8 14 8 10 q8 0 14 -8q41 -29 35 -86q-8 -72 -65.5 -96.5t-122.5 -24.5q-39 0 -75 5t-64 11q-27 6 -60 14.5t-63 8.5q-29 0 -47 -8q-8 -2 -16.5 -8.5t-10.5 -12.5q-14 6 -14 25z" />
<glyph unicode="&#xbe;" horiz-adv-x="1316" d="M23 -63l1196 1562h55l-1196 -1562h-55zM45 893q0 10 4 27q4 12 17.5 29.5t39.5 15.5q-2 -8 -5 -19.5t-3 -21.5q-8 -55 42 -82t108 -27q66 0 127 31t101 85t40 128q0 72 -51 97.5t-111 25.5q-18 0 -46.5 -1t-45.5 -1q-16 0 -16 10q0 6 9 13t28 7q29 0 68.5 2t74.5 15 q47 16 89 60t42 99q0 39 -28.5 63t-82.5 24q-88 0 -147 -58q-37 -37 -37 -78q0 -10 4 -22q-51 -2 -51 43q0 18 10 39q20 37 61.5 57.5t87.5 30.5t85 10q53 0 104 -17.5t68 -64.5q4 -8 4 -15v-18v-17t-4 -20q-8 -37 -40 -65.5t-70 -48t-68 -27.5q84 -8 117.5 -50t33.5 -91 q0 -47 -22 -88q-45 -88 -140.5 -132t-197.5 -44q-27 0 -52.5 2t-50.5 8q-45 10 -70.5 31.5t-25.5 54.5zM647 242q0 12 66 65l436 373q8 8 17.5 15t32 12.5t73.5 5.5l-195 -434h111q-12 -20 -36 -33t-40 -13h-51l-60 -135q-16 -39 -16 -55q0 -20 37 -20h76q8 0 8 -9 q0 -6 -4 -13t-8 -7h-346q-6 0 -7 10q0 18 13 19h73q35 0 57.5 20t39.5 59l59 131h-268h-48.5t-19.5 9zM733 279h271l170 374z" />
<glyph unicode="&#xbf;" horiz-adv-x="759" d="M-80 -301q0 82 45 142.5t115 106.5t145.5 86t136.5 81q51 37 93.5 69.5t66 76.5t19.5 110q16 25 36.5 27.5t28.5 -1.5q23 -14 23 -43q0 -47 -54 -100q-51 -51 -120.5 -101.5t-142 -102.5t-135 -107.5t-101.5 -119t-39 -134.5q0 -82 51 -130t139 -48q139 0 229.5 70.5 t90.5 195.5q0 18 -2 35.5t-8 29.5q0 2 -1 2h-1q0 4 9 6.5t15 -2.5q29 -10 41 -36.5t12 -61.5q0 -72 -36.5 -122t-96 -80.5t-127.5 -45t-129 -14.5q-82 0 -150.5 20.5t-110.5 67.5t-42 123zM604 614q0 31 22.5 51.5t51.5 20.5q23 0 36 -15.5t13 -35.5q0 -31 -23.5 -51.5 t-52.5 -20.5q-20 0 -33.5 15.5t-13.5 35.5z" />
<glyph unicode="&#xc0;" d="M-61 12q0 55 34 101q8 8 15.5 11t7.5 -9q6 -100 70.5 -144.5t152.5 -44.5q84 0 173 35t159 94q90 80 167 184.5t146 211.5q25 41 51.5 81.5t53.5 79.5h-510q-4 0 -4 4q0 10 15 25.5t26 15.5h501q90 133 186.5 261.5t194.5 234.5q121 127 253 204t239 83q57 4 103 -5.5 t75 -33.5q27 -20 39 -51t12 -64q0 -8 -1 -16t-3 -19q-6 -33 -24 -53q-8 -8 -17 -8q-14 0 -2 18q18 25 19 60q0 18 -7 32q-14 39 -54 58.5t-93 19.5q-115 0 -242 -82q-92 -59 -187 -158.5t-190.5 -222t-189.5 -258.5h301q18 37 37.5 74t40.5 74q76 137 156.5 263t144.5 228 q6 10 12 11q8 0 10 -8.5t-4 -14.5q-94 -143 -164.5 -303t-128.5 -324h101q4 0 4 -4q0 -8 -15.5 -24.5t-27.5 -16.5h-78q-18 -53 -44 -142t-45 -185.5t-19 -175.5q0 -74 23.5 -115t74.5 -41h12t12 2q35 6 71 39t71 78q49 63 90 135t61 110q10 16 17 17q8 0 8 -15q0 -8 -6 -20 q-29 -51 -73 -128t-97 -142q-39 -45 -82 -78t-90 -41q-12 -2 -23.5 -3t-23.5 -1q-59 0 -104.5 33.5t-61.5 113.5q-4 23 -6 47.5t-2 46.5q0 119 41.5 240t87.5 225h-316q-33 -45 -63.5 -93t-63.5 -95q-59 -86 -142 -181.5t-181.5 -180.5t-205.5 -142t-216 -65q-8 -2 -18.5 -2 h-20.5q-70 0 -133.5 24.5t-83.5 93.5q-6 18 -6 41zM1695 1714q0 13 12 26t27 13q6 0 13 -5q43 -33 96.5 -77.5t91.5 -70.5q7 -5 8 -12q0 -7 -6.5 -12t-11.5 -4l-220 124q-10 5 -10 18z" />
<glyph unicode="&#xc1;" d="M-61 12q0 55 34 101q8 8 15.5 11t7.5 -9q6 -100 70.5 -144.5t152.5 -44.5q84 0 173 35t159 94q90 80 167 184.5t146 211.5q25 41 51.5 81.5t53.5 79.5h-510q-4 0 -4 4q0 10 15 25.5t26 15.5h501q90 133 186.5 261.5t194.5 234.5q121 127 253 204t239 83q57 4 103 -5.5 t75 -33.5q27 -20 39 -51t12 -64q0 -8 -1 -16t-3 -19q-6 -33 -24 -53q-8 -8 -17 -8q-14 0 -2 18q18 25 19 60q0 18 -7 32q-14 39 -54 58.5t-93 19.5q-115 0 -242 -82q-92 -59 -187 -158.5t-190.5 -222t-189.5 -258.5h301q18 37 37.5 74t40.5 74q76 137 156.5 263t144.5 228 q6 10 12 11q8 0 10 -8.5t-4 -14.5q-94 -143 -164.5 -303t-128.5 -324h101q4 0 4 -4q0 -8 -15.5 -24.5t-27.5 -16.5h-78q-18 -53 -44 -142t-45 -185.5t-19 -175.5q0 -74 23.5 -115t74.5 -41h12t12 2q35 6 71 39t71 78q49 63 90 135t61 110q10 16 17 17q8 0 8 -15q0 -8 -6 -20 q-29 -51 -73 -128t-97 -142q-39 -45 -82 -78t-90 -41q-12 -2 -23.5 -3t-23.5 -1q-59 0 -104.5 33.5t-61.5 113.5q-4 23 -6 47.5t-2 46.5q0 119 41.5 240t87.5 225h-316q-33 -45 -63.5 -93t-63.5 -95q-59 -86 -142 -181.5t-181.5 -180.5t-205.5 -142t-216 -65q-8 -2 -18.5 -2 h-20.5q-70 0 -133.5 24.5t-83.5 93.5q-6 18 -6 41zM1841 1596q0 7 8 12q40 26 92 70.5t95 77.5q9 5 14 5q14 0 26 -13t12 -26q0 -12 -10 -18l-219 -124h-4q-13 0 -14 16z" />
<glyph unicode="&#xc2;" d="M-61 12q0 55 34 101q8 8 15.5 11t7.5 -9q6 -100 70.5 -144.5t152.5 -44.5q84 0 173 35t159 94q90 80 167 184.5t146 211.5q25 41 51.5 81.5t53.5 79.5h-510q-4 0 -4 4q0 10 15 25.5t26 15.5h501q90 133 186.5 261.5t194.5 234.5q121 127 253 204t239 83q57 4 103 -5.5 t75 -33.5q27 -20 39 -51t12 -64q0 -8 -1 -16t-3 -19q-6 -33 -24 -53q-8 -8 -17 -8q-14 0 -2 18q18 25 19 60q0 18 -7 32q-14 39 -54 58.5t-93 19.5q-115 0 -242 -82q-92 -59 -187 -158.5t-190.5 -222t-189.5 -258.5h301q18 37 37.5 74t40.5 74q76 137 156.5 263t144.5 228 q6 10 12 11q8 0 10 -8.5t-4 -14.5q-94 -143 -164.5 -303t-128.5 -324h101q4 0 4 -4q0 -8 -15.5 -24.5t-27.5 -16.5h-78q-18 -53 -44 -142t-45 -185.5t-19 -175.5q0 -74 23.5 -115t74.5 -41h12t12 2q35 6 71 39t71 78q49 63 90 135t61 110q10 16 17 17q8 0 8 -15q0 -8 -6 -20 q-29 -51 -73 -128t-97 -142q-39 -45 -82 -78t-90 -41q-12 -2 -23.5 -3t-23.5 -1q-59 0 -104.5 33.5t-61.5 113.5q-4 23 -6 47.5t-2 46.5q0 119 41.5 240t87.5 225h-316q-33 -45 -63.5 -93t-63.5 -95q-59 -86 -142 -181.5t-181.5 -180.5t-205.5 -142t-216 -65q-8 -2 -18.5 -2 h-20.5q-70 0 -133.5 24.5t-83.5 93.5q-6 18 -6 41zM1702 1568.5q-5 5.5 3 9.5l261 179q29 21 46 20q10 0 13 -10l72 -184q2 -2 2 -5q-1 -6 -10 -10.5t-13 1.5l-101 143l-254 -147q-2 -2 -7 -2q-7 0 -12 5.5z" />
<glyph unicode="&#xc3;" d="M-61 12q0 55 34 101q8 8 15.5 11t7.5 -9q6 -100 70.5 -144.5t152.5 -44.5q84 0 173 35t159 94q90 80 167 184.5t146 211.5q25 41 51.5 81.5t53.5 79.5h-510q-4 0 -4 4q0 10 15 25.5t26 15.5h501q90 133 186.5 261.5t194.5 234.5q121 127 253 204t239 83q57 4 103 -5.5 t75 -33.5q27 -20 39 -51t12 -64q0 -8 -1 -16t-3 -19q-6 -33 -24 -53q-8 -8 -17 -8q-14 0 -2 18q18 25 19 60q0 18 -7 32q-14 39 -54 58.5t-93 19.5q-115 0 -242 -82q-92 -59 -187 -158.5t-190.5 -222t-189.5 -258.5h301q18 37 37.5 74t40.5 74q76 137 156.5 263t144.5 228 q6 10 12 11q8 0 10 -8.5t-4 -14.5q-94 -143 -164.5 -303t-128.5 -324h101q4 0 4 -4q0 -8 -15.5 -24.5t-27.5 -16.5h-78q-18 -53 -44 -142t-45 -185.5t-19 -175.5q0 -74 23.5 -115t74.5 -41h12t12 2q35 6 71 39t71 78q49 63 90 135t61 110q10 16 17 17q8 0 8 -15q0 -8 -6 -20 q-29 -51 -73 -128t-97 -142q-39 -45 -82 -78t-90 -41q-12 -2 -23.5 -3t-23.5 -1q-59 0 -104.5 33.5t-61.5 113.5q-4 23 -6 47.5t-2 46.5q0 119 41.5 240t87.5 225h-316q-33 -45 -63.5 -93t-63.5 -95q-59 -86 -142 -181.5t-181.5 -180.5t-205.5 -142t-216 -65q-8 -2 -18.5 -2 h-20.5q-70 0 -133.5 24.5t-83.5 93.5q-6 18 -6 41zM1724 1568q0 36 28.5 63.5t62.5 27.5q43 0 81.5 -19t89.5 -19q41 0 58 19t20 26h13q0 -38 -25 -68.5t-66 -30.5q-51 0 -89.5 19.5t-81.5 19.5q-34 0 -53.5 -12.5t-23.5 -25.5h-14z" />
<glyph unicode="&#xc4;" d="M-61 12q0 55 34 101q8 8 15.5 11t7.5 -9q6 -100 70.5 -144.5t152.5 -44.5q84 0 173 35t159 94q90 80 167 184.5t146 211.5q25 41 51.5 81.5t53.5 79.5h-510q-4 0 -4 4q0 10 15 25.5t26 15.5h501q90 133 186.5 261.5t194.5 234.5q121 127 253 204t239 83q57 4 103 -5.5 t75 -33.5q27 -20 39 -51t12 -64q0 -8 -1 -16t-3 -19q-6 -33 -24 -53q-8 -8 -17 -8q-14 0 -2 18q18 25 19 60q0 18 -7 32q-14 39 -54 58.5t-93 19.5q-115 0 -242 -82q-92 -59 -187 -158.5t-190.5 -222t-189.5 -258.5h301q18 37 37.5 74t40.5 74q76 137 156.5 263t144.5 228 q6 10 12 11q8 0 10 -8.5t-4 -14.5q-94 -143 -164.5 -303t-128.5 -324h101q4 0 4 -4q0 -8 -15.5 -24.5t-27.5 -16.5h-78q-18 -53 -44 -142t-45 -185.5t-19 -175.5q0 -74 23.5 -115t74.5 -41h12t12 2q35 6 71 39t71 78q49 63 90 135t61 110q10 16 17 17q8 0 8 -15q0 -8 -6 -20 q-29 -51 -73 -128t-97 -142q-39 -45 -82 -78t-90 -41q-12 -2 -23.5 -3t-23.5 -1q-59 0 -104.5 33.5t-61.5 113.5q-4 23 -6 47.5t-2 46.5q0 119 41.5 240t87.5 225h-316q-33 -45 -63.5 -93t-63.5 -95q-59 -86 -142 -181.5t-181.5 -180.5t-205.5 -142t-216 -65q-8 -2 -18.5 -2 h-20.5q-70 0 -133.5 24.5t-83.5 93.5q-6 18 -6 41zM1735 1632q0 29 22.5 49.5t49.5 22.5q23 0 38 -14.5t15 -36.5q0 -29 -23.5 -50.5t-52.5 -21.5q-20 0 -34.5 15.5t-14.5 35.5zM1970 1632q0 29 23 49.5t49 22.5q51 0 51 -49q0 -31 -23 -52.5t-52 -21.5q-20 0 -34 15.5 t-14 35.5z" />
<glyph unicode="&#xc5;" d="M-61 12q0 55 34 101q8 8 15.5 11t7.5 -9q6 -100 70.5 -144.5t152.5 -44.5q84 0 173 35t159 94q90 80 167 184.5t146 211.5q25 41 51.5 81.5t53.5 79.5h-510q-4 0 -4 4q0 10 15 25.5t26 15.5h501q90 133 186.5 261.5t194.5 234.5q121 127 253 204t239 83q57 4 103 -5.5 t75 -33.5q27 -20 39 -51t12 -64q0 -8 -1 -16t-3 -19q-6 -33 -24 -53q-8 -8 -17 -8q-14 0 -2 18q18 25 19 60q0 18 -7 32q-14 39 -54 58.5t-93 19.5q-115 0 -242 -82q-92 -59 -187 -158.5t-190.5 -222t-189.5 -258.5h301q18 37 37.5 74t40.5 74q76 137 156.5 263t144.5 228 q6 10 12 11q8 0 10 -8.5t-4 -14.5q-94 -143 -164.5 -303t-128.5 -324h101q4 0 4 -4q0 -8 -15.5 -24.5t-27.5 -16.5h-78q-18 -53 -44 -142t-45 -185.5t-19 -175.5q0 -74 23.5 -115t74.5 -41h12t12 2q35 6 71 39t71 78q49 63 90 135t61 110q10 16 17 17q8 0 8 -15q0 -8 -6 -20 q-29 -51 -73 -128t-97 -142q-39 -45 -82 -78t-90 -41q-12 -2 -23.5 -3t-23.5 -1q-59 0 -104.5 33.5t-61.5 113.5q-4 23 -6 47.5t-2 46.5q0 119 41.5 240t87.5 225h-316q-33 -45 -63.5 -93t-63.5 -95q-59 -86 -142 -181.5t-181.5 -180.5t-205.5 -142t-216 -65q-8 -2 -18.5 -2 h-20.5q-70 0 -133.5 24.5t-83.5 93.5q-6 18 -6 41zM1694 1665q0 61 47 117.5t125 56.5q47 0 74.5 -20.5t42.5 -46.5q2 -10 4 -23.5t2 -27.5q0 -61 -47 -114.5t-125 -53.5q-45 0 -74 20.5t-41 46.5q-8 18 -8 45zM1749 1675q0 -31 13 -55q8 -18 24 -31.5t43 -13.5q55 2 81 50 t26 87q0 33 -13 58q-8 20 -21 32.5t-42 12.5q-45 0 -69.5 -31t-35.5 -66q-6 -14 -6 -43z" />
<glyph unicode="&#xc6;" horiz-adv-x="2646" d="M-61 12q0 55 34 101q8 8 15.5 11t7.5 -9q6 -100 70.5 -144.5t152.5 -44.5q84 0 173 35t159 94q90 80 167 184.5t146 211.5q25 41 51.5 81.5t53.5 79.5h-510q-4 0 -4 4q0 10 15 25.5t26 15.5h501q90 135 186.5 263.5t194.5 232.5q121 127 253 204t239 83q57 4 103 -5.5 t75 -33.5q41 -31 47 -84q84 51 178 77.5t187 26.5q49 0 99 -7t93 -28q53 -23 75.5 -57.5t22.5 -73.5q0 -41 -25.5 -83t-72.5 -72q-31 -20 -83 -34.5t-103 -14.5q-72 0 -113 30q-8 8 -8 15q0 6 6 9t10 1q49 -25 115 -25q41 0 82 11.5t74 31.5q35 25 56.5 59t21.5 66 q0 29 -17.5 56.5t-58.5 46.5q-33 16 -75 23t-81 7q-100 0 -205.5 -44t-177.5 -117q-51 -55 -91 -141.5t-40 -174.5q0 -25 4 -48t12 -46q57 20 117 29.5t111 9.5q76 0 109.5 -19.5t33.5 -54.5q0 -43 -49 -81t-139 -38q-12 0 -24.5 1t-24.5 4q-82 10 -129.5 33.5t-83.5 58.5 q-25 -12 -52.5 -24.5t-56.5 -37.5q-104 -88 -157.5 -203.5t-53.5 -222.5q0 -121 55.5 -194.5t144.5 -105.5t189 -32q117 0 225 35q127 41 244 127t180 223q12 25 17.5 48.5t5.5 44.5q0 53 -33 85.5t-94 32.5h-17.5t-19.5 -2q-84 -12 -135 -54t-79 -92t-42 -87 q-6 -12 -10 -12q-8 0 -8 20q0 6 1 13.5t3 15.5q8 25 36.5 73t85 93t140.5 61q29 6 53 6q80 0 131 -46t51 -118q0 -41 -22 -96q-45 -102 -128 -182t-188.5 -134.5t-219 -82t-222.5 -27.5q-20 0 -39.5 1t-38.5 3q-139 14 -226 70.5t-127 137.5t-40 167v23.5t2 23.5 q6 51 31.5 132t71.5 175h-484q-33 -45 -64.5 -93t-64.5 -95q-59 -86 -142 -181.5t-181.5 -180.5t-205.5 -142t-216 -65q-8 -2 -18.5 -2h-20.5q-70 0 -133.5 24.5t-83.5 93.5q-6 18 -6 41zM1108 657h471q57 119 132 243t162 236.5t175 192.5q-43 49 -131 49q-115 0 -242 -82 q-90 -59 -185 -158.5t-191.5 -222.5t-190.5 -258zM1700 690q20 14 42.5 26.5t43.5 22.5q29 12 58.5 23.5t43.5 13.5q-23 43 -31 89t-6 91q-41 -61 -78.5 -128.5t-72.5 -137.5zM1991 793q35 -51 96 -74t104 -23q41 0 72 13q51 18 51 55q0 23 -26.5 41t-81.5 18 q-59 0 -113.5 -8t-101.5 -22z" />
<glyph unicode="&#xc7;" horiz-adv-x="1417" d="M141 375v32.5t2 32.5q12 131 75 270.5t170.5 266.5t253.5 227.5t324.5 159.5t383.5 59q135 0 199.5 -49t64.5 -114q0 -51 -39 -105.5t-113 -95.5q-82 -45 -179 -70.5t-187 -37t-150 -17.5h-2q-6 0 -6 6q0 10 14 12q135 14 264.5 54.5t221.5 95.5q51 31 81.5 76t30.5 90 q0 51 -50 89t-167 38q-178 0 -332.5 -58.5t-280.5 -158t-219 -225.5t-147.5 -262t-66.5 -265q-2 -20 -3 -38.5t-1 -37.5q0 -158 59 -256t157.5 -142t215.5 -44q121 0 243.5 41t229 113.5t175.5 171t77 210.5q8 84 -44.5 134.5t-172.5 39.5q-162 -14 -295 -82.5 t-226.5 -158.5t-138.5 -176q-2 -6 -10 -6q-18 0 -12 16q47 88 143 182t233.5 165t305.5 85q14 2 26.5 2h26.5q133 0 192.5 -58.5t51.5 -146.5q-10 -123 -87 -225t-197 -176t-261 -114t-281 -40q-147 0 -273 50.5t-203 158t-77 281.5zM498 -571q0 8 6 10t8 4q33 10 65.5 11.5 t60.5 7.5t44 28.5t16 73.5q0 27 -22.5 56.5t-45 63.5t-22.5 67q0 53 32 102t91 49q18 0 21 -12q-39 -8 -59.5 -41t-20.5 -70q0 -25 24.5 -53.5t50 -63t25.5 -79.5q0 -59 -44 -98.5t-104.5 -56.5t-111.5 -17q-14 0 -14 18z" />
<glyph unicode="&#xc8;" horiz-adv-x="1216" d="M35 256q0 12 1 24.5t3 24.5q18 133 103 252t227 182q29 12 58.5 23.5t41.5 13.5q-37 74 -37 152q0 66 23.5 129t62.5 117q59 78 145.5 133t184.5 84.5t194 29.5q49 0 99.5 -7t93.5 -28q51 -23 74.5 -57.5t23.5 -73.5q0 -90 -98 -155q-31 -20 -83 -34.5t-103 -14.5 q-72 0 -113 30q-8 8 -8 15q0 6 6 9t8 1q53 -25 115 -25q92 0 155 43q80 53 80 125q0 31 -17.5 57.5t-57.5 45.5q-33 16 -75 23t-81 7q-100 0 -205.5 -44t-177.5 -117q-51 -55 -92 -141.5t-41 -172.5q0 -49 18 -96q57 20 115.5 29.5t112.5 9.5q143 0 143 -74q0 -43 -49 -81 t-140 -38q-12 0 -24 1t-25 4q-82 10 -129 33.5t-84 58.5q-25 -12 -51 -25.5t-55 -36.5q-106 -90 -159.5 -204.5t-53.5 -221.5q0 -121 55 -194.5t144.5 -105.5t189.5 -32q117 0 225 35q127 41 244 127t180 223q23 51 23 93q0 53 -35 85.5t-96 32.5h-15.5t-17.5 -2 q-84 -12 -136.5 -55t-79 -92t-40.5 -86q-6 -12 -10 -12q-8 0 -9 20q0 6 1 13.5t4 15.5q8 25 36.5 73t84 93t139.5 61q29 6 53 6q82 0 133 -46t51 -118q0 -41 -22 -96q-45 -102 -128 -182t-188.5 -134.5t-220.5 -82t-223 -27.5q-20 0 -40 1t-38 3q-137 14 -224 69.5 t-128 136.5t-41 167zM573 793q31 -51 93.5 -74t107.5 -23q39 0 70 13q53 18 53 57q0 23 -26.5 40t-82.5 17q-61 0 -114 -8t-101 -22zM836 1687q0 13 12 26t27 13q6 0 13 -5q43 -33 96.5 -77.5t91.5 -70.5q7 -5 8 -12q0 -7 -6.5 -12t-11.5 -4l-220 124q-10 5 -10 18z" />
<glyph unicode="&#xc9;" horiz-adv-x="1216" d="M35 256q0 12 1 24.5t3 24.5q18 133 103 252t227 182q29 12 58.5 23.5t41.5 13.5q-37 74 -37 152q0 66 23.5 129t62.5 117q59 78 145.5 133t184.5 84.5t194 29.5q49 0 99.5 -7t93.5 -28q51 -23 74.5 -57.5t23.5 -73.5q0 -90 -98 -155q-31 -20 -83 -34.5t-103 -14.5 q-72 0 -113 30q-8 8 -8 15q0 6 6 9t8 1q53 -25 115 -25q92 0 155 43q80 53 80 125q0 31 -17.5 57.5t-57.5 45.5q-33 16 -75 23t-81 7q-100 0 -205.5 -44t-177.5 -117q-51 -55 -92 -141.5t-41 -172.5q0 -49 18 -96q57 20 115.5 29.5t112.5 9.5q143 0 143 -74q0 -43 -49 -81 t-140 -38q-12 0 -24 1t-25 4q-82 10 -129 33.5t-84 58.5q-25 -12 -51 -25.5t-55 -36.5q-106 -90 -159.5 -204.5t-53.5 -221.5q0 -121 55 -194.5t144.5 -105.5t189.5 -32q117 0 225 35q127 41 244 127t180 223q23 51 23 93q0 53 -35 85.5t-96 32.5h-15.5t-17.5 -2 q-84 -12 -136.5 -55t-79 -92t-40.5 -86q-6 -12 -10 -12q-8 0 -9 20q0 6 1 13.5t4 15.5q8 25 36.5 73t84 93t139.5 61q29 6 53 6q82 0 133 -46t51 -118q0 -41 -22 -96q-45 -102 -128 -182t-188.5 -134.5t-220.5 -82t-223 -27.5q-20 0 -40 1t-38 3q-137 14 -224 69.5 t-128 136.5t-41 167zM573 793q31 -51 93.5 -74t107.5 -23q39 0 70 13q53 18 53 57q0 23 -26.5 40t-82.5 17q-61 0 -114 -8t-101 -22zM983 1570q0 7 8 12q40 26 92 70.5t95 77.5q9 5 14 5q14 0 26 -13t12 -26q0 -12 -10 -18l-219 -124h-4q-13 0 -14 16z" />
<glyph unicode="&#xca;" horiz-adv-x="1216" d="M35 256q0 12 1 24.5t3 24.5q18 133 103 252t227 182q29 12 58.5 23.5t41.5 13.5q-37 74 -37 152q0 66 23.5 129t62.5 117q59 78 145.5 133t184.5 84.5t194 29.5q49 0 99.5 -7t93.5 -28q51 -23 74.5 -57.5t23.5 -73.5q0 -90 -98 -155q-31 -20 -83 -34.5t-103 -14.5 q-72 0 -113 30q-8 8 -8 15q0 6 6 9t8 1q53 -25 115 -25q92 0 155 43q80 53 80 125q0 31 -17.5 57.5t-57.5 45.5q-33 16 -75 23t-81 7q-100 0 -205.5 -44t-177.5 -117q-51 -55 -92 -141.5t-41 -172.5q0 -49 18 -96q57 20 115.5 29.5t112.5 9.5q143 0 143 -74q0 -43 -49 -81 t-140 -38q-12 0 -24 1t-25 4q-82 10 -129 33.5t-84 58.5q-25 -12 -51 -25.5t-55 -36.5q-106 -90 -159.5 -204.5t-53.5 -221.5q0 -121 55 -194.5t144.5 -105.5t189.5 -32q117 0 225 35q127 41 244 127t180 223q23 51 23 93q0 53 -35 85.5t-96 32.5h-15.5t-17.5 -2 q-84 -12 -136.5 -55t-79 -92t-40.5 -86q-6 -12 -10 -12q-8 0 -9 20q0 6 1 13.5t4 15.5q8 25 36.5 73t84 93t139.5 61q29 6 53 6q82 0 133 -46t51 -118q0 -41 -22 -96q-45 -102 -128 -182t-188.5 -134.5t-220.5 -82t-223 -27.5q-20 0 -40 1t-38 3q-137 14 -224 69.5 t-128 136.5t-41 167zM573 793q31 -51 93.5 -74t107.5 -23q39 0 70 13q53 18 53 57q0 23 -26.5 40t-82.5 17q-61 0 -114 -8t-101 -22zM844 1541.5q-5 5.5 3 9.5l261 179q29 21 46 20q10 0 13 -10l72 -184q2 -2 2 -5q-1 -6 -10 -10.5t-13 1.5l-101 143l-254 -147q-2 -2 -7 -2 q-7 0 -12 5.5z" />
<glyph unicode="&#xcb;" horiz-adv-x="1216" d="M35 256q0 12 1 24.5t3 24.5q18 133 103 252t227 182q29 12 58.5 23.5t41.5 13.5q-37 74 -37 152q0 66 23.5 129t62.5 117q59 78 145.5 133t184.5 84.5t194 29.5q49 0 99.5 -7t93.5 -28q51 -23 74.5 -57.5t23.5 -73.5q0 -90 -98 -155q-31 -20 -83 -34.5t-103 -14.5 q-72 0 -113 30q-8 8 -8 15q0 6 6 9t8 1q53 -25 115 -25q92 0 155 43q80 53 80 125q0 31 -17.5 57.5t-57.5 45.5q-33 16 -75 23t-81 7q-100 0 -205.5 -44t-177.5 -117q-51 -55 -92 -141.5t-41 -172.5q0 -49 18 -96q57 20 115.5 29.5t112.5 9.5q143 0 143 -74q0 -43 -49 -81 t-140 -38q-12 0 -24 1t-25 4q-82 10 -129 33.5t-84 58.5q-25 -12 -51 -25.5t-55 -36.5q-106 -90 -159.5 -204.5t-53.5 -221.5q0 -121 55 -194.5t144.5 -105.5t189.5 -32q117 0 225 35q127 41 244 127t180 223q23 51 23 93q0 53 -35 85.5t-96 32.5h-15.5t-17.5 -2 q-84 -12 -136.5 -55t-79 -92t-40.5 -86q-6 -12 -10 -12q-8 0 -9 20q0 6 1 13.5t4 15.5q8 25 36.5 73t84 93t139.5 61q29 6 53 6q82 0 133 -46t51 -118q0 -41 -22 -96q-45 -102 -128 -182t-188.5 -134.5t-220.5 -82t-223 -27.5q-20 0 -40 1t-38 3q-137 14 -224 69.5 t-128 136.5t-41 167zM573 793q31 -51 93.5 -74t107.5 -23q39 0 70 13q53 18 53 57q0 23 -26.5 40t-82.5 17q-61 0 -114 -8t-101 -22zM877 1605q0 29 22.5 49.5t49.5 22.5q23 0 38 -14.5t15 -36.5q0 -29 -23.5 -50.5t-52.5 -21.5q-20 0 -34.5 15.5t-14.5 35.5zM1112 1605 q0 29 23 49.5t49 22.5q51 0 51 -49q0 -31 -23 -52.5t-52 -21.5q-20 0 -34 15.5t-14 35.5z" />
<glyph unicode="&#xcc;" horiz-adv-x="698" d="M-225 -98q0 23 10 35q10 8 17.5 9t4.5 -9q-6 -31 28 -57.5t63 -35.5q31 -6 61 -6q63 0 115 19q72 25 145.5 101.5t134.5 170.5q66 100 131.5 232.5t136 275.5t150.5 270q72 113 150.5 202t173.5 138q63 33 127 33q-63 27 -149.5 45t-145.5 18q-88 0 -177 -24.5 t-167 -71.5q-86 -47 -163 -129t-124 -180t-47 -201q0 -43 13 -77.5t46 -57.5q33 -20 78 -20q39 0 72 12q4 2 12 2q10 0 10 -6q0 -12 -22 -21q-41 -20 -97 -20q-61 0 -112 26q-55 29 -76.5 84.5t-21.5 114.5q0 121 59 225.5t152.5 184.5t197.5 123q90 39 184.5 55t184.5 16 q88 0 187.5 -25.5t168.5 -78.5q8 -6 8 -12t-7 -8.5t-15 1.5q-20 6 -43 7q-57 0 -113.5 -38t-107 -97.5t-91 -126t-69.5 -123.5q-55 -104 -106.5 -228.5t-109 -250.5t-131 -240.5t-173 -202.5t-232.5 -135q-68 -23 -151 -23q-35 0 -65.5 5.5t-53.5 17.5q-25 12 -38 35.5 t-13 46.5zM986 1610q0 13 12 26t27 13q6 0 13 -5q43 -33 96.5 -77.5t91.5 -70.5q7 -5 8 -12q0 -7 -6.5 -12t-11.5 -4l-220 124q-10 5 -10 18z" />
<glyph unicode="&#xcd;" horiz-adv-x="698" d="M-225 -98q0 23 10 35q10 8 17.5 9t4.5 -9q-6 -31 28 -57.5t63 -35.5q31 -6 61 -6q63 0 115 19q72 25 145.5 101.5t134.5 170.5q66 100 131.5 232.5t136 275.5t150.5 270q72 113 150.5 202t173.5 138q63 33 127 33q-63 27 -149.5 45t-145.5 18q-88 0 -177 -24.5 t-167 -71.5q-86 -47 -163 -129t-124 -180t-47 -201q0 -43 13 -77.5t46 -57.5q33 -20 78 -20q39 0 72 12q4 2 12 2q10 0 10 -6q0 -12 -22 -21q-41 -20 -97 -20q-61 0 -112 26q-55 29 -76.5 84.5t-21.5 114.5q0 121 59 225.5t152.5 184.5t197.5 123q90 39 184.5 55t184.5 16 q88 0 187.5 -25.5t168.5 -78.5q8 -6 8 -12t-7 -8.5t-15 1.5q-20 6 -43 7q-57 0 -113.5 -38t-107 -97.5t-91 -126t-69.5 -123.5q-55 -104 -106.5 -228.5t-109 -250.5t-131 -240.5t-173 -202.5t-232.5 -135q-68 -23 -151 -23q-35 0 -65.5 5.5t-53.5 17.5q-25 12 -38 35.5 t-13 46.5zM1133 1492q0 7 8 12q40 26 92 70.5t95 77.5q9 5 14 5q14 0 26 -13t12 -26q0 -12 -10 -18l-219 -124h-4q-13 0 -14 16z" />
<glyph unicode="&#xce;" horiz-adv-x="698" d="M-225 -98q0 23 10 35q10 8 17.5 9t4.5 -9q-6 -31 28 -57.5t63 -35.5q31 -6 61 -6q63 0 115 19q72 25 145.5 101.5t134.5 170.5q66 100 131.5 232.5t136 275.5t150.5 270q72 113 150.5 202t173.5 138q63 33 127 33q-63 27 -149.5 45t-145.5 18q-88 0 -177 -24.5 t-167 -71.5q-86 -47 -163 -129t-124 -180t-47 -201q0 -43 13 -77.5t46 -57.5q33 -20 78 -20q39 0 72 12q4 2 12 2q10 0 10 -6q0 -12 -22 -21q-41 -20 -97 -20q-61 0 -112 26q-55 29 -76.5 84.5t-21.5 114.5q0 121 59 225.5t152.5 184.5t197.5 123q90 39 184.5 55t184.5 16 q88 0 187.5 -25.5t168.5 -78.5q8 -6 8 -12t-7 -8.5t-15 1.5q-20 6 -43 7q-57 0 -113.5 -38t-107 -97.5t-91 -126t-69.5 -123.5q-55 -104 -106.5 -228.5t-109 -250.5t-131 -240.5t-173 -202.5t-232.5 -135q-68 -23 -151 -23q-35 0 -65.5 5.5t-53.5 17.5q-25 12 -38 35.5 t-13 46.5zM994 1464.5q-5 5.5 3 9.5l261 179q29 21 46 20q10 0 13 -10l72 -184q2 -2 2 -5q-1 -6 -10 -10.5t-13 1.5l-101 143l-254 -147q-2 -2 -7 -2q-7 0 -12 5.5z" />
<glyph unicode="&#xcf;" horiz-adv-x="698" d="M-225 -98q0 23 10 35q10 8 17.5 9t4.5 -9q-6 -31 28 -57.5t63 -35.5q31 -6 61 -6q63 0 115 19q72 25 145.5 101.5t134.5 170.5q66 100 131.5 232.5t136 275.5t150.5 270q72 113 150.5 202t173.5 138q63 33 127 33q-63 27 -149.5 45t-145.5 18q-88 0 -177 -24.5 t-167 -71.5q-86 -47 -163 -129t-124 -180t-47 -201q0 -43 13 -77.5t46 -57.5q33 -20 78 -20q39 0 72 12q4 2 12 2q10 0 10 -6q0 -12 -22 -21q-41 -20 -97 -20q-61 0 -112 26q-55 29 -76.5 84.5t-21.5 114.5q0 121 59 225.5t152.5 184.5t197.5 123q90 39 184.5 55t184.5 16 q88 0 187.5 -25.5t168.5 -78.5q8 -6 8 -12t-7 -8.5t-15 1.5q-20 6 -43 7q-57 0 -113.5 -38t-107 -97.5t-91 -126t-69.5 -123.5q-55 -104 -106.5 -228.5t-109 -250.5t-131 -240.5t-173 -202.5t-232.5 -135q-68 -23 -151 -23q-35 0 -65.5 5.5t-53.5 17.5q-25 12 -38 35.5 t-13 46.5zM1026 1528q0 29 22.5 49.5t49.5 22.5q23 0 38 -14.5t15 -36.5q0 -29 -23.5 -50.5t-52.5 -21.5q-20 0 -34.5 15.5t-14.5 35.5zM1261 1528q0 29 23 49.5t49 22.5q51 0 51 -49q0 -31 -23 -52.5t-52 -21.5q-20 0 -34 15.5t-14 35.5z" />
<glyph unicode="&#xd0;" horiz-adv-x="1771" d="M-25 -47q0 59 55.5 110.5t162.5 51.5q96 0 184 -37l104 -41q16 23 32.5 45t31.5 43q45 68 89 152.5t89 177.5h-170v41h190q70 141 147 281.5t168 253t204 169.5q66 35 124 35q33 0 60 -8q8 -2 5 -10.5t-11 -6.5q-8 4 -17.5 4h-19.5q-106 0 -223 -137 q-111 -129 -183.5 -279.5t-142.5 -301.5h145v-41h-163q-39 -88 -84 -172t-101 -162q-20 -31 -43.5 -59.5t-48.5 -55.5q29 -10 58.5 -19.5t60.5 -15.5q92 -18 188 -18q133 0 259 29.5t223 80.5q131 70 233 193t162.5 272.5t60.5 296.5t-69.5 277.5t-231.5 212.5 q-100 51 -222 74.5t-245 23.5q-174 0 -336.5 -56.5t-265.5 -152.5q-53 -51 -95 -137t-42 -170q0 -18 2 -36.5t8 -37.5q18 -57 70.5 -86.5t120.5 -29.5q51 0 106 18q2 0 3 1t3 1q4 0 4 -4q0 -10 -12 -14q-29 -8 -60.5 -14.5t-62.5 -6.5q-66 0 -127 23.5t-99 75t-38 131.5 q0 63 18.5 118.5t51.5 104.5q68 100 191.5 166.5t274 100.5t298.5 34q125 0 249.5 -23.5t237.5 -70.5q205 -88 296 -236.5t91 -316.5q0 -156 -68.5 -310.5t-190.5 -280.5t-284 -200q-100 -45 -218 -67.5t-238 -22.5q-70 0 -137.5 7t-133.5 22q-20 4 -51 15t-65 24 q-37 -33 -77 -65t-87 -54q-39 -18 -97.5 -32.5t-117.5 -14.5q-35 0 -66 6q-57 14 -87 51t-30 80zM25 -51q0 -33 21.5 -58.5t64.5 -35.5q25 -6 51 -7q49 0 100 16.5t84 37.5q33 23 60.5 51.5t54.5 58.5q-43 18 -92 35q-92 35 -160 35q-92 0 -138 -43t-46 -90z" />
<glyph unicode="&#xd1;" horiz-adv-x="1718" d="M41 -170q0 27 14 41q6 10 15.5 11t5.5 -9q-8 -31 20.5 -58.5t57.5 -35.5q33 -8 69 -8q84 0 152.5 42t125 106.5t101.5 129.5q104 154 189.5 316.5t170.5 324.5t191 311q35 49 86 112t112.5 120t127.5 90q-53 4 -141.5 7t-182.5 3h-81t-79 -4q-168 -10 -334.5 -63.5 t-285.5 -161.5q-70 -63 -115 -143t-45 -158q0 -88 48 -126t114 -38q51 0 102 18q100 35 166 124t57 200q-2 18 -9 36.5t-17 24.5q-8 6 -6 12.5t10 6.5q45 -4 61.5 -49t16.5 -86q0 -66 -32 -124.5t-83 -102.5t-113 -66q-63 -25 -135 -25q-94 0 -164.5 53.5t-70.5 174.5 q0 90 44 169.5t107 143.5q137 135 318.5 184t369.5 49q145 0 290 -10t288 -20q23 4 41 0q8 -2 18.5 -5.5t10.5 -13.5q0 -14 -24 -21t-52 -7h-4q-68 -23 -92.5 -107t-24.5 -190q0 -68 7 -137.5t18 -133.5q18 -106 52 -221t34 -242q0 -86 -24 -155.5t-71 -136.5q41 25 74 84 t58.5 126.5t41.5 114.5q35 100 76 225t89 258.5t103.5 260.5t116.5 233q84 145 183.5 211t185.5 66q111 0 170 -93q4 -4 4 -12q0 -12 -11 -15t-15 3q-35 63 -101 63q-57 0 -136 -59t-169 -193q-63 -94 -123.5 -211.5t-117 -243.5t-105.5 -247t-92 -223q-20 -49 -53 -121 t-75 -143.5t-91 -121.5t-105 -59h-2q-8 0 -11 6.5t3 14.5q53 55 72.5 136t19.5 173q0 84 -19.5 173t-42 180t-34.5 180q-4 37 -8 77.5t-4 81.5q0 78 16 155t57 142.5t117 106.5q-35 2 -78 -34t-83 -86t-71.5 -96t-45.5 -69q-98 -156 -179.5 -326t-165.5 -335.5t-194 -313.5 q-57 -80 -134 -151.5t-163 -114.5q-100 -47 -217 -47q-23 0 -63 6t-71.5 25.5t-31.5 60.5zM1609 1656q0 36 28.5 63.5t62.5 27.5q43 0 81.5 -19t89.5 -19q41 0 58 19t20 26h13q0 -38 -25 -68.5t-66 -30.5q-51 0 -89.5 19.5t-81.5 19.5q-34 0 -53.5 -12.5t-23.5 -25.5h-14z " />
<glyph unicode="&#xd2;" horiz-adv-x="1445" d="M27 319q0 121 34 242q41 141 119 274.5t184.5 248t234.5 200.5t269 131q135 41 252 41q37 0 71 -4t64 -12q78 -23 125 -71t47 -120q0 -20 -6 -45q59 -59 86 -143t27 -180q0 -63 -11.5 -129t-31.5 -131q-47 -150 -140.5 -287t-220 -245.5t-278 -172t-317.5 -63.5 q-160 0 -265.5 51t-163 136t-73.5 185q-6 47 -6 94zM166 297q0 -31 2 -62.5t8 -60.5q14 -78 56 -145.5t117 -107.5t188 -40l6 2q156 2 293 74t248.5 188.5t191.5 257t121 277.5q35 117 35 233q0 59 -11.5 116.5t-36.5 105.5q-20 -25 -43 -33q-14 -6 -20 -6q-8 0 -7 6t9 12 q25 20 37 60q-39 53 -100.5 83.5t-151.5 30.5q-88 0 -189.5 -41t-197.5 -119q-59 -49 -105.5 -118.5t-71 -140t-24.5 -124.5q0 -61 33 -79q16 -8 16 -19q0 -6 -8 -8t-18 2q-37 14 -54.5 50t-17.5 85q0 84 47 188.5t127 174.5q104 90 227 136t238 46q84 0 147.5 -20.5 t112.5 -53.5q-2 57 -42 94t-99 56q-59 16 -127 16q-45 0 -98.5 -8t-112.5 -27q-80 -25 -164 -83t-164 -139t-149.5 -173t-118.5 -186q-53 -98 -91 -232.5t-38 -267.5zM914 1722q0 13 12 26t27 13q6 0 13 -5q43 -33 96.5 -77.5t91.5 -70.5q7 -5 8 -12q0 -7 -6.5 -12t-11.5 -4 l-220 124q-10 5 -10 18z" />
<glyph unicode="&#xd3;" horiz-adv-x="1445" d="M27 319q0 121 34 242q41 141 119 274.5t184.5 248t234.5 200.5t269 131q135 41 252 41q37 0 71 -4t64 -12q78 -23 125 -71t47 -120q0 -20 -6 -45q59 -59 86 -143t27 -180q0 -63 -11.5 -129t-31.5 -131q-47 -150 -140.5 -287t-220 -245.5t-278 -172t-317.5 -63.5 q-160 0 -265.5 51t-163 136t-73.5 185q-6 47 -6 94zM166 297q0 -31 2 -62.5t8 -60.5q14 -78 56 -145.5t117 -107.5t188 -40l6 2q156 2 293 74t248.5 188.5t191.5 257t121 277.5q35 117 35 233q0 59 -11.5 116.5t-36.5 105.5q-20 -25 -43 -33q-14 -6 -20 -6q-8 0 -7 6t9 12 q25 20 37 60q-39 53 -100.5 83.5t-151.5 30.5q-88 0 -189.5 -41t-197.5 -119q-59 -49 -105.5 -118.5t-71 -140t-24.5 -124.5q0 -61 33 -79q16 -8 16 -19q0 -6 -8 -8t-18 2q-37 14 -54.5 50t-17.5 85q0 84 47 188.5t127 174.5q104 90 227 136t238 46q84 0 147.5 -20.5 t112.5 -53.5q-2 57 -42 94t-99 56q-59 16 -127 16q-45 0 -98.5 -8t-112.5 -27q-80 -25 -164 -83t-164 -139t-149.5 -173t-118.5 -186q-53 -98 -91 -232.5t-38 -267.5zM1061 1604q0 7 8 12q40 26 92 70.5t95 77.5q9 5 14 5q14 0 26 -13t12 -26q0 -12 -10 -18l-219 -124h-4 q-13 0 -14 16z" />
<glyph unicode="&#xd4;" horiz-adv-x="1445" d="M27 319q0 121 34 242q41 141 119 274.5t184.5 248t234.5 200.5t269 131q135 41 252 41q37 0 71 -4t64 -12q78 -23 125 -71t47 -120q0 -20 -6 -45q59 -59 86 -143t27 -180q0 -63 -11.5 -129t-31.5 -131q-47 -150 -140.5 -287t-220 -245.5t-278 -172t-317.5 -63.5 q-160 0 -265.5 51t-163 136t-73.5 185q-6 47 -6 94zM166 297q0 -31 2 -62.5t8 -60.5q14 -78 56 -145.5t117 -107.5t188 -40l6 2q156 2 293 74t248.5 188.5t191.5 257t121 277.5q35 117 35 233q0 59 -11.5 116.5t-36.5 105.5q-20 -25 -43 -33q-14 -6 -20 -6q-8 0 -7 6t9 12 q25 20 37 60q-39 53 -100.5 83.5t-151.5 30.5q-88 0 -189.5 -41t-197.5 -119q-59 -49 -105.5 -118.5t-71 -140t-24.5 -124.5q0 -61 33 -79q16 -8 16 -19q0 -6 -8 -8t-18 2q-37 14 -54.5 50t-17.5 85q0 84 47 188.5t127 174.5q104 90 227 136t238 46q84 0 147.5 -20.5 t112.5 -53.5q-2 57 -42 94t-99 56q-59 16 -127 16q-45 0 -98.5 -8t-112.5 -27q-80 -25 -164 -83t-164 -139t-149.5 -173t-118.5 -186q-53 -98 -91 -232.5t-38 -267.5zM922 1576.5q-5 5.5 3 9.5l261 179q29 21 46 20q10 0 13 -10l72 -184q2 -2 2 -5q-1 -6 -10 -10.5t-13 1.5 l-101 143l-254 -147q-2 -2 -7 -2q-7 0 -12 5.5z" />
<glyph unicode="&#xd5;" horiz-adv-x="1445" d="M27 319q0 121 34 242q41 141 119 274.5t184.5 248t234.5 200.5t269 131q135 41 252 41q37 0 71 -4t64 -12q78 -23 125 -71t47 -120q0 -20 -6 -45q59 -59 86 -143t27 -180q0 -63 -11.5 -129t-31.5 -131q-47 -150 -140.5 -287t-220 -245.5t-278 -172t-317.5 -63.5 q-160 0 -265.5 51t-163 136t-73.5 185q-6 47 -6 94zM166 297q0 -31 2 -62.5t8 -60.5q14 -78 56 -145.5t117 -107.5t188 -40l6 2q156 2 293 74t248.5 188.5t191.5 257t121 277.5q35 117 35 233q0 59 -11.5 116.5t-36.5 105.5q-20 -25 -43 -33q-14 -6 -20 -6q-8 0 -7 6t9 12 q25 20 37 60q-39 53 -100.5 83.5t-151.5 30.5q-88 0 -189.5 -41t-197.5 -119q-59 -49 -105.5 -118.5t-71 -140t-24.5 -124.5q0 -61 33 -79q16 -8 16 -19q0 -6 -8 -8t-18 2q-37 14 -54.5 50t-17.5 85q0 84 47 188.5t127 174.5q104 90 227 136t238 46q84 0 147.5 -20.5 t112.5 -53.5q-2 57 -42 94t-99 56q-59 16 -127 16q-45 0 -98.5 -8t-112.5 -27q-80 -25 -164 -83t-164 -139t-149.5 -173t-118.5 -186q-53 -98 -91 -232.5t-38 -267.5zM943 1576q0 36 28.5 63.5t62.5 27.5q43 0 81.5 -19t89.5 -19q41 0 58 19t20 26h13q0 -38 -25 -68.5 t-66 -30.5q-51 0 -89.5 19.5t-81.5 19.5q-34 0 -53.5 -12.5t-23.5 -25.5h-14z" />
<glyph unicode="&#xd6;" horiz-adv-x="1445" d="M27 319q0 121 34 242q41 141 119 274.5t184.5 248t234.5 200.5t269 131q135 41 252 41q37 0 71 -4t64 -12q78 -23 125 -71t47 -120q0 -20 -6 -45q59 -59 86 -143t27 -180q0 -63 -11.5 -129t-31.5 -131q-47 -150 -140.5 -287t-220 -245.5t-278 -172t-317.5 -63.5 q-160 0 -265.5 51t-163 136t-73.5 185q-6 47 -6 94zM166 297q0 -31 2 -62.5t8 -60.5q14 -78 56 -145.5t117 -107.5t188 -40l6 2q156 2 293 74t248.5 188.5t191.5 257t121 277.5q35 117 35 233q0 59 -11.5 116.5t-36.5 105.5q-20 -25 -43 -33q-14 -6 -20 -6q-8 0 -7 6t9 12 q25 20 37 60q-39 53 -100.5 83.5t-151.5 30.5q-88 0 -189.5 -41t-197.5 -119q-59 -49 -105.5 -118.5t-71 -140t-24.5 -124.5q0 -61 33 -79q16 -8 16 -19q0 -6 -8 -8t-18 2q-37 14 -54.5 50t-17.5 85q0 84 47 188.5t127 174.5q104 90 227 136t238 46q84 0 147.5 -20.5 t112.5 -53.5q-2 57 -42 94t-99 56q-59 16 -127 16q-45 0 -98.5 -8t-112.5 -27q-80 -25 -164 -83t-164 -139t-149.5 -173t-118.5 -186q-53 -98 -91 -232.5t-38 -267.5zM954 1640q0 29 22.5 49.5t49.5 22.5q23 0 38 -14.5t15 -36.5q0 -29 -23.5 -50.5t-52.5 -21.5 q-20 0 -34.5 15.5t-14.5 35.5zM1189 1640q0 29 23 49.5t49 22.5q51 0 51 -49q0 -31 -23 -52.5t-52 -21.5q-20 0 -34 15.5t-14 35.5z" />
<glyph unicode="&#xd7;" horiz-adv-x="800" d="M244 176l237 311l-162 316h70l133 -262l199 262h70l-240 -316l160 -311h-70l-133 256l-193 -256h-71z" />
<glyph unicode="&#xd8;" horiz-adv-x="1445" d="M27 319q0 121 34 242q41 141 119 274.5t184.5 248t234.5 200.5t269 131q133 43 252 43q74 0 135 -18q70 -18 113 -60l25 33h65l-55 -74q25 -37 24 -90q0 -20 -6 -45q59 -59 86 -143t27 -180q0 -63 -11.5 -129t-31.5 -131q-47 -147 -139 -284.5t-218 -246t-274.5 -172 t-312.5 -65.5q-76 -2 -138.5 9t-115.5 32l-55 -70h-66l72 94q-94 51 -145.5 132t-65.5 175q-6 47 -6 94zM182 297q0 -33 3 -62.5t8 -58.5q10 -57 33.5 -108.5t62.5 -90.5l979 1274q-51 29 -115 35q-10 2 -20.5 2h-20.5q-90 0 -192.5 -41t-198.5 -119q-59 -49 -105.5 -118.5 t-71 -140t-24.5 -124.5q0 -61 33 -79q16 -8 16 -19q0 -6 -8 -8t-18 2q-37 14 -54.5 50t-17.5 85q0 84 47 188.5t127 174.5q104 90 227 136t238 46q16 0 31.5 -1t29.5 -3q35 -2 66 -11.5t57 -19.5l39 51q-41 41 -104 60q-49 14 -119 14q-51 0 -107.5 -8t-115.5 -29 q-76 -25 -158 -83t-161 -138t-145.5 -172t-115.5 -184q-51 -100 -88 -234.5t-37 -265.5zM330 -55q39 -27 89 -44.5t113 -17.5q158 0 297.5 71t252 188.5t193.5 258t122 279.5q35 117 35 233q0 59 -11.5 116.5t-36.5 105.5q-20 -25 -43 -33q-14 -6 -20 -6q-8 0 -7 6t9 12 q25 20 37 60q-18 25 -47 49zM1343 1264l27 -17q0 10 -2 21.5t-4 19.5z" />
<glyph unicode="&#xd9;" d="M100 926q0 145 125 299q57 70 148.5 128t196 95t198.5 37q72 0 131 -23.5t98 -81.5q37 -55 37 -135q0 -76 -27.5 -163t-67.5 -169t-79 -147q-47 -80 -99 -170t-96 -179t-70 -171t-22 -150q6 -88 45 -121.5t93 -33.5q53 0 111.5 23.5t109.5 53.5q80 49 172 143.5 t160 196.5q102 154 199.5 310.5t199.5 312.5q90 137 191.5 249.5t216.5 170.5q31 16 64.5 25.5t64.5 9.5q45 0 80.5 -25t50.5 -86q2 -6 2 -18q0 -14 -6.5 -18.5t-10.5 5.5q-12 55 -55 78t-90 23q-20 0 -37.5 -4.5t-34.5 -10.5q-76 -33 -158.5 -127t-164.5 -228t-154 -286.5 t-122 -302t-68 -274.5q-2 -14 -5.5 -40t-3.5 -54q0 -39 13.5 -72t54.5 -33q43 0 90 40t89 97.5t77 114.5t53 94q12 25 29 25q14 0 2 -23q-25 -45 -63.5 -113.5t-89 -138t-109 -116.5t-121.5 -47q-86 0 -114.5 55t-28.5 125q0 113 40.5 233.5t92.5 241.5 q-66 -111 -142.5 -219.5t-160.5 -197.5t-177 -142q-72 -41 -138 -60.5t-124 -19.5q-76 0 -129 31q-51 33 -72.5 85t-21.5 109q0 35 6 68q18 115 66.5 217t111 198.5t123.5 192.5q33 51 76 131t75 168t32 164q0 102 -54.5 142t-128.5 40q-90 0 -183 -37t-173 -96t-133 -129 t-86 -144.5t-33 -140.5q0 -63 36 -111t116 -69q18 -4 38.5 -6t38.5 -2q61 0 101 14q2 2 6 2q6 0 8 -8t-6 -12q-41 -20 -129 -21q-39 0 -76 7q-106 16 -155.5 77.5t-49.5 143.5zM1289 1722q0 13 12 26t27 13q6 0 13 -5q43 -33 96.5 -77.5t91.5 -70.5q7 -5 8 -12 q0 -7 -6.5 -12t-11.5 -4l-220 124q-10 5 -10 18z" />
<glyph unicode="&#xda;" d="M100 926q0 145 125 299q57 70 148.5 128t196 95t198.5 37q72 0 131 -23.5t98 -81.5q37 -55 37 -135q0 -76 -27.5 -163t-67.5 -169t-79 -147q-47 -80 -99 -170t-96 -179t-70 -171t-22 -150q6 -88 45 -121.5t93 -33.5q53 0 111.5 23.5t109.5 53.5q80 49 172 143.5 t160 196.5q102 154 199.5 310.5t199.5 312.5q90 137 191.5 249.5t216.5 170.5q31 16 64.5 25.5t64.5 9.5q45 0 80.5 -25t50.5 -86q2 -6 2 -18q0 -14 -6.5 -18.5t-10.5 5.5q-12 55 -55 78t-90 23q-20 0 -37.5 -4.5t-34.5 -10.5q-76 -33 -158.5 -127t-164.5 -228t-154 -286.5 t-122 -302t-68 -274.5q-2 -14 -5.5 -40t-3.5 -54q0 -39 13.5 -72t54.5 -33q43 0 90 40t89 97.5t77 114.5t53 94q12 25 29 25q14 0 2 -23q-25 -45 -63.5 -113.5t-89 -138t-109 -116.5t-121.5 -47q-86 0 -114.5 55t-28.5 125q0 113 40.5 233.5t92.5 241.5 q-66 -111 -142.5 -219.5t-160.5 -197.5t-177 -142q-72 -41 -138 -60.5t-124 -19.5q-76 0 -129 31q-51 33 -72.5 85t-21.5 109q0 35 6 68q18 115 66.5 217t111 198.5t123.5 192.5q33 51 76 131t75 168t32 164q0 102 -54.5 142t-128.5 40q-90 0 -183 -37t-173 -96t-133 -129 t-86 -144.5t-33 -140.5q0 -63 36 -111t116 -69q18 -4 38.5 -6t38.5 -2q61 0 101 14q2 2 6 2q6 0 8 -8t-6 -12q-41 -20 -129 -21q-39 0 -76 7q-106 16 -155.5 77.5t-49.5 143.5zM1436 1604q0 7 8 12q40 26 92 70.5t95 77.5q9 5 14 5q14 0 26 -13t12 -26q0 -12 -10 -18 l-219 -124h-4q-13 0 -14 16z" />
<glyph unicode="&#xdb;" d="M100 926q0 145 125 299q57 70 148.5 128t196 95t198.5 37q72 0 131 -23.5t98 -81.5q37 -55 37 -135q0 -76 -27.5 -163t-67.5 -169t-79 -147q-47 -80 -99 -170t-96 -179t-70 -171t-22 -150q6 -88 45 -121.5t93 -33.5q53 0 111.5 23.5t109.5 53.5q80 49 172 143.5 t160 196.5q102 154 199.5 310.5t199.5 312.5q90 137 191.5 249.5t216.5 170.5q31 16 64.5 25.5t64.5 9.5q45 0 80.5 -25t50.5 -86q2 -6 2 -18q0 -14 -6.5 -18.5t-10.5 5.5q-12 55 -55 78t-90 23q-20 0 -37.5 -4.5t-34.5 -10.5q-76 -33 -158.5 -127t-164.5 -228t-154 -286.5 t-122 -302t-68 -274.5q-2 -14 -5.5 -40t-3.5 -54q0 -39 13.5 -72t54.5 -33q43 0 90 40t89 97.5t77 114.5t53 94q12 25 29 25q14 0 2 -23q-25 -45 -63.5 -113.5t-89 -138t-109 -116.5t-121.5 -47q-86 0 -114.5 55t-28.5 125q0 113 40.5 233.5t92.5 241.5 q-66 -111 -142.5 -219.5t-160.5 -197.5t-177 -142q-72 -41 -138 -60.5t-124 -19.5q-76 0 -129 31q-51 33 -72.5 85t-21.5 109q0 35 6 68q18 115 66.5 217t111 198.5t123.5 192.5q33 51 76 131t75 168t32 164q0 102 -54.5 142t-128.5 40q-90 0 -183 -37t-173 -96t-133 -129 t-86 -144.5t-33 -140.5q0 -63 36 -111t116 -69q18 -4 38.5 -6t38.5 -2q61 0 101 14q2 2 6 2q6 0 8 -8t-6 -12q-41 -20 -129 -21q-39 0 -76 7q-106 16 -155.5 77.5t-49.5 143.5zM1297 1576.5q-5 5.5 3 9.5l261 179q29 21 46 20q10 0 13 -10l72 -184q2 -2 2 -5 q-1 -6 -10 -10.5t-13 1.5l-101 143l-254 -147q-2 -2 -7 -2q-7 0 -12 5.5z" />
<glyph unicode="&#xdc;" d="M100 926q0 145 125 299q57 70 148.5 128t196 95t198.5 37q72 0 131 -23.5t98 -81.5q37 -55 37 -135q0 -76 -27.5 -163t-67.5 -169t-79 -147q-47 -80 -99 -170t-96 -179t-70 -171t-22 -150q6 -88 45 -121.5t93 -33.5q53 0 111.5 23.5t109.5 53.5q80 49 172 143.5 t160 196.5q102 154 199.5 310.5t199.5 312.5q90 137 191.5 249.5t216.5 170.5q31 16 64.5 25.5t64.5 9.5q45 0 80.5 -25t50.5 -86q2 -6 2 -18q0 -14 -6.5 -18.5t-10.5 5.5q-12 55 -55 78t-90 23q-20 0 -37.5 -4.5t-34.5 -10.5q-76 -33 -158.5 -127t-164.5 -228t-154 -286.5 t-122 -302t-68 -274.5q-2 -14 -5.5 -40t-3.5 -54q0 -39 13.5 -72t54.5 -33q43 0 90 40t89 97.5t77 114.5t53 94q12 25 29 25q14 0 2 -23q-25 -45 -63.5 -113.5t-89 -138t-109 -116.5t-121.5 -47q-86 0 -114.5 55t-28.5 125q0 113 40.5 233.5t92.5 241.5 q-66 -111 -142.5 -219.5t-160.5 -197.5t-177 -142q-72 -41 -138 -60.5t-124 -19.5q-76 0 -129 31q-51 33 -72.5 85t-21.5 109q0 35 6 68q18 115 66.5 217t111 198.5t123.5 192.5q33 51 76 131t75 168t32 164q0 102 -54.5 142t-128.5 40q-90 0 -183 -37t-173 -96t-133 -129 t-86 -144.5t-33 -140.5q0 -63 36 -111t116 -69q18 -4 38.5 -6t38.5 -2q61 0 101 14q2 2 6 2q6 0 8 -8t-6 -12q-41 -20 -129 -21q-39 0 -76 7q-106 16 -155.5 77.5t-49.5 143.5zM1329 1640q0 29 22.5 49.5t49.5 22.5q23 0 38 -14.5t15 -36.5q0 -29 -23.5 -50.5t-52.5 -21.5 q-20 0 -34.5 15.5t-14.5 35.5zM1564 1640q0 29 23 49.5t49 22.5q51 0 51 -49q0 -31 -23 -52.5t-52 -21.5q-20 0 -34 15.5t-14 35.5z" />
<glyph unicode="&#xdd;" horiz-adv-x="1523" d="M-53 860q0 59 18.5 118.5t46.5 111.5q68 123 183.5 209.5t254 134t271.5 47.5q84 0 152.5 -24.5t107.5 -76.5q31 -39 43 -81t12 -87q0 -76 -28.5 -156.5t-69.5 -155.5t-78 -134q-61 -102 -127.5 -220t-113 -229.5t-46.5 -201.5q0 -98 40 -136t100 -38q96 0 195.5 67.5 t195.5 177t182 238.5t155.5 254t112.5 221q41 92 94.5 183.5t118 159t138.5 83.5q6 2 12 2h10q29 0 44.5 -14.5t15.5 -30.5t-14.5 -31.5t-43.5 -15.5q-68 -2 -121 -44t-94 -105.5t-69.5 -132t-49.5 -124.5q-63 -178 -115.5 -357t-118 -358.5t-171.5 -357.5 q-113 -186 -260 -304t-352 -118q-37 0 -77 12.5t-66.5 37t-26.5 59.5q0 25 10 43q4 6 11 13t11 7q8 0 6 -16q-6 -53 46.5 -85t115.5 -32q74 0 156 44t162 147q74 96 140.5 211.5t123.5 235.5t105 229.5t85 193.5l52 127q-72 -119 -155 -233.5t-175 -208.5t-194.5 -150.5 t-211.5 -56.5q-111 0 -167 62.5t-56 162.5q0 31 6 68q18 115 66.5 217t111 198.5t123.5 192.5q33 53 76 126t75 154t32 154q0 35 -9.5 68t-31.5 59q-31 39 -84.5 55.5t-122.5 16.5q-119 0 -242 -52.5t-227.5 -139.5t-167.5 -191q-33 -55 -53.5 -114.5t-20.5 -119.5 q0 -14 3 -30.5t5 -32.5q14 -57 55.5 -86t92.5 -29q59 0 116 39q59 41 94.5 106.5t35.5 141.5q0 45 -17 94q-4 16 -14 31.5t-21 17.5q-10 4 -9 10.5t20 6.5q39 0 62.5 -44t29.5 -79q2 -10 3 -20.5t1 -20.5q0 -74 -37 -143.5t-96 -110.5q-82 -59 -170 -59q-66 0 -120 35.5 t-77 109.5q-14 43 -14 94zM1399 1434q0 8 8 14q47 33 109.5 82t111.5 92q6 6 17 6q16 0 29.5 -15.5t13.5 -31.5q0 -14 -11 -20l-258 -146h-4q-16 0 -16 19z" />
<glyph unicode="&#xde;" horiz-adv-x="933" d="M0 -80q117 250 230.5 506t238.5 506t268 485q35 55 83 60.5t98 13.5q-10 -12 -44 -58.5t-77 -112t-88 -136.5l-70 -115q59 68 128 116t142 48q96 0 133 -49t37 -121q0 -66 -22.5 -142.5t-53 -146t-59.5 -117.5q-27 -45 -76 -108.5t-113.5 -127t-135 -110.5t-142.5 -57 q-12 -2 -23.5 -3t-21.5 -1q-63 0 -94 31.5t-35 76.5q-2 8 -2 16.5v16.5q-33 -82 -64.5 -164t-55 -147.5t-31.5 -99.5zM336 401q0 -35 14 -60.5t49 -35.5q8 -2 16.5 -3t16.5 -1q66 0 140.5 57.5t146.5 148.5t131 196.5t94 206t35 171.5q0 53 -21.5 83t-68.5 30q-37 0 -85 -34 t-98.5 -87t-98.5 -117.5t-89 -126.5q-12 -18 -42 -67t-61.5 -113.5t-55 -129t-23.5 -118.5z" />
<glyph unicode="&#xdf;" horiz-adv-x="1062" d="M-702 -362q0 37 14 65q6 10 13 15.5t9 -7.5q12 -92 65.5 -132t127.5 -40q92 0 193.5 54.5t164.5 140.5q72 98 133.5 229t102.5 252q59 168 123.5 336t147.5 327.5t196 299.5q70 86 178 155.5t256 69.5q94 0 154.5 -33t89 -85t28.5 -107q0 -10 -1 -20.5t-3 -20.5 q-16 -94 -78.5 -155.5t-148.5 -100.5t-174 -62q-37 -10 -37 -74q0 -14 3 -31.5t7 -37.5q12 -47 38 -109.5t48.5 -124t22.5 -106.5q0 -66 -21.5 -132.5t-66.5 -117.5q8 -33 26.5 -46t42.5 -13q29 0 60.5 17t52.5 44q35 41 77 106.5t66 108.5q14 23 23 23q4 0 4 -7 q0 -10 -12 -38q-33 -59 -75 -127t-83 -109q-47 -47 -113 -47q-31 0 -56.5 14.5t-39.5 44.5l-14 -14q-37 -29 -88.5 -48.5t-104.5 -19.5q-51 0 -93 20.5t-64 65.5q-18 37 -19 84q0 43 16 80q10 25 23.5 44.5t30.5 31.5q20 16 38.5 21.5t32.5 5.5q29 0 45.5 -14.5t16.5 -32.5 q0 -8 -6 -19q-6 2 -11.5 3t-11.5 1q-29 0 -57 -22q-27 -20 -45.5 -60.5t-18.5 -77.5q0 -51 36 -77.5t81 -26.5q47 0 84 23q45 27 70.5 77t37 108t11.5 109q0 70 -12.5 134.5t-26.5 118t-19 85.5q-6 41 -6 72q0 47 16.5 74.5t57.5 38.5q37 10 92.5 31.5t112.5 60.5t96 104 q39 61 39 146q0 70 -38 128t-124 62q-119 6 -209 -53t-166.5 -174t-158.5 -275q-76 -150 -148.5 -322.5t-142.5 -346.5q-39 -96 -98.5 -207t-137 -215.5t-171.5 -182t-203 -108.5q-59 -16 -115 -16q-51 0 -95 18.5t-71 63.5q-20 35 -20 82z" />
<glyph unicode="&#xe0;" horiz-adv-x="731" d="M109 137q0 84 36.5 170t97 163t134.5 132q43 31 105.5 50.5t125.5 19.5q72 0 126 -21.5t75 -60.5q-43 -55 -88 -136t-78 -147q-23 -45 -49.5 -111.5t-26.5 -113.5q0 -20 10.5 -41t38.5 -21q33 0 64 25t51 49q47 51 86 112.5t78 131.5q6 8 12 8q8 0 8 -12q0 -10 -4 -17 q-35 -68 -77.5 -135t-102.5 -127q-29 -29 -67.5 -49t-75.5 -20q-66 0 -90.5 42t-24.5 93q0 10 3 35.5t7 48.5q-29 -39 -68.5 -86t-80.5 -80q-66 -53 -119 -53q-51 0 -78.5 43t-27.5 108zM211 133q0 -33 11 -58.5t38 -25.5q39 0 85 42t90 102.5t80 117t56 86.5q43 68 80 113 t115 70q4 0 7 1t7 1q-18 29 -61 43t-84 14q-63 0 -122.5 -35t-109.5 -88q-47 -55 -92 -120.5t-72.5 -133t-27.5 -129.5zM433 938q0 13 12 26t27 13q6 0 13 -5q43 -33 96.5 -77.5t91.5 -70.5q7 -5 8 -12q0 -7 -6.5 -12t-11.5 -4l-220 124q-10 5 -10 18z" />
<glyph unicode="&#xe1;" horiz-adv-x="731" d="M109 137q0 84 36.5 170t97 163t134.5 132q43 31 105.5 50.5t125.5 19.5q72 0 126 -21.5t75 -60.5q-43 -55 -88 -136t-78 -147q-23 -45 -49.5 -111.5t-26.5 -113.5q0 -20 10.5 -41t38.5 -21q33 0 64 25t51 49q47 51 86 112.5t78 131.5q6 8 12 8q8 0 8 -12q0 -10 -4 -17 q-35 -68 -77.5 -135t-102.5 -127q-29 -29 -67.5 -49t-75.5 -20q-66 0 -90.5 42t-24.5 93q0 10 3 35.5t7 48.5q-29 -39 -68.5 -86t-80.5 -80q-66 -53 -119 -53q-51 0 -78.5 43t-27.5 108zM211 133q0 -33 11 -58.5t38 -25.5q39 0 85 42t90 102.5t80 117t56 86.5q43 68 80 113 t115 70q4 0 7 1t7 1q-18 29 -61 43t-84 14q-63 0 -122.5 -35t-109.5 -88q-47 -55 -92 -120.5t-72.5 -133t-27.5 -129.5zM580 820q0 7 8 12q40 26 92 70.5t95 77.5q9 5 14 5q14 0 26 -13t12 -26q0 -12 -10 -18l-219 -124h-4q-13 0 -14 16z" />
<glyph unicode="&#xe2;" horiz-adv-x="731" d="M109 137q0 84 36.5 170t97 163t134.5 132q43 31 105.5 50.5t125.5 19.5q72 0 126 -21.5t75 -60.5q-43 -55 -88 -136t-78 -147q-23 -45 -49.5 -111.5t-26.5 -113.5q0 -20 10.5 -41t38.5 -21q33 0 64 25t51 49q47 51 86 112.5t78 131.5q6 8 12 8q8 0 8 -12q0 -10 -4 -17 q-35 -68 -77.5 -135t-102.5 -127q-29 -29 -67.5 -49t-75.5 -20q-66 0 -90.5 42t-24.5 93q0 10 3 35.5t7 48.5q-29 -39 -68.5 -86t-80.5 -80q-66 -53 -119 -53q-51 0 -78.5 43t-27.5 108zM211 133q0 -33 11 -58.5t38 -25.5q39 0 85 42t90 102.5t80 117t56 86.5q43 68 80 113 t115 70q4 0 7 1t7 1q-18 29 -61 43t-84 14q-63 0 -122.5 -35t-109.5 -88q-47 -55 -92 -120.5t-72.5 -133t-27.5 -129.5zM441 792.5q-5 5.5 3 9.5l261 179q29 21 46 20q10 0 13 -10l72 -184q2 -2 2 -5q-1 -6 -10 -10.5t-13 1.5l-101 143l-254 -147q-2 -2 -7 -2q-7 0 -12 5.5z " />
<glyph unicode="&#xe3;" horiz-adv-x="731" d="M109 137q0 84 36.5 170t97 163t134.5 132q43 31 105.5 50.5t125.5 19.5q72 0 126 -21.5t75 -60.5q-43 -55 -88 -136t-78 -147q-23 -45 -49.5 -111.5t-26.5 -113.5q0 -20 10.5 -41t38.5 -21q33 0 64 25t51 49q47 51 86 112.5t78 131.5q6 8 12 8q8 0 8 -12q0 -10 -4 -17 q-35 -68 -77.5 -135t-102.5 -127q-29 -29 -67.5 -49t-75.5 -20q-66 0 -90.5 42t-24.5 93q0 10 3 35.5t7 48.5q-29 -39 -68.5 -86t-80.5 -80q-66 -53 -119 -53q-51 0 -78.5 43t-27.5 108zM211 133q0 -33 11 -58.5t38 -25.5q39 0 85 42t90 102.5t80 117t56 86.5q43 68 80 113 t115 70q4 0 7 1t7 1q-18 29 -61 43t-84 14q-63 0 -122.5 -35t-109.5 -88q-47 -55 -92 -120.5t-72.5 -133t-27.5 -129.5zM464 833q0 36 28.5 63.5t62.5 27.5q43 0 81.5 -19t89.5 -19q41 0 58 19t20 26h13q0 -38 -25 -68.5t-66 -30.5q-51 0 -89.5 19.5t-81.5 19.5 q-34 0 -53.5 -12.5t-23.5 -25.5h-14z" />
<glyph unicode="&#xe4;" horiz-adv-x="731" d="M109 137q0 84 36.5 170t97 163t134.5 132q43 31 105.5 50.5t125.5 19.5q72 0 126 -21.5t75 -60.5q-43 -55 -88 -136t-78 -147q-23 -45 -49.5 -111.5t-26.5 -113.5q0 -20 10.5 -41t38.5 -21q33 0 64 25t51 49q47 51 86 112.5t78 131.5q6 8 12 8q8 0 8 -12q0 -10 -4 -17 q-35 -68 -77.5 -135t-102.5 -127q-29 -29 -67.5 -49t-75.5 -20q-66 0 -90.5 42t-24.5 93q0 10 3 35.5t7 48.5q-29 -39 -68.5 -86t-80.5 -80q-66 -53 -119 -53q-51 0 -78.5 43t-27.5 108zM211 133q0 -33 11 -58.5t38 -25.5q39 0 85 42t90 102.5t80 117t56 86.5q43 68 80 113 t115 70q4 0 7 1t7 1q-18 29 -61 43t-84 14q-63 0 -122.5 -35t-109.5 -88q-47 -55 -92 -120.5t-72.5 -133t-27.5 -129.5zM473 876q0 29 22.5 49.5t49.5 22.5q23 0 38 -14.5t15 -36.5q0 -29 -23.5 -50.5t-52.5 -21.5q-20 0 -34.5 15.5t-14.5 35.5zM708 876q0 29 23 49.5 t49 22.5q51 0 51 -49q0 -31 -23 -52.5t-52 -21.5q-20 0 -34 15.5t-14 35.5z" />
<glyph unicode="&#xe5;" horiz-adv-x="731" d="M109 137q0 84 36.5 170t97 163t134.5 132q43 31 105.5 50.5t125.5 19.5q72 0 126 -21.5t75 -60.5q-43 -55 -88 -136t-78 -147q-23 -45 -49.5 -111.5t-26.5 -113.5q0 -20 10.5 -41t38.5 -21q33 0 64 25t51 49q47 51 86 112.5t78 131.5q6 8 12 8q8 0 8 -12q0 -10 -4 -17 q-35 -68 -77.5 -135t-102.5 -127q-29 -29 -67.5 -49t-75.5 -20q-66 0 -90.5 42t-24.5 93q0 10 3 35.5t7 48.5q-29 -39 -68.5 -86t-80.5 -80q-66 -53 -119 -53q-51 0 -78.5 43t-27.5 108zM211 133q0 -33 11 -58.5t38 -25.5q39 0 85 42t90 102.5t80 117t56 86.5q43 68 80 113 t115 70q4 0 7 1t7 1q-18 29 -61 43t-84 14q-63 0 -122.5 -35t-109.5 -88q-47 -55 -92 -120.5t-72.5 -133t-27.5 -129.5zM502 889q0 61 47 117.5t125 56.5q47 0 74.5 -20.5t42.5 -46.5q2 -10 4 -23.5t2 -27.5q0 -61 -47 -114.5t-125 -53.5q-45 0 -74 20.5t-41 46.5 q-8 18 -8 45zM557 899q0 -31 13 -55q8 -18 24 -31.5t43 -13.5q55 2 81 50t26 87q0 33 -13 58q-8 20 -21 32.5t-42 12.5q-45 0 -69.5 -31t-35.5 -66q-6 -14 -6 -43z" />
<glyph unicode="&#xe6;" horiz-adv-x="931" d="M96 135q0 43 13 92q59 229 253 375q41 31 103.5 50.5t126.5 19.5q49 0 94 -11.5t86 -37.5q37 23 75 38t77 15q25 0 47 -6t39 -23q14 -12 19 -29.5t5 -35.5q0 -49 -24.5 -103.5t-46.5 -83.5q-33 -43 -74 -79.5t-86 -55.5q-18 -8 -42 -13t-46 -5q-49 0 -74 24 q-37 -104 -37 -168q0 -35 12 -57q14 -23 39 -32t54 -9q84 0 151.5 40t112.5 105q23 33 41 67t35 67q6 16 12 16q4 0 4 -12q0 -8 -3 -23.5t-13 -34.5q-27 -53 -70 -118.5t-115 -106.5q-68 -37 -151 -37q-33 0 -66.5 8.5t-60.5 22.5q-33 20 -53.5 54t-20.5 83q0 66 43 164 q-10 -8 -22.5 -23.5t-26.5 -31.5q-29 -43 -82 -101.5t-105 -99.5q-33 -27 -63.5 -39t-54.5 -12q-49 0 -77 42t-28 105zM201 123q0 -29 10 -51.5t35 -22.5q41 0 86 42t89 102.5t80 117t56 86.5q33 51 83 109.5t108 101.5q-59 35 -113 35q-33 0 -82 -16q-88 -31 -158 -111 q-70 -76 -117 -163t-65 -152q-4 -18 -8 -38t-4 -40zM647 289q20 -14 47 -15q43 0 86 28t70 52q27 25 51.5 57.5t50.5 77.5q10 18 21.5 49t11.5 58q0 20 -11 36.5t-40 16.5q-37 0 -88 -45t-98 -117q-23 -37 -50.5 -89t-50.5 -109z" />
<glyph unicode="&#xe7;" horiz-adv-x="542" d="M123 -469q0 8 6 10t8 4q33 10 65.5 11.5t60.5 7.5t44 28.5t16 73.5q0 27 -22.5 56.5t-45 63.5t-22.5 67q0 53 32 102t91 49q18 0 21 -12q-39 -8 -59.5 -41t-20.5 -70q0 -25 24.5 -53.5t50 -63t25.5 -79.5q0 -59 -44 -98.5t-104.5 -56.5t-111.5 -17q-14 0 -14 18zM137 195 q0 96 41 194q31 74 80 138.5t117.5 105.5t150.5 41q61 0 95 -29t34 -80q0 -16 -3 -34.5t-13 -41.5q-14 -37 -36.5 -65.5t-51.5 -44.5q-14 -8 -33 -8q-14 0 -26.5 8t-12.5 27q0 33 36 70.5t93 39.5q10 27 10 47q0 33 -20 56.5t-63 23.5q-53 0 -104.5 -40t-91.5 -104.5 t-65 -136.5q-12 -33 -22 -83t-10 -99q0 -63 27.5 -113.5t105.5 -50.5q55 0 104 32t89 79t72 97t52 89q2 8 10 9q10 0 11 -17q0 -8 -6 -18q-43 -76 -92.5 -146.5t-117 -117t-163.5 -46.5q-106 0 -151.5 64.5t-45.5 153.5z" />
<glyph unicode="&#xe8;" horiz-adv-x="536" d="M135 184q0 49 12.5 99.5t30.5 93.5q29 68 76 136.5t113.5 115.5t146.5 47q53 0 84 -26.5t31 -82.5q0 -63 -39 -127.5t-98.5 -107.5t-122.5 -43q-57 0 -101 41q-12 -33 -20 -73t-8 -81q0 -63 25.5 -110.5t92.5 -47.5q49 0 95.5 26t83.5 62q41 43 77.5 92.5t71.5 114.5 q4 6 6 6q8 0 8 -18q0 -12 -8 -27q-31 -55 -71.5 -111.5t-83.5 -96.5q-39 -37 -84.5 -59.5t-104.5 -22.5q-119 0 -168 61q-25 27 -35 63.5t-10 75.5zM279 360q14 -20 33.5 -29t39.5 -9q49 0 102.5 37.5t86.5 89.5q14 23 25.5 59.5t11.5 69.5q0 29 -11.5 50t-44.5 21 q-37 0 -87 -45t-95 -117q-14 -25 -31.5 -57.5t-29.5 -69.5zM337 911q0 13 12 26t27 13q6 0 13 -5q43 -33 96.5 -77.5t91.5 -70.5q7 -5 8 -12q0 -7 -6.5 -12t-11.5 -4l-220 124q-10 5 -10 18z" />
<glyph unicode="&#xe9;" horiz-adv-x="536" d="M135 184q0 49 12.5 99.5t30.5 93.5q29 68 76 136.5t113.5 115.5t146.5 47q53 0 84 -26.5t31 -82.5q0 -63 -39 -127.5t-98.5 -107.5t-122.5 -43q-57 0 -101 41q-12 -33 -20 -73t-8 -81q0 -63 25.5 -110.5t92.5 -47.5q49 0 95.5 26t83.5 62q41 43 77.5 92.5t71.5 114.5 q4 6 6 6q8 0 8 -18q0 -12 -8 -27q-31 -55 -71.5 -111.5t-83.5 -96.5q-39 -37 -84.5 -59.5t-104.5 -22.5q-119 0 -168 61q-25 27 -35 63.5t-10 75.5zM279 360q14 -20 33.5 -29t39.5 -9q49 0 102.5 37.5t86.5 89.5q14 23 25.5 59.5t11.5 69.5q0 29 -11.5 50t-44.5 21 q-37 0 -87 -45t-95 -117q-14 -25 -31.5 -57.5t-29.5 -69.5zM483 793q0 7 8 12q40 26 92 70.5t95 77.5q9 5 14 5q14 0 26 -13t12 -26q0 -12 -10 -18l-219 -124h-4q-13 0 -14 16z" />
<glyph unicode="&#xea;" horiz-adv-x="536" d="M135 184q0 49 12.5 99.5t30.5 93.5q29 68 76 136.5t113.5 115.5t146.5 47q53 0 84 -26.5t31 -82.5q0 -63 -39 -127.5t-98.5 -107.5t-122.5 -43q-57 0 -101 41q-12 -33 -20 -73t-8 -81q0 -63 25.5 -110.5t92.5 -47.5q49 0 95.5 26t83.5 62q41 43 77.5 92.5t71.5 114.5 q4 6 6 6q8 0 8 -18q0 -12 -8 -27q-31 -55 -71.5 -111.5t-83.5 -96.5q-39 -37 -84.5 -59.5t-104.5 -22.5q-119 0 -168 61q-25 27 -35 63.5t-10 75.5zM279 360q14 -20 33.5 -29t39.5 -9q49 0 102.5 37.5t86.5 89.5q14 23 25.5 59.5t11.5 69.5q0 29 -11.5 50t-44.5 21 q-37 0 -87 -45t-95 -117q-14 -25 -31.5 -57.5t-29.5 -69.5zM344 765.5q-5 5.5 3 9.5l261 179q29 21 46 20q10 0 13 -10l72 -184q2 -2 2 -5q-1 -6 -10 -10.5t-13 1.5l-101 143l-254 -147q-2 -2 -7 -2q-7 0 -12 5.5z" />
<glyph unicode="&#xeb;" horiz-adv-x="536" d="M135 184q0 49 12.5 99.5t30.5 93.5q29 68 76 136.5t113.5 115.5t146.5 47q53 0 84 -26.5t31 -82.5q0 -63 -39 -127.5t-98.5 -107.5t-122.5 -43q-57 0 -101 41q-12 -33 -20 -73t-8 -81q0 -63 25.5 -110.5t92.5 -47.5q49 0 95.5 26t83.5 62q41 43 77.5 92.5t71.5 114.5 q4 6 6 6q8 0 8 -18q0 -12 -8 -27q-31 -55 -71.5 -111.5t-83.5 -96.5q-39 -37 -84.5 -59.5t-104.5 -22.5q-119 0 -168 61q-25 27 -35 63.5t-10 75.5zM279 360q14 -20 33.5 -29t39.5 -9q49 0 102.5 37.5t86.5 89.5q14 23 25.5 59.5t11.5 69.5q0 29 -11.5 50t-44.5 21 q-37 0 -87 -45t-95 -117q-14 -25 -31.5 -57.5t-29.5 -69.5zM377 850q0 29 22.5 49.5t49.5 22.5q23 0 38 -14.5t15 -36.5q0 -29 -23.5 -50.5t-52.5 -21.5q-20 0 -34.5 15.5t-14.5 35.5zM612 850q0 29 23 49.5t49 22.5q51 0 51 -49q0 -31 -23 -52.5t-52 -21.5q-20 0 -34 15.5 t-14 35.5z" />
<glyph unicode="&#xec;" horiz-adv-x="352" d="M98 119q0 16 3 33.5t8 35.5q23 82 70.5 183.5t92.5 181.5q27 45 49.5 64.5t49 28.5t63.5 22q10 4 20.5 6t22.5 4q-41 -41 -83 -98.5t-91 -157.5q-27 -53 -52.5 -118.5t-44 -123t-20.5 -90.5q-2 -39 10.5 -55.5t32.5 -16.5q35 0 67 25t56 51q45 51 85 112.5t79 131.5 q6 8 10 8q8 0 9 -12q0 -10 -5 -17q-37 -68 -77.5 -135t-100.5 -127q-27 -27 -62.5 -47t-80.5 -20q-57 0 -84 37.5t-27 93.5zM243 911q0 13 12 26t27 13q6 0 13 -5q43 -33 96.5 -77.5t91.5 -70.5q7 -5 8 -12q0 -7 -6.5 -12t-11.5 -4l-220 124q-10 5 -10 18z" />
<glyph unicode="&#xed;" horiz-adv-x="352" d="M98 119q0 16 3 33.5t8 35.5q23 82 70.5 183.5t92.5 181.5q27 45 49.5 64.5t49 28.5t63.5 22q10 4 20.5 6t22.5 4q-41 -41 -83 -98.5t-91 -157.5q-27 -53 -52.5 -118.5t-44 -123t-20.5 -90.5q-2 -39 10.5 -55.5t32.5 -16.5q35 0 67 25t56 51q45 51 85 112.5t79 131.5 q6 8 10 8q8 0 9 -12q0 -10 -5 -17q-37 -68 -77.5 -135t-100.5 -127q-27 -27 -62.5 -47t-80.5 -20q-57 0 -84 37.5t-27 93.5zM389 793q0 7 8 12q40 26 92 70.5t95 77.5q9 5 14 5q14 0 26 -13t12 -26q0 -12 -10 -18l-219 -124h-4q-13 0 -14 16z" />
<glyph unicode="&#xee;" horiz-adv-x="352" d="M98 119q0 16 3 33.5t8 35.5q23 82 70.5 183.5t92.5 181.5q27 45 49.5 64.5t49 28.5t63.5 22q10 4 20.5 6t22.5 4q-41 -41 -83 -98.5t-91 -157.5q-27 -53 -52.5 -118.5t-44 -123t-20.5 -90.5q-2 -39 10.5 -55.5t32.5 -16.5q35 0 67 25t56 51q45 51 85 112.5t79 131.5 q6 8 10 8q8 0 9 -12q0 -10 -5 -17q-37 -68 -77.5 -135t-100.5 -127q-27 -27 -62.5 -47t-80.5 -20q-57 0 -84 37.5t-27 93.5zM250 765.5q-5 5.5 3 9.5l261 179q29 21 46 20q10 0 13 -10l72 -184q2 -2 2 -5q-1 -6 -10 -10.5t-13 1.5l-101 143l-254 -147q-2 -2 -7 -2 q-7 0 -12 5.5z" />
<glyph unicode="&#xef;" horiz-adv-x="352" d="M98 119q0 16 3 33.5t8 35.5q23 82 70.5 183.5t92.5 181.5q27 45 49.5 64.5t49 28.5t63.5 22q10 4 20.5 6t22.5 4q-41 -41 -83 -98.5t-91 -157.5q-27 -53 -52.5 -118.5t-44 -123t-20.5 -90.5q-2 -39 10.5 -55.5t32.5 -16.5q35 0 67 25t56 51q45 51 85 112.5t79 131.5 q6 8 10 8q8 0 9 -12q0 -10 -5 -17q-37 -68 -77.5 -135t-100.5 -127q-27 -27 -62.5 -47t-80.5 -20q-57 0 -84 37.5t-27 93.5zM303 850q0 29 23 49.5t49 22.5q23 0 38 -14.5t15 -37.5q0 -29 -23 -50t-52 -21q-20 0 -35 15t-15 36zM498 850q0 29 22.5 49.5t49.5 22.5 q51 0 51 -50q0 -31 -23.5 -52t-52.5 -21q-20 0 -33.5 15t-13.5 36z" />
<glyph unicode="&#xf0;" horiz-adv-x="641" d="M86 156q0 123 52 227t134 182q53 51 117 77t121 26q59 0 81.5 -42t24.5 -94q6 39 10.5 80t4.5 84q0 88 -16.5 176.5t-51.5 163.5l-178 -88l-18 37l176 88q-10 23 -24.5 43.5t-31.5 38.5q-80 92 -190 92q-16 0 -34.5 -2t-37.5 -6h-2q-6 0 -6 8q0 16 33 27q37 12 80 12 q63 0 123.5 -24.5t105.5 -65.5q39 -37 66 -82l141 70l18 -39l-139 -70q33 -68 46.5 -145.5t13.5 -157.5q0 -76 -10.5 -149.5t-26.5 -137.5q-20 -76 -58.5 -164t-93.5 -164.5t-130 -125.5t-167 -49q-49 0 -78.5 26.5t-42 67.5t-12.5 80zM176 100q0 -43 14.5 -69.5t47.5 -26.5 q43 0 91 40t94 104.5t83 137t58.5 139.5t21.5 112q0 37 -14.5 71.5t-61.5 34.5t-95 -39t-91 -101.5t-76 -135t-52.5 -143t-19.5 -124.5z" />
<glyph unicode="&#xf1;" horiz-adv-x="667" d="M8 0q57 113 112.5 237.5t94.5 249.5q18 57 30.5 111.5t10.5 71.5v4q0 16 16 8q27 -14 37 -42t10 -62q0 -39 -10 -83t-24 -79q27 37 57.5 74.5t67.5 72.5q43 43 92 75t106 32q55 0 81 -24.5t26 -65.5q0 -43 -25 -99q-27 -63 -64.5 -126.5t-68.5 -123.5q-6 -12 -19.5 -37.5 t-23.5 -56.5q-4 -14 -8 -29.5t-4 -31.5q0 -20 9 -38t36 -18q35 0 66.5 24t54.5 50q47 51 87 113.5t79 132.5q6 8 8 8q8 0 8 -18q0 -12 -4 -19q-37 -68 -78 -132t-100 -124q-27 -27 -62 -47t-78 -20q-59 0 -93 36.5t-34 92.5q0 27 11 61q29 90 91 179t103 178q14 29 15 51 q0 23 -13.5 34t-32.5 11q-27 0 -66.5 -21.5t-90.5 -81.5q-31 -37 -70 -90t-63 -96q-41 -70 -74 -140.5t-57 -129.5q-20 -47 -49 -60.5t-55.5 -11.5t-41.5 0zM274 839q0 36 28.5 63.5t62.5 27.5q43 0 81.5 -19t89.5 -19q41 0 58 19t20 26h13q0 -38 -25 -68.5t-66 -30.5 q-51 0 -89.5 19.5t-81.5 19.5q-34 0 -53.5 -12.5t-23.5 -25.5h-14z" />
<glyph unicode="&#xf2;" horiz-adv-x="774" d="M127 164q0 66 23.5 136.5t52.5 125.5q53 100 134 175t193 75q109 0 152 -59.5t43 -145.5q0 -35 -6 -72q-16 -100 -68 -194q14 -20 38 -33.5t52 -13.5q49 0 84 26.5t60.5 66.5t44.5 75q12 23 22 22q6 0 6 -8t-12 -37q-35 -70 -82 -121t-123 -51q-70 0 -106 49 q-57 -94 -139.5 -157.5t-178.5 -63.5q-78 0 -134 50t-56 155zM227 119q0 -66 28 -100.5t67 -34.5q100 0 198 98q29 29 52.5 60.5t41.5 64.5q-27 31 -38 66.5t-11 68.5q0 51 18.5 91t51.5 40q16 0 31.5 -16.5t19.5 -50.5q6 29 6 61q0 78 -28.5 124t-96.5 46q-41 0 -84 -32 t-80.5 -77t-66.5 -92t-43 -78q-35 -76 -50.5 -135t-15.5 -104zM380 911q0 13 12 26t27 13q6 0 13 -5q43 -33 96.5 -77.5t91.5 -70.5q7 -5 8 -12q0 -7 -6.5 -12t-11.5 -4l-220 124q-10 5 -10 18z" />
<glyph unicode="&#xf3;" horiz-adv-x="774" d="M127 164q0 66 23.5 136.5t52.5 125.5q53 100 134 175t193 75q109 0 152 -59.5t43 -145.5q0 -35 -6 -72q-16 -100 -68 -194q14 -20 38 -33.5t52 -13.5q49 0 84 26.5t60.5 66.5t44.5 75q12 23 22 22q6 0 6 -8t-12 -37q-35 -70 -82 -121t-123 -51q-70 0 -106 49 q-57 -94 -139.5 -157.5t-178.5 -63.5q-78 0 -134 50t-56 155zM227 119q0 -66 28 -100.5t67 -34.5q100 0 198 98q29 29 52.5 60.5t41.5 64.5q-27 31 -38 66.5t-11 68.5q0 51 18.5 91t51.5 40q16 0 31.5 -16.5t19.5 -50.5q6 29 6 61q0 78 -28.5 124t-96.5 46q-41 0 -84 -32 t-80.5 -77t-66.5 -92t-43 -78q-35 -76 -50.5 -135t-15.5 -104zM526 793q0 7 8 12q40 26 92 70.5t95 77.5q9 5 14 5q14 0 26 -13t12 -26q0 -12 -10 -18l-219 -124h-4q-13 0 -14 16z" />
<glyph unicode="&#xf4;" horiz-adv-x="774" d="M127 164q0 66 23.5 136.5t52.5 125.5q53 100 134 175t193 75q109 0 152 -59.5t43 -145.5q0 -35 -6 -72q-16 -100 -68 -194q14 -20 38 -33.5t52 -13.5q49 0 84 26.5t60.5 66.5t44.5 75q12 23 22 22q6 0 6 -8t-12 -37q-35 -70 -82 -121t-123 -51q-70 0 -106 49 q-57 -94 -139.5 -157.5t-178.5 -63.5q-78 0 -134 50t-56 155zM227 119q0 -66 28 -100.5t67 -34.5q100 0 198 98q29 29 52.5 60.5t41.5 64.5q-27 31 -38 66.5t-11 68.5q0 51 18.5 91t51.5 40q16 0 31.5 -16.5t19.5 -50.5q6 29 6 61q0 78 -28.5 124t-96.5 46q-41 0 -84 -32 t-80.5 -77t-66.5 -92t-43 -78q-35 -76 -50.5 -135t-15.5 -104zM388 765.5q-5 5.5 3 9.5l261 179q29 21 46 20q10 0 13 -10l72 -184q2 -2 2 -5q-1 -6 -10 -10.5t-13 1.5l-101 143l-254 -147q-2 -2 -7 -2q-7 0 -12 5.5z" />
<glyph unicode="&#xf5;" horiz-adv-x="774" d="M127 164q0 66 23.5 136.5t52.5 125.5q53 100 134 175t193 75q109 0 152 -59.5t43 -145.5q0 -35 -6 -72q-16 -100 -68 -194q14 -20 38 -33.5t52 -13.5q49 0 84 26.5t60.5 66.5t44.5 75q12 23 22 22q6 0 6 -8t-12 -37q-35 -70 -82 -121t-123 -51q-70 0 -106 49 q-57 -94 -139.5 -157.5t-178.5 -63.5q-78 0 -134 50t-56 155zM227 119q0 -66 28 -100.5t67 -34.5q100 0 198 98q29 29 52.5 60.5t41.5 64.5q-27 31 -38 66.5t-11 68.5q0 51 18.5 91t51.5 40q16 0 31.5 -16.5t19.5 -50.5q6 29 6 61q0 78 -28.5 124t-96.5 46q-41 0 -84 -32 t-80.5 -77t-66.5 -92t-43 -78q-35 -76 -50.5 -135t-15.5 -104zM411 806q0 36 28.5 63.5t62.5 27.5q43 0 81.5 -19t89.5 -19q41 0 58 19t20 26h13q0 -38 -25 -68.5t-66 -30.5q-51 0 -89.5 19.5t-81.5 19.5q-34 0 -53.5 -12.5t-23.5 -25.5h-14z" />
<glyph unicode="&#xf6;" horiz-adv-x="774" d="M127 164q0 66 23.5 136.5t52.5 125.5q53 100 134 175t193 75q109 0 152 -59.5t43 -145.5q0 -35 -6 -72q-16 -100 -68 -194q14 -20 38 -33.5t52 -13.5q49 0 84 26.5t60.5 66.5t44.5 75q12 23 22 22q6 0 6 -8t-12 -37q-35 -70 -82 -121t-123 -51q-70 0 -106 49 q-57 -94 -139.5 -157.5t-178.5 -63.5q-78 0 -134 50t-56 155zM227 119q0 -66 28 -100.5t67 -34.5q100 0 198 98q29 29 52.5 60.5t41.5 64.5q-27 31 -38 66.5t-11 68.5q0 51 18.5 91t51.5 40q16 0 31.5 -16.5t19.5 -50.5q6 29 6 61q0 78 -28.5 124t-96.5 46q-41 0 -84 -32 t-80.5 -77t-66.5 -92t-43 -78q-35 -76 -50.5 -135t-15.5 -104zM420 850q0 29 22.5 49.5t49.5 22.5q23 0 38 -14.5t15 -36.5q0 -29 -23.5 -50.5t-52.5 -21.5q-20 0 -34.5 15.5t-14.5 35.5zM655 850q0 29 23 49.5t49 22.5q51 0 51 -49q0 -31 -23 -52.5t-52 -21.5 q-20 0 -34 15.5t-14 35.5z" />
<glyph unicode="&#xf7;" horiz-adv-x="784" d="M256 360v39h485v-39h-485zM395 176q0 29 21.5 51.5t50.5 22.5q23 0 38 -15.5t15 -37.5q0 -27 -21 -48.5t-50 -23.5q-20 0 -37 15.5t-17 35.5zM475 559q0 29 21.5 51.5t50.5 22.5q23 0 37 -13.5t14 -35.5q0 -31 -21.5 -52.5t-52.5 -21.5q-20 0 -34.5 14.5t-14.5 34.5z" />
<glyph unicode="&#xf8;" horiz-adv-x="712" d="M44 -164l716 937h40l-716 -937h-40zM127 164q0 66 23.5 136.5t52.5 125.5q53 100 134 175t193 75q109 0 152 -59.5t43 -145.5q0 -35 -6 -72q-16 -100 -68 -194q14 -20 38 -33.5t52 -13.5q49 0 84 26.5t60.5 66.5t44.5 75q12 23 22 22q6 0 6 -8t-12 -37q-35 -70 -82 -121 t-123 -51q-70 0 -106 49q-57 -94 -139.5 -157.5t-178.5 -63.5q-78 0 -134 50t-56 155zM227 119q0 -66 28 -100.5t67 -34.5q100 0 198 98q29 29 52.5 60.5t41.5 64.5q-27 31 -38 66.5t-11 68.5q0 51 18.5 91t51.5 40q16 0 31.5 -16.5t19.5 -50.5q6 29 6 61q0 78 -28.5 124 t-96.5 46q-41 0 -84 -32t-80.5 -77t-66.5 -92t-43 -78q-35 -76 -50.5 -135t-15.5 -104z" />
<glyph unicode="&#xf9;" horiz-adv-x="737" d="M96 115q0 68 28 147.5t64.5 152t59.5 113.5q45 76 91 94.5t114 18.5q-20 -6 -53 -48t-69 -103.5t-68 -132t-51 -137t-19 -114.5q0 -35 13 -57t42 -22q25 0 57.5 19.5t59.5 47.5q90 100 146 220t126 239q45 76 91 94.5t114 18.5q-20 -6 -55 -50.5t-73 -110t-71 -140 t-54.5 -144t-21.5 -119.5q0 -33 13.5 -54t40.5 -21q25 0 57.5 20.5t58.5 46.5q47 51 86 112.5t78 131.5q6 8 10 8q8 0 9 -12q0 -10 -5 -17q-37 -68 -77.5 -135t-100.5 -127q-33 -33 -77 -54t-87 -13q-57 10 -81.5 46t-24.5 87q0 41 12 86q-25 -39 -52.5 -78t-61.5 -74 q-29 -29 -69 -48t-81 -19q-63 0 -91 36.5t-28 90.5zM402 911q0 13 12 26t27 13q6 0 13 -5q43 -33 96.5 -77.5t91.5 -70.5q7 -5 8 -12q0 -7 -6.5 -12t-11.5 -4l-220 124q-10 5 -10 18z" />
<glyph unicode="&#xfa;" horiz-adv-x="737" d="M96 115q0 68 28 147.5t64.5 152t59.5 113.5q45 76 91 94.5t114 18.5q-20 -6 -53 -48t-69 -103.5t-68 -132t-51 -137t-19 -114.5q0 -35 13 -57t42 -22q25 0 57.5 19.5t59.5 47.5q90 100 146 220t126 239q45 76 91 94.5t114 18.5q-20 -6 -55 -50.5t-73 -110t-71 -140 t-54.5 -144t-21.5 -119.5q0 -33 13.5 -54t40.5 -21q25 0 57.5 20.5t58.5 46.5q47 51 86 112.5t78 131.5q6 8 10 8q8 0 9 -12q0 -10 -5 -17q-37 -68 -77.5 -135t-100.5 -127q-33 -33 -77 -54t-87 -13q-57 10 -81.5 46t-24.5 87q0 41 12 86q-25 -39 -52.5 -78t-61.5 -74 q-29 -29 -69 -48t-81 -19q-63 0 -91 36.5t-28 90.5zM549 793q0 7 8 12q40 26 92 70.5t95 77.5q9 5 14 5q14 0 26 -13t12 -26q0 -12 -10 -18l-219 -124h-4q-13 0 -14 16z" />
<glyph unicode="&#xfb;" horiz-adv-x="737" d="M96 115q0 68 28 147.5t64.5 152t59.5 113.5q45 76 91 94.5t114 18.5q-20 -6 -53 -48t-69 -103.5t-68 -132t-51 -137t-19 -114.5q0 -35 13 -57t42 -22q25 0 57.5 19.5t59.5 47.5q90 100 146 220t126 239q45 76 91 94.5t114 18.5q-20 -6 -55 -50.5t-73 -110t-71 -140 t-54.5 -144t-21.5 -119.5q0 -33 13.5 -54t40.5 -21q25 0 57.5 20.5t58.5 46.5q47 51 86 112.5t78 131.5q6 8 10 8q8 0 9 -12q0 -10 -5 -17q-37 -68 -77.5 -135t-100.5 -127q-33 -33 -77 -54t-87 -13q-57 10 -81.5 46t-24.5 87q0 41 12 86q-25 -39 -52.5 -78t-61.5 -74 q-29 -29 -69 -48t-81 -19q-63 0 -91 36.5t-28 90.5zM410 765.5q-5 5.5 3 9.5l261 179q29 21 46 20q10 0 13 -10l72 -184q2 -2 2 -5q-1 -6 -10 -10.5t-13 1.5l-101 143l-254 -147q-2 -2 -7 -2q-7 0 -12 5.5z" />
<glyph unicode="&#xfc;" horiz-adv-x="737" d="M96 115q0 68 28 147.5t64.5 152t59.5 113.5q45 76 91 94.5t114 18.5q-20 -6 -53 -48t-69 -103.5t-68 -132t-51 -137t-19 -114.5q0 -35 13 -57t42 -22q25 0 57.5 19.5t59.5 47.5q90 100 146 220t126 239q45 76 91 94.5t114 18.5q-20 -6 -55 -50.5t-73 -110t-71 -140 t-54.5 -144t-21.5 -119.5q0 -33 13.5 -54t40.5 -21q25 0 57.5 20.5t58.5 46.5q47 51 86 112.5t78 131.5q6 8 10 8q8 0 9 -12q0 -10 -5 -17q-37 -68 -77.5 -135t-100.5 -127q-33 -33 -77 -54t-87 -13q-57 10 -81.5 46t-24.5 87q0 41 12 86q-25 -39 -52.5 -78t-61.5 -74 q-29 -29 -69 -48t-81 -19q-63 0 -91 36.5t-28 90.5zM442 850q0 29 22.5 49.5t49.5 22.5q23 0 38 -14.5t15 -36.5q0 -29 -23.5 -50.5t-52.5 -21.5q-20 0 -34.5 15.5t-14.5 35.5zM677 850q0 29 23 49.5t49 22.5q51 0 51 -49q0 -31 -23 -52.5t-52 -21.5q-20 0 -34 15.5 t-14 35.5z" />
<glyph unicode="&#xfd;" horiz-adv-x="899" d="M29 -485q0 37 24.5 78.5t73.5 74.5q63 43 115.5 69.5t114 52.5t153.5 69q14 33 26.5 64.5t26.5 58.5l94 245q-45 -55 -90 -102t-73 -74q-41 -31 -79 -48t-75 -17q-49 0 -68.5 28.5t-19.5 67.5q0 33 9 67.5t22 65.5q29 72 62.5 136.5t66.5 133.5q8 16 23.5 53t15.5 68 q0 35 -31 35q-29 0 -58.5 -27.5t-52 -62.5t-35.5 -55l-19 -39t-49 -95.5t-61 -105.5q-6 -10 -16 -10q-8 0 -8 8q0 4 10 25q45 80 70.5 133t58.5 110q33 59 76 113q29 31 62.5 46t66.5 15q57 0 78.5 -25.5t21.5 -62.5q0 -39 -16.5 -80t-32.5 -71q-51 -90 -84 -157t-57 -128 q-18 -45 -19 -74q0 -53 45 -53q37 0 76 33q109 88 176.5 206.5t128.5 247.5q20 41 51 89.5t76 82t105 29.5q-29 -27 -69 -98.5t-84 -167.5t-87 -200.5t-81 -200t-64 -160.5q55 23 130 68.5t140 119.5q47 49 85 111.5t77 132.5q6 8 12 8q8 0 8 -12q0 -10 -4 -17 q-37 -68 -78 -135t-100 -127q-74 -70 -148.5 -120t-140.5 -72q-49 -111 -103 -203t-124 -153.5t-168 -84.5q-33 -8 -65 -8q-59 0 -90 29t-31 72zM61 -481q0 -29 20.5 -47.5t59.5 -18.5q12 0 28 2t34 8q74 23 127 79.5t93 130t69 147.5q-66 -35 -164.5 -73t-186.5 -103 q-39 -31 -59.5 -64t-20.5 -61zM635 815q0 8 8 14q47 31 108.5 83.5t112.5 91.5q10 6 17 6q16 0 30.5 -15.5t14.5 -31.5q0 -14 -13 -21l-258 -145h-4q-16 0 -16 18z" />
<glyph unicode="&#xfe;" horiz-adv-x="606" d="M-236 -518l324 690q-4 -4 -8 -4q-8 0 -8 10q0 14 14 41l100 203l21 41q25 49 67.5 126t90 158.5t85 145t52.5 86.5q35 53 84 58t96 14q-10 -12 -44 -57.5t-78 -110t-87 -138.5q-45 -80 -108 -194q41 47 87 80t97 33q63 0 88 -33t25 -82q0 -45 -14.5 -96.5t-36 -98.5 t-40.5 -80q-20 -33 -60 -83t-89 -95q6 -39 24.5 -54t42.5 -15q29 0 62 18t55 45q35 41 64.5 94.5t54.5 100.5l6 16l2 2q6 0 6 -24q0 -12 -4 -25l-10 -21q-23 -45 -51.5 -96t-67.5 -90q-49 -49 -114 -49q-33 0 -62 17.5t-39 56.5q-39 -33 -82 -51.5t-84 -18.5t-62.5 19.5 t-25.5 52.5q-2 6 -2 20q0 10 1 19.5t3 19.5q-31 -74 -65.5 -162t-67.5 -173t-57.5 -153.5t-34.5 -103.5q-12 -6 -43 -18t-61 -23.5t-46 -17.5zM162 92q0 -27 13 -43t40 -16q37 0 75 29.5t73.5 74.5t66.5 94.5t51 87.5q12 20 33 65.5t37 96.5t16 90q0 27 -10 43.5t-39 16.5 q-31 0 -70.5 -38t-81.5 -93.5t-81 -108.5l-15 -20q-14 -31 -28.5 -59.5t-24.5 -51.5q-8 -20 -18.5 -42.5t-20.5 -47.5q-16 -45 -16 -78z" />
<glyph unicode="&#xff;" horiz-adv-x="899" d="M29 -485q0 37 24.5 78.5t73.5 74.5q63 43 115.5 69.5t114 52.5t153.5 69q14 33 26.5 64.5t26.5 58.5l94 245q-45 -55 -90 -102t-73 -74q-41 -31 -79 -48t-75 -17q-49 0 -68.5 28.5t-19.5 67.5q0 33 9 67.5t22 65.5q29 72 62.5 136.5t66.5 133.5q8 16 23.5 53t15.5 68 q0 35 -31 35q-29 0 -58.5 -27.5t-52 -62.5t-35.5 -55l-19 -39t-49 -95.5t-61 -105.5q-6 -10 -16 -10q-8 0 -8 8q0 4 10 25q45 80 70.5 133t58.5 110q33 59 76 113q29 31 62.5 46t66.5 15q57 0 78.5 -25.5t21.5 -62.5q0 -39 -16.5 -80t-32.5 -71q-51 -90 -84 -157t-57 -128 q-18 -45 -19 -74q0 -53 45 -53q37 0 76 33q109 88 176.5 206.5t128.5 247.5q20 41 51 89.5t76 82t105 29.5q-29 -27 -69 -98.5t-84 -167.5t-87 -200.5t-81 -200t-64 -160.5q55 23 130 68.5t140 119.5q47 49 85 111.5t77 132.5q6 8 12 8q8 0 8 -12q0 -10 -4 -17 q-37 -68 -78 -135t-100 -127q-74 -70 -148.5 -120t-140.5 -72q-49 -111 -103 -203t-124 -153.5t-168 -84.5q-33 -8 -65 -8q-59 0 -90 29t-31 72zM61 -481q0 -29 20.5 -47.5t59.5 -18.5q12 0 28 2t34 8q74 23 127 79.5t93 130t69 147.5q-66 -35 -164.5 -73t-186.5 -103 q-39 -31 -59.5 -64t-20.5 -61zM561 862q0 29 22.5 49.5t49.5 22.5q23 0 38 -14.5t15 -36.5q0 -29 -23.5 -50.5t-52.5 -21.5q-20 0 -34.5 15.5t-14.5 35.5zM797 862q0 29 22.5 49.5t48.5 22.5q51 0 52 -49q0 -31 -23.5 -52.5t-52.5 -21.5q-20 0 -33.5 15.5t-13.5 35.5z" />
<glyph unicode="&#x152;" horiz-adv-x="2621" d="M313 319q0 121 35 242q41 141 119 274.5t185.5 248t235.5 200.5t267 131q135 41 252 41q37 0 70.5 -4t64.5 -12q78 -23 125 -71t47 -120q0 -20 -6 -45q29 -27 48.5 -59.5t33.5 -69.5q23 53 55 99q59 78 145.5 133t184.5 84.5t195 29.5q47 0 98 -8t92 -27 q53 -23 76.5 -58.5t23.5 -74.5q0 -88 -98 -153q-31 -20 -83 -34.5t-103 -14.5q-72 0 -113 30q-8 8 -8 15q0 6 6 9t8 1q49 -25 115 -25q41 0 82 11.5t74 31.5q78 51 77 127q0 29 -17 55.5t-56 45.5q-33 16 -75 23t-83 7q-98 0 -204.5 -44t-176.5 -117q-51 -55 -92 -141.5 t-41 -172.5q0 -49 18 -96q57 20 114.5 29.5t111.5 9.5q78 0 111.5 -19.5t33.5 -54.5q0 -43 -49 -81t-139 -38q-12 0 -24.5 1t-25.5 4q-82 10 -129 33.5t-84 58.5q-25 -12 -52 -24.5t-56 -37.5q-104 -88 -157.5 -203.5t-53.5 -222.5q0 -121 55.5 -194.5t143.5 -105.5t188 -32 q117 0 227 35q127 41 244 127t180 223q12 25 17.5 48.5t5.5 44.5q0 53 -34 85.5t-97 32.5h-15.5t-17.5 -2q-84 -12 -136 -55t-80 -92t-42 -86q-6 -12 -10 -12q-6 0 -6 20q0 6 1 13.5t3 15.5q8 25 36.5 73t84 93t139.5 61q29 6 53 6q80 0 131 -46t51 -120q0 -47 -20 -94 q-45 -102 -128 -182t-188.5 -134.5t-219 -82t-222.5 -27.5q-20 0 -39.5 1t-38.5 3q-135 14 -220 67.5t-128 127.5q-125 -102 -274.5 -163.5t-313.5 -61.5q-160 0 -265 51t-162.5 136t-74.5 185q-6 47 -6 94zM471 297q0 -33 3 -62.5t7 -58.5q14 -76 53 -143.5t110 -108.5 t175 -41q162 0 303.5 75t253.5 194q-12 53 -12 106v23.5t2 23.5q16 133 103 249t227 185l4 2q10 43 15 87t5 85q0 127 -49 222q-20 -25 -41 -33q-14 -6 -22 -6t-7 6t9 12q12 10 21 26.5t16 33.5q-39 53 -98.5 83.5t-149.5 30.5t-192.5 -41t-198.5 -119 q-59 -49 -104.5 -117.5t-70 -139t-24.5 -126.5q0 -27 8 -48t25 -31q16 -8 16 -17q0 -8 -9 -10t-20 2q-37 14 -54 50t-17 85q0 84 47 188.5t129 174.5q102 90 226 136t239 46q82 0 147.5 -20.5t110.5 -53.5q-2 57 -42 94t-99 56q-49 14 -119 14q-51 0 -106.5 -8t-114.5 -29 q-102 -33 -212 -123t-206 -209.5t-162 -244.5q-51 -100 -88 -234.5t-37 -265.5zM1901 793q29 -51 92 -74t108 -23q41 0 72 13q51 18 51 55q0 23 -26.5 41t-83.5 18q-59 0 -112.5 -8t-100.5 -22z" />
<glyph unicode="&#x153;" horiz-adv-x="1001" d="M127 164q0 45 12 96q10 45 27.5 88t36.5 78q53 100 134 175t193 75q92 0 137.5 -45t55.5 -113q47 66 110.5 112t145.5 46q25 0 46.5 -6t37.5 -23q16 -14 23.5 -35.5t7.5 -44.5q0 -63 -39 -127.5t-98.5 -107.5t-122.5 -43q-57 0 -101 41q-12 -33 -20 -73t-8 -81 q0 -63 25.5 -110.5t92.5 -47.5q51 0 95.5 26t82.5 62q20 20 40 44t34 45q41 57 76 116q4 6 6 6q8 0 8 -14q0 -10 -6 -22q-14 -25 -33.5 -55.5t-40.5 -59.5q-20 -29 -40.5 -54.5t-43.5 -45.5q-39 -37 -84 -59.5t-104 -22.5q-61 0 -102 16t-68 45q-33 35 -39 92l-10 -16 q-27 -33 -57.5 -63.5t-67.5 -53.5q-78 -45 -152 -45q-78 0 -134 50t-56 155zM227 119q0 -66 28 -100.5t67 -34.5q53 0 114.5 33.5t112.5 93.5q31 37 51 75q0 47 13.5 97.5t29.5 93.5q20 49 49 100q2 70 -27.5 115t-97.5 45q-41 0 -84 -32t-80.5 -77t-66.5 -92t-43 -78 q-35 -76 -50.5 -135t-15.5 -104zM743 360q14 -20 34 -29t40 -9q49 0 102.5 37.5t86.5 89.5q14 23 25 59.5t11 69.5q0 29 -11 50t-44 21q-37 0 -86 -45t-96 -117q-14 -25 -32 -57.5t-30 -69.5z" />
<glyph unicode="&#x178;" horiz-adv-x="1523" d="M-53 860q0 59 18.5 118.5t46.5 111.5q68 123 183.5 209.5t254 134t271.5 47.5q84 0 152.5 -24.5t107.5 -76.5q31 -39 43 -81t12 -87q0 -76 -28.5 -156.5t-69.5 -155.5t-78 -134q-61 -102 -127.5 -220t-113 -229.5t-46.5 -201.5q0 -98 40 -136t100 -38q96 0 195.5 67.5 t195.5 177t182 238.5t155.5 254t112.5 221q41 92 94.5 183.5t118 159t138.5 83.5q6 2 12 2h10q29 0 44.5 -14.5t15.5 -30.5t-14.5 -31.5t-43.5 -15.5q-68 -2 -121 -44t-94 -105.5t-69.5 -132t-49.5 -124.5q-63 -178 -115.5 -357t-118 -358.5t-171.5 -357.5 q-113 -186 -260 -304t-352 -118q-37 0 -77 12.5t-66.5 37t-26.5 59.5q0 25 10 43q4 6 11 13t11 7q8 0 6 -16q-6 -53 46.5 -85t115.5 -32q74 0 156 44t162 147q74 96 141.5 210.5t125.5 234.5t105.5 229.5t81.5 195.5l52 127q-72 -119 -155 -233.5t-175 -208.5t-194.5 -150.5 t-211.5 -56.5q-111 0 -167 62.5t-56 162.5q0 31 6 68q18 115 66.5 217t111 198.5t123.5 192.5q33 53 76 126t75 154t32 154q0 35 -9.5 68t-31.5 59q-31 39 -84.5 55.5t-122.5 16.5q-119 0 -242 -52.5t-227.5 -139.5t-167.5 -191q-33 -55 -53.5 -114.5t-20.5 -119.5 q0 -14 3 -30.5t5 -32.5q14 -57 55.5 -86t92.5 -29q59 0 116 39q59 41 94.5 106.5t35.5 141.5q0 45 -17 94q-4 16 -14 31.5t-21 17.5q-10 4 -9 10.5t20 6.5q39 0 62.5 -44t29.5 -79q2 -10 3 -20.5t1 -20.5q0 -74 -37 -143.5t-96 -110.5q-82 -59 -170 -59q-66 0 -120 35.5 t-77 109.5q-14 43 -14 94zM1225 1589q0 29 22.5 49.5t49.5 22.5q23 0 38 -14.5t15 -36.5q0 -29 -23.5 -50.5t-52.5 -21.5q-20 0 -34.5 15.5t-14.5 35.5zM1460 1589q0 29 23 49.5t49 22.5q51 0 51 -49q0 -31 -23 -52.5t-52 -21.5q-20 0 -34 15.5t-14 35.5z" />
<glyph unicode="&#x2c6;" horiz-adv-x="643" d="M113.5 792.5q-7.5 6.5 1.5 10.5l262 211q29 25 49 24q12 0 18 -12l131 -217q2 -2 3 -6q0 -6 -9.5 -11.5t-15.5 1.5l-154 168l-262 -173q-2 -2 -8 -2q-8 0 -15.5 6.5z" />
<glyph unicode="&#x2dc;" horiz-adv-x="569" d="M98 879q0 41 39 72.5t86 31.5q59 0 112.5 -21.5t123.5 -21.5q57 0 80.5 21.5t27.5 29.5h17q0 -43 -34 -78.5t-91 -35.5q-70 0 -123 22.5t-113 22.5q-47 0 -73.5 -14.5t-32.5 -28.5h-19z" />
<glyph unicode="&#x2000;" horiz-adv-x="939" />
<glyph unicode="&#x2001;" horiz-adv-x="1878" />
<glyph unicode="&#x2002;" horiz-adv-x="939" />
<glyph unicode="&#x2003;" horiz-adv-x="1878" />
<glyph unicode="&#x2004;" horiz-adv-x="626" />
<glyph unicode="&#x2005;" horiz-adv-x="469" />
<glyph unicode="&#x2006;" horiz-adv-x="313" />
<glyph unicode="&#x2007;" horiz-adv-x="313" />
<glyph unicode="&#x2008;" horiz-adv-x="234" />
<glyph unicode="&#x2009;" horiz-adv-x="375" />
<glyph unicode="&#x200a;" horiz-adv-x="104" />
<glyph unicode="&#x2010;" horiz-adv-x="649" d="M264 360v39h369v-39h-369z" />
<glyph unicode="&#x2011;" horiz-adv-x="649" d="M264 360v39h369v-39h-369z" />
<glyph unicode="&#x2012;" horiz-adv-x="649" d="M264 360v39h369v-39h-369z" />
<glyph unicode="&#x2013;" horiz-adv-x="841" d="M264 360v39h541v-39h-541z" />
<glyph unicode="&#x2014;" horiz-adv-x="1196" d="M264 360v39h916v-39h-916z" />
<glyph unicode="&#x2018;" horiz-adv-x="288" d="M51 1143q0 33 31 86t85 100t124 57q25 0 24 -18q0 -14 -20 -14q-68 -14 -110 -58.5t-64 -81.5q2 0 5 1.5t7 1.5q25 0 41 -15.5t16 -42.5q0 -33 -24.5 -57.5t-59.5 -24.5q-25 0 -40 18.5t-15 47.5z" />
<glyph unicode="&#x2019;" horiz-adv-x="538" d="M262 1083q0 12 23 13q66 14 108.5 58t65.5 81h-13q-27 0 -43 15.5t-16 39.5q0 33 23.5 56.5t56.5 25.5q61 0 61 -69q-2 -35 -33.5 -87.5t-84.5 -95.5t-123 -55q-25 0 -25 18z" />
<glyph unicode="&#x201a;" horiz-adv-x="296" d="M45 -135q0 12 18 12q61 10 100.5 57.5t57.5 75.5h-8q-49 0 -49 45q0 29 20.5 48.5t46.5 19.5q47 0 48 -51q0 -27 -27 -77t-74 -93.5t-110 -53.5q-23 0 -23 17z" />
<glyph unicode="&#x201c;" horiz-adv-x="462" d="M51 1143q0 33 31 86t85 100t124 57q25 0 24 -18q0 -14 -20 -14q-68 -14 -110 -58.5t-64 -81.5q2 0 5 1.5t7 1.5q25 0 41 -15.5t16 -42.5q0 -33 -24.5 -57.5t-59.5 -24.5q-25 0 -40 18.5t-15 47.5zM250 1143q0 33 30.5 86t86 100t125.5 57q25 0 24 -18q0 -14 -22 -14 q-66 -14 -109 -58.5t-66 -81.5q4 0 6.5 1.5t4.5 1.5q27 0 43 -15.5t16 -42.5q0 -33 -23.5 -57.5t-58.5 -24.5q-27 0 -42 18.5t-15 47.5z" />
<glyph unicode="&#x201d;" horiz-adv-x="841" d="M461 1096q0 12 22 12q66 14 109 59t65 80h-10q-27 0 -43 15.5t-16 42.5q0 31 22.5 55t55.5 26q61 0 61 -65q0 -33 -30.5 -87t-85 -99.5t-126.5 -57.5q-25 0 -24 19zM662 1096q0 12 20 12q68 14 111 59t63 80h-10q-25 0 -42.5 16.5t-17.5 41.5q0 31 24 55t56 26 q27 0 43.5 -17t16.5 -48q0 -33 -32 -87t-85 -99.5t-123 -57.5q-25 0 -24 19z" />
<glyph unicode="&#x201e;" horiz-adv-x="489" d="M45 -135q0 12 18 12q61 10 100.5 57.5t57.5 75.5h-8q-49 0 -49 45q0 29 20.5 48.5t46.5 19.5q47 0 48 -51q0 -27 -27 -77t-74 -93.5t-110 -53.5q-23 0 -23 17zM240 -135q0 12 18 12q59 10 98 57.5t58 75.5h-8q-49 0 -50 47q0 27 19.5 45.5t46.5 20.5q49 0 49 -53 q0 -25 -26.5 -75t-74 -93.5t-110.5 -53.5q-20 0 -20 17z" />
<glyph unicode="&#x2022;" horiz-adv-x="1044" d="M344 498q0 70 49 119t119 49t120 -48.5t50 -119.5q0 -70 -50 -119t-120 -49t-119 49t-49 119z" />
<glyph unicode="&#x2026;" horiz-adv-x="1030" d="M170 41q0 31 23.5 51.5t52.5 20.5q23 0 36 -15.5t13 -36.5q0 -31 -23.5 -51t-52.5 -20q-20 0 -34.5 15t-14.5 36zM520 41q0 31 23.5 51.5t52.5 20.5q23 0 35 -15.5t12 -36.5q0 -31 -22.5 -51t-51.5 -20q-23 0 -36 15t-13 36zM870 39q0 31 22.5 52.5t53.5 21.5 q23 0 35 -15.5t12 -36.5q0 -31 -22 -51t-51 -20q-20 0 -35 14t-15 35z" />
<glyph unicode="&#x202f;" horiz-adv-x="375" />
<glyph unicode="&#x2039;" horiz-adv-x="438" d="M80 348q0 10 2 21.5t10 19.5t36 35t64.5 61.5t72.5 67.5t59.5 54.5t25.5 21.5q4 0 5 -8.5t1 -12.5q0 -8 -2 -17t-8 -18q-14 -20 -32.5 -40.5t-34.5 -38.5l-111 -125l178 -176q10 -8 17.5 -13.5t7.5 -21.5q-1 -13 -13 -13q-8 0 -45 21.5t-85 51.5t-87 55.5t-49 33.5 q-8 8 -10 19.5t-2 21.5z" />
<glyph unicode="&#x203a;" horiz-adv-x="438" d="M90 158q0 16 8 21t17 14l180 176l-113 125q-16 18 -33.5 38.5t-33.5 40.5q-6 8 -8.5 17.5t-2.5 17.5q0 4 1 11.5t6 9.5l4 -2l168 -156q23 -20 44 -39.5t42 -42.5q8 -8 10 -19.5t2 -21.5t-1 -21.5t-11 -19.5t-49 -33.5t-87.5 -55.5t-86.5 -51.5t-44 -21.5q-12 0 -12 13z " />
<glyph unicode="&#x205f;" horiz-adv-x="469" />
<glyph unicode="&#x20ac;" horiz-adv-x="1185" d="M68 539l28 43h154q16 47 37.5 96t48.5 96h-154l29 43h149q86 145 209 268t270.5 198t305.5 75q74 0 135 -29t61 -106q0 -53 -31.5 -79t-62.5 -26q-33 0 -39 23q16 16 21.5 36.5t5.5 43.5q0 53 -34 79.5t-83 26.5q-115 0 -231.5 -70.5t-220 -186.5t-183.5 -253h389 l-28 -43h-385q-27 -47 -47.5 -96t-36.5 -96h383l-29 -43h-369q-18 -61 -28 -119t-10 -111q0 -127 66.5 -210t219.5 -83q104 0 209 36t187 112q70 63 114.5 147t50.5 158q6 2 12.5 2h10.5q29 0 43 -16.5t14 -40.5v-15.5t-4 -15.5q-53 -168 -221 -277q-86 -57 -196.5 -90.5 t-219.5 -33.5q-141 0 -229 47t-129 130t-41 185q0 90 29 195h-170z" />
<glyph unicode="&#x2122;" horiz-adv-x="993" d="M90 1286l11.5 34.5t13.5 41.5l6 18h323q-8 -18 -18 -49t-14 -45h-17q4 57 -20.5 64.5t-61.5 7.5q-18 0 -20 -8q-6 -14 -14.5 -54.5t-18.5 -89.5t-17 -93t-10 -69q-2 -18 23 -27t37 -7l-4 -13h-187l4 11q18 0 43 9t31 27q6 25 16.5 68t19.5 92t15.5 89t6.5 57q0 8 -17 8 q-39 0 -71.5 -12.5t-43.5 -59.5h-16zM356 995l4 13q35 0 53.5 37.5t30.5 74.5q16 53 25.5 95t24.5 100q2 4 2 14q0 20 -12.5 30.5t-28.5 6.5l4 14h106q2 -20 8.5 -67t12.5 -94q4 -33 9 -67t13 -67q2 -14 7.5 -17t11.5 5q8 12 34.5 58.5t57.5 101.5t53.5 98t22.5 49h123 l-5 -12q-37 2 -50 -14.5t-21 -48.5q-4 -33 -9.5 -91.5t-9.5 -103.5q-2 -8 -2 -15.5v-17.5q0 -27 9.5 -48t41.5 -19l-4 -13l-178 -2l2 13q70 0 82 88q4 16 7 57t7.5 89t6.5 81q-43 -70 -83 -138.5t-77 -140.5q-8 -14 -20.5 -32.5t-24.5 -18.5q-18 0 -25 49q-8 76 -19 144.5 t-22 144.5q-16 -51 -32.5 -106.5t-26.5 -110.5q-2 -10 -4 -23.5t-2 -27.5q0 -20 9 -37.5t36 -15.5l-4 -13z" />
<glyph unicode="&#x25fc;" horiz-adv-x="686" d="M0 0v686h686v-686h-686z" />
<glyph unicode="&#xfb01;" horiz-adv-x="819" d="M-666 -528q0 29 7 43q4 10 11 14t9 -8q16 -76 66.5 -109t113.5 -33t133 28t134.5 76t111.5 109q74 96 137.5 213t102.5 236q-27 27 -39 65q-6 16 -6 31q0 27 14 44.5t37 8.5q10 -2 17 -18t12 -33q39 109 92 235t104 251h-180q-8 0 -8 6q0 8 9 17t17 9h179q39 86 90 204 t118.5 237t153.5 207q61 63 142 108t169 45q43 0 72 -16.5t37 -40.5q0 -2 1 -3t1 -5q0 -6 -4 -8.5t-14 8.5q-12 14 -38 24t-61 10q-57 0 -111.5 -34.5t-99.5 -86t-78 -98.5q-74 -104 -142.5 -246.5t-135.5 -304.5h104q8 0 9 -6q0 -8 -8.5 -17t-18.5 -9h-100l-228 -557 l-16 -37q14 -12 39 -19q18 -4 35.5 -7t33.5 -3q53 0 96.5 22.5t77.5 61.5q8 8 16.5 18.5t16.5 22.5q2 16 4 31.5t6 29.5q23 82 71 183.5t93 181.5q27 45 49.5 64.5t49 28.5t63.5 22q10 4 20.5 6t22.5 4q-41 -41 -83 -98.5t-91 -157.5q-27 -53 -53.5 -118.5t-44 -123 t-19.5 -90.5q-2 -39 10.5 -55.5t32.5 -16.5q35 0 67 25t56 51q45 51 85 112.5t79 131.5q6 8 10 8q8 0 8 -12q0 -10 -4 -17q-37 -68 -77.5 -135t-100.5 -127q-27 -27 -62.5 -47t-80.5 -20q-51 0 -78 29.5t-31 74.5l-35 -39q-33 -37 -87 -56.5t-113 -19.5q-47 0 -96 17 q-43 -94 -110 -194.5t-149.5 -193.5t-174 -161.5t-183.5 -97.5q-27 -8 -55.5 -13.5t-57.5 -5.5q-49 0 -92 17.5t-65 58.5q-14 31 -15 68zM907 848q0 35 25.5 58.5t58.5 23.5q27 0 42.5 -16.5t15.5 -41.5q0 -33 -25.5 -58.5t-58.5 -25.5q-27 0 -42.5 17.5t-15.5 42.5z" />
<glyph unicode="&#xfb02;" horiz-adv-x="913" d="M-698 -528q0 29 6 43q4 10 11 14t9 -8q16 -76 66.5 -109t113.5 -33q106 0 194.5 51.5t160 135.5t128 185.5t100.5 204.5t79 189q-10 14 -24.5 46t-14.5 71q0 31 8 62.5t33 31.5q23 0 30 -23.5t7 -51.5q0 -14 -1 -25.5t-3 -22.5l65 175q20 51 41 103t47 114h-180 q-8 0 -8 6q0 8 9 17t18 9h176q57 137 121.5 275.5t141.5 256.5t169 189q41 33 95 60.5t118 27.5q131 0 131 -112q0 -2 -5 -4t-5 2q0 37 -28 58.5t-69 21.5q-37 0 -75.5 -15.5t-67.5 -40.5q-90 -78 -168 -199.5t-142.5 -258t-113.5 -261.5h105q8 0 8 -6q0 -8 -8.5 -17 t-18.5 -9h-100q-25 -55 -58.5 -143.5t-71.5 -188.5t-79 -195q37 -31 104 -30q35 0 72 11t68 32q53 41 91 83t70 107q6 14 13 16q23 74 50.5 143.5t52 122t34.5 72.5q37 78 91 176.5t123 201t145.5 194.5t159.5 159.5t165 92.5q23 6 41 6q35 0 58.5 -19.5t23.5 -66.5 q0 -33 -17 -82q-27 -72 -90 -159t-149 -180t-181.5 -183t-185.5 -168t-160 -133q-18 -39 -33.5 -76t-27.5 -72q-6 -18 -18.5 -55t-22.5 -82t-10 -86t16.5 -70.5t59.5 -29.5q35 0 64.5 22.5t53.5 48.5q86 98 154 228q8 14 12 14t4 -12q0 -18 -8 -39q-39 -72 -70.5 -121 t-91.5 -109q-27 -27 -62.5 -47t-80.5 -20q-74 0 -102.5 43t-28.5 108q0 23 3 48.5t7 52.5q-29 -45 -64.5 -85t-88.5 -75q-27 -18 -64 -29.5t-78 -11.5q-66 0 -114 31q-35 -80 -91.5 -178.5t-129 -198t-158.5 -182t-184.5 -133t-202.5 -50.5q-43 0 -89.5 18.5t-68.5 57.5 q-14 31 -14 68zM854 541q66 55 148.5 132t171 165t167 176t137 165.5t78.5 135.5q18 53 19 82q0 53 -47 53q-27 0 -64 -19.5t-67 -50.5q-51 -49 -120 -140t-144.5 -208t-148.5 -243.5t-130 -247.5z" />
</font>
</defs>
</svg>
